<svg xmlns="http://www.w3.org/2000/svg" xmlns:xlink="http://www.w3.org/1999/xlink" viewBox="0 0 1000 848.61"><defs><style>.cls-1{isolation:isolate;}.cls-2,.cls-3{fill:#62467a;}.cls-2,.cls-28,.cls-29{opacity:0.5;}.cls-26,.cls-27,.cls-3{opacity:0.7;}.cls-17,.cls-4{opacity:0.8;}.cls-17,.cls-20,.cls-23,.cls-24,.cls-4,.cls-9{mix-blend-mode:multiply;}.cls-4{fill:url(#linear-gradient);}.cls-5{fill:#e0ac9b;}.cls-6{fill:#d4d5d6;}.cls-7{fill:#4a75dd;}.cls-8{fill:#cc9483;}.cls-9{fill:url(#linear-gradient-2);}.cls-10,.cls-25,.cls-27,.cls-28,.cls-30,.cls-32,.cls-37,.cls-38{fill:#fff;}.cls-11{fill:#212121;}.cls-12{fill:#6597ef;}.cls-13{fill:#a0593a;}.cls-14{fill:#ba784a;}.cls-15,.cls-16{fill:#e5e5e5;}.cls-16,.cls-25{opacity:0.6;}.cls-17{fill:url(#linear-gradient-3);}.cls-18{fill:#a1a6af;}.cls-19{fill:#b5b8bc;}.cls-20{fill:url(#linear-gradient-4);}.cls-21{fill:#752e1b;}.cls-22{fill:#964732;}.cls-23{opacity:0.9;fill:url(#linear-gradient-5);}.cls-24{fill:url(#linear-gradient-6);}.cls-25,.cls-26,.cls-27,.cls-28,.cls-30{mix-blend-mode:soft-light;}.cls-31{fill:#a380b7;}.cls-32{opacity:0.42;}.cls-33{fill:#b6bfc6;}.cls-34{fill:url(#linear-gradient-7);}.cls-35{fill:url(#linear-gradient-8);}.cls-36{fill:#1f3e93;}.cls-37{opacity:0.4;}.cls-38{opacity:0.68;}</style><linearGradient id="linear-gradient" x1="200.3" y1="-74.28" x2="323.72" y2="707.37" gradientUnits="userSpaceOnUse"><stop offset="0" stop-color="#fff"/><stop offset="0.26" stop-color="#bcbcbc"/><stop offset="0.6" stop-color="#696969"/><stop offset="0.84" stop-color="#353535"/><stop offset="0.96" stop-color="#212121"/></linearGradient><linearGradient id="linear-gradient-2" x1="267.09" y1="339.98" x2="272.14" y2="294.84" gradientTransform="translate(31.29 -29.44) rotate(2.89)" gradientUnits="userSpaceOnUse"><stop offset="0" stop-color="#fff"/><stop offset="0.52" stop-color="#c6c0b9"/></linearGradient><linearGradient id="linear-gradient-3" x1="562.97" y1="126.19" x2="706.66" y2="671.97" xlink:href="#linear-gradient"/><linearGradient id="linear-gradient-4" x1="709.57" y1="336.14" x2="710.84" y2="307.62" gradientUnits="userSpaceOnUse"><stop offset="0" stop-color="#fff"/><stop offset="0.64" stop-color="#c6c0b9"/></linearGradient><linearGradient id="linear-gradient-5" x1="751.86" y1="179.25" x2="802.53" y2="723.93" xlink:href="#linear-gradient"/><linearGradient id="linear-gradient-6" x1="827.33" y1="372.19" x2="806.11" y2="332.52" gradientUnits="userSpaceOnUse"><stop offset="0" stop-color="#fff"/><stop offset="0.13" stop-color="#fbfafa"/><stop offset="0.29" stop-color="#eeebea"/><stop offset="0.47" stop-color="#d9d2d0"/><stop offset="0.66" stop-color="#bcb0ac"/><stop offset="0.71" stop-color="#b3a6a1"/></linearGradient><linearGradient id="linear-gradient-7" x1="382.81" y1="566.25" x2="464.28" y2="566.25" gradientUnits="userSpaceOnUse"><stop offset="0" stop-color="#d4d5d6"/><stop offset="0.03" stop-color="#dadbdc"/><stop offset="0.14" stop-color="#ebebeb"/><stop offset="0.28" stop-color="#f6f7f7"/><stop offset="0.47" stop-color="#fdfdfd"/><stop offset="1" stop-color="#fff"/></linearGradient><linearGradient id="linear-gradient-8" x1="377.38" y1="558.53" x2="458.85" y2="558.53" gradientUnits="userSpaceOnUse"><stop offset="0" stop-color="#d4d5d6"/><stop offset="0.16" stop-color="#e6e7e8"/><stop offset="0.35" stop-color="#f4f5f5"/><stop offset="0.59" stop-color="#fdfdfd"/><stop offset="1" stop-color="#fff"/></linearGradient></defs><g class="cls-1"><g id="Layer_1" data-name="Layer 1"><path class="cls-2" d="M919.94,790.25c0,32.3-184.17,58.48-411.36,58.48S97.22,822.55,97.22,790.25s184.17-58.47,411.36-58.47S919.94,758,919.94,790.25Z" transform="translate(0 -0.12)"/><path class="cls-3" d="M831.64,792.2c0,22.64-144.64,41-323.06,41s-323.06-18.36-323.06-41,144.64-41,323.06-41S831.64,769.56,831.64,792.2Z" transform="translate(0 -0.12)"/><path class="cls-4" d="M412.55,415.46c.58-1.75-17-1.72-17.12-2.72-.18-1.24,15.78,1.45,16.07-1.48.17-1.58-14.06-2.74-16.43-2.61-2.77.15-13.21.23-10.76-2.33,2-2.09,5.25-3.07,6.32-5s-1.63-2.22-3.24-1.3c-4.45,2.53-9.64,2.2-11.93,3.95s-7.6,4.38-10.19,5.71c-.44-1.85-.71-3.05-.71-3.05l-5.16.73c0-.24,0-.51,0-.71-21.56.25-45.63,4.09-48.31.26-5.9-8.46-31.46-53-31.46-53a17.15,17.15,0,0,0-4.25-1.33,3.93,3.93,0,0,0-1.39-1.32c-.31-.18-4.37-1.13-13.55-6.11L258.91,342s-12.08-6.16-16.29-8.08c-1.71-1.29-3-2.08-2.84-1.38a5.63,5.63,0,0,1,0,.92l-.17-.09a38.63,38.63,0,0,1-.6-6.29,14.91,14.91,0,0,0,2.13-1.24c3.42-2,4.78-5.24,6.17-9.6,1.45-3.88,2.84-14.64,2.93-15.36a87.38,87.38,0,0,0,.3-15.88c.28,2,.44,3.45.44,3.45l1.66-.35a53.31,53.31,0,0,0-.36-16.8,32.31,32.31,0,0,0-1.33-4.09c2.79-6-5.9-14.11-12-17.06s-25-10.16-34.51-4.43c-5.81,3.52-6.6,5.52-6.36,6.56-3.09.19-6.2,1.19-6.83,3.18-16.55,10.06-6,37.23-6,37.23l.09-.06c2.59,8.11,6.62,18.59,6.58,19.38,0,1.08.16,5-1,4.67s8.53,6,10.17,4.06a2.67,2.67,0,0,0,.16-.42c-.12,2-.26,3.95-.38,5.86a4,4,0,0,0-1.19,1,2.19,2.19,0,0,1-.11-.4s-.49.57-1.22,1.39a10.89,10.89,0,0,1,1.11-2.18c0-.59-13.66,9.77-13.66,9.77l-.52,3.11c-14.93,10.44-24.49,15.5-34.59,20a1.63,1.63,0,0,0-.91,1.88c-.39.27-.79.51-1.19.82-2.67,2-1.4,10-2.8,13.95-5,14-1.29,64.53,5.7,89.32,1.79,6.3,7.85,7.84,10.43,9.3,1.42.82,6.56,2.21,13.47,3.81.78,22.36-1.78,42.52-1,66.39,0,.32,4.32.65,10.82.85,0,.13,0,.26,0,.4-6.45.09-10.64.11-10.64.11s4.19,0,10.64,0c4.26,49.78,12.88,99.34,12.95,108.38a466.53,466.53,0,0,0,12.17,103.65c3.31,14.61,8.62,18.47,8.62,18.47,0-1.24,1.32-2.35,3.52-3.35,3.14,10.51,8.28,7,8.28,7s1-.22,1.42.34c5.16,6.69,18.25,10.92,34.63,10.92,13.05,0,9.26-8.64,6.8-10.54-3.49-2.65-13.15-8.68-16.67-11.92-.72-.66-1.35-1.29-2-1.92l3.37-.31a58.2,58.2,0,0,0-.81-5.83l.43.14c1.57.63-1.89-6.16-3.88-12.94a440,440,0,0,1-9.92-43c-.95-8.43-1.67-17-2-24.47a30.21,30.21,0,0,1,.43-3.32c2-10.38,5-45.44,6.24-75.19,2,20.37,4.15,43.6,4.41,50,1.93,45.4,5.83,62.16,12.12,92.06A203.9,203.9,0,0,0,271.05,766c0-1.27,1.4-2.4,3.66-3.42,3.05,10.68,8.37,7.1,8.37,7.1s1-.24,1.45.33c5.18,6.8,18.5,11.06,35.27,11,13.39,0,9.66-8.82,7.16-10.74-3.51-2.68-13.33-8.77-16.87-12.09-.71-.66-1.35-1.29-2-1.93,2.11-.21,3.44-.32,3.44-.32a57.28,57.28,0,0,0-.69-5.72,2,2,0,0,0,.4-.08c1.41-.67-1.83-6.27-3.74-13.16a434.82,434.82,0,0,1-9.42-43.57c-.84-8.65-1.45-17.42-1.66-25.15a30.06,30.06,0,0,1,.48-3.32c.95-4.5,1.3-13.6,1.2-24.91.53-14.21-1.07-38.56-2.87-60-.47-5.88-1-11.41-1.47-16.35-1.25-13.06-2.33-23-2.64-25.41,0-.1,0-.21-.05-.31,4.66-.44,8.32-.82,8.32-.82-3.89-16.88-6.4-27.47-8.4-35.89l3,.82-3.55-15.32-3-.84c-1.16-5.1-2.34-10.49-3.83-17.58-2.27-10.86-3.23-28.4-3.64-43.4,6.69,10.24,15,18.4,24.77,21,6,1.63,62.95-1.41,61.87-4.09a65.51,65.51,0,0,1-2.26-6.94l7.25-1.17a60.68,60.68,0,0,1-2-6.64c8.42-.05,20.59-1.19,20.59-1.19s14,1.05,14.46-.12c.85-2.33-10.87-1.68-11.45-3.68-.75-2.54,21,1.71,17.24-3-.55-.67-4-.16-7.38-.37-3.69-.22-7.16-.48-7.16-.48C397.59,416.4,411.27,419.21,412.55,415.46Z" transform="translate(0 -0.12)"/><path class="cls-5" d="M402.22,395.86c2.34-1.05,7.27-3.15,9.4-4.59s6.56-.79,10.6-2.79c1.45-.74,3.72-.23,2.67,1.42s-3.95,2.34-5.86,4.13c-2.33,2.19,6.66,2.83,9,2.89,2.05,0,14.12,2.07,13.84,3.51-.48,2.68-13.93-.88-13.88.27.05.94,15.07,2.09,14.44,3.67-1.4,3.36-12.89-.14-14.5,1.39,0,0,2.95.46,6.11.92,2.91.43,5.87.18,6.29.84,2.87,4.64-15.48-.74-15.06,1.66.33,1.9,10.47,2.06,9.55,4.17-.47,1.06-12.47-.84-12.47-.84s-16.73.4-22.66-.8c-3.55-.76-14.48,1.36-14.48,1.36l4.33-15.39S398.19,397.63,402.22,395.86Z" transform="translate(0 -0.12)"/><path class="cls-6" d="M393.11,393.58l8.83-.62s2.68,22.69,3.64,25.63L393,419.81Z" transform="translate(0 -0.12)"/><path class="cls-7" d="M333.25,338.36c-10.16-6-16,3.53-17.37,10.84-3.33,17.62,5.43,67.6,29.41,76.54,5.22,1.95,55.88,2.73,55.18.15-2.21-8.14-3.84-28.4-3-33.27-18.8-1.27-40.34.61-42.31-3.15C350.87,381.19,333.25,338.36,333.25,338.36Z" transform="translate(0 -0.12)"/><path class="cls-7" d="M263.51,310.79c1.43-2.7,2.64-4.85,5.57-4.34s32.5,7,33.14,12.4S295.05,329.2,290,329.69,263.51,310.79,263.51,310.79Z" transform="translate(0 -0.12)"/><path class="cls-8" d="M302.22,303.4a33.63,33.63,0,0,0-.61,21c2.07,6.4-8.71,15.52-12.54,15s-24.68-21.45-24.68-21.45,5-23.58,6.2-29.1S302.22,303.4,302.22,303.4Z" transform="translate(0 -0.12)"/><path class="cls-9" d="M301.35,306.06c-.15,1-1.49,5.81-1.54,9.95-3.8,4.21-27.26,20.3-33.35,19.5-5-.71-.28-9.38-3-13.16,1.36-5,7.2-33.77,7.37-35Z" transform="translate(0 -0.12)"/><path class="cls-10" d="M329.63,337.48l-25.95-17.07c-6.77,20-18.9,12.65-19.37,12.38C280,330.38,265.49,319.61,264,316l-1.2-2.36c-14.63,4.44-26.17,14-31.74,13.71,0,0,6.31,41.95,6.92,54.72.72,15.51-6.23,70.34-6.23,70.34s38.52,3.67,52.21,2.78l31.35,1.24s-.85-5.78.23-27c.31-6.63,8.29-36.07,6.62-53.69Z" transform="translate(0 -0.12)"/><path class="cls-11" d="M276.58,755.45c-.39-5.76,3-9.45.42-39.16-.32-3.61,26.57-4.81,26.57-4.81-1.18,14.58-5,23.73,9.09,41.29,3.06,3.84,12,10.92,15.1,14,2.22,2.22,4.81,12.42-8.46,12.42-16.72,0-29.47-5-33.72-13-.35-.67-1.4-.4-1.4-.4S277.67,770.51,276.58,755.45Z" transform="translate(0 -0.12)"/><path class="cls-7" d="M275.19,546.06c0,11.8-2.71,75-3.79,86.73-4.61,50.09-3.18,69-1.24,103.14,1,17.21,2.46,25.58,2.46,25.58,1-7.88,41.77-11.31,41.77-11.31s1-15.27-3-21.2-2.95-78.74,3-98.42,7.84-107.29,7.84-115.16c0-7.21.8-17.9,0-45.29-.06-2.5-4.79-12.59-4.89-15.26,0,0-34.79-5.57-38.82,1.51s-.66-3.67,1.86,40.53Z" transform="translate(0 -0.12)"/><path class="cls-12" d="M319.93,518.69c-1.48,40.36-6.93,104-13.65,115.77-9.3,16.32-5.32,13.47-7.62,24.17-2.21,10.35-1.46,62.77-1.46,66.46s-21.38,8.12-17,11.07,20.62-2.21,20.62,0-12.52,6.63-12.52,6.63,25.07,1.5,26.52.76-1-7.17-2-15-6.86-61-1-80.22,11.55-115.41,9.35-128S319.93,518.69,319.93,518.69Z" transform="translate(0 -0.12)"/><path d="M222,767.24c-.38-5.78,3-9.46.43-39.18-.31-3.59,26.57-4.79,26.57-4.79-1.19,14.58-5,23.73,9.09,41.3,3.07,3.8,12,10.91,15.11,14,2.2,2.23,4.79,12.41-8.46,12.41-16.73,0-29.5-5-33.73-13-.35-.66-1.4-.4-1.4-.4S223,782.3,222,767.24Z" transform="translate(0 -0.12)"/><path class="cls-7" d="M223.49,489.83c-6.31,59.37-5.08,132.08-6.71,143.78a583.35,583.35,0,0,0-4.6,117.89c1,17.21,5.82,21.8,5.82,21.8,1-7.88,41.77-11.33,41.77-11.33s1-15.26-3-21.17-2.94-78.74,3-98.42,17.94-103.62,17.94-111.48c0-7.21,5.81-22.71,5-50.1-.06-2.51-19.93-11.48-20-14.13Z" transform="translate(0 -0.12)"/><path class="cls-12" d="M277.58,537.9c-7.53,40.53-16.4,88.57-27.19,103.29-9.23,12.63-4.15,18.91-6.35,29.25s.27,56.43.27,60.1-26.49,25.75-21.75,23.37c18.29-9.16,22.69-10.1,22.69-7.88s-11.54,8.55-11.54,8.55,14.69-5.08,26.53.76c1.49.74-1-7.17-2-15s-6.85-61-1-80.22,24.36-113.89,22.16-126.44S277.58,537.9,277.58,537.9Z" transform="translate(0 -0.12)"/><polygon points="295.82 453.62 291.69 328.87 282.32 328.58 278.98 330.37 286.23 338.06 281.83 442.68 295.82 453.62"/><polygon class="cls-11" points="306.48 443.96 296.08 337.69 299.48 332.15 298.07 328.1 290.3 328.9 291.03 337.84 291.09 337.84 295.82 453.62 306.48 443.96"/><path class="cls-6" d="M300.59,315.8c.21,4.43-6,12.46-7.55,13.11,2,.84,10.73,11.09,10.73,11.09L309,323.83S300.48,314,300.59,315.8Z" transform="translate(0 -0.12)"/><path class="cls-6" d="M265.53,307.25c-.33,3.3,12.11,17.69,22.14,21.91-3.18,1.13-15.86,9.63-18.77,12.83-8.35-10-13.86-26.28-12.4-27.25A111.31,111.31,0,0,0,265.53,307.25Z" transform="translate(0 -0.12)"/><path class="cls-13" d="M256.52,268c-.19,5.14,4.3,24.2,4.11,25.2s-.52,4.5-1.51,4.12,6.84,6.14,8.56,4.53S273.84,273,273,271.62,256.52,268,256.52,268Z" transform="translate(0 -0.12)"/><path class="cls-5" d="M313.55,288.4c2.33-9.38,3.75-23.63-.4-33.59-2.73-6.39-17.61-11.66-21.1-11.58-21.55.58-22.15,14.23-22,28.29-5-2.77-6.91,2.08-6.39,7.64.37,4.26,2.74,9,5.61,10.36,2,12.05,10.29,21,25.5,22.22a14.14,14.14,0,0,0,7.81-1.86c3.25-1.5,4.83-4.3,6.56-8.08C310.91,298.47,313.38,289,313.55,288.4Z" transform="translate(0 -0.12)"/><path class="cls-13" d="M267.42,243.18c1.68-3.48,12.24-2.32,12,.37l5.2-.11c0-5-1.48,9.79-1.2,10.88-12.42.6-8.17,14.07-9.39,16.26-1.67,2.89-.51,7.88-.51,7.88l-3.75-2.11-1.45-6-11.12,5.07S251.49,250.41,267.42,243.18Z" transform="translate(0 -0.12)"/><path class="cls-14" d="M309.62,243.06c-4.91-3.14-20.43-11.12-29.43-7.08s-5.86,5.94-5.86,5.94l9.13,12.4A12.63,12.63,0,0,1,296,257.6c8.87,8.91,17.55,2.5,17.62,2.58,2.34,2.84,2,17.31,2,17.31l1.49-.15a47.63,47.63,0,0,0,1.6-14.73,25.9,25.9,0,0,0-.68-3.68C321.11,254,314.55,246.18,309.62,243.06Z" transform="translate(0 -0.12)"/><path class="cls-7" d="M294.31,459.15c-.09,19.09-1.34,48.48-1.34,48.48s-4.18,5.74-15.87,9.18c-14.36,4.22-66.44.11-66.31-1.06,3.29-27.32,9.85-49.32,12-74.92.87-10.42,2.22-47.2.17-51.49s-3.05-29.16-2.28-39.34c.32-4.45-8.08-16.07-4-17.43,11.61-3.89,22.51-8.49,42.43-20.12,0,0-1.12,20,3.39,26.72,4.56,6.87,26.71,50.38,30.12,57.49C294.7,400.91,294.48,413.62,294.31,459.15Z" transform="translate(0 -0.12)"/><polygon class="cls-12" points="267.2 455.61 230.79 464.17 231.93 476.91 268.64 470.87 267.2 455.61"/><path class="cls-12" d="M292.76,404.9c4.17,15.1,2.59,81.78,2.67,92.37.11,11.42-.33,16.41-10.33,19.08-14.36,3.83-74.31.82-74.31.82s73.87,4.65,79.25-6C298.32,494.7,292.76,404.9,292.76,404.9Z" transform="translate(0 -0.12)"/><path class="cls-12" d="M265.53,306.52c.07-.54-13.58,7.71-13.58,7.71l-3.74,11.67,10.2.12-8,15.39,43.74,58.49s-29.48-69.42-31.34-77.82C260.49,311.79,265.53,306.52,265.53,306.52Z" transform="translate(0 -0.12)"/><path class="cls-12" d="M323.68,445.87c-1.31-17.81,2.94-53.17,4.3-64.37,2.14-17.62,5.63-42.79.62-46-.35-.24-6.52-2.3-20.65-13.79l1.24,16.08c-2.1,32-16.89,61-16.89,61s2.41,91.69,3.13,95.34c1.77,9,1.45,20.53,9.54,21.31,5.12.48,25-.7,25-.7C326.26,474.26,325.45,469.69,323.68,445.87Z" transform="translate(0 -0.12)"/><path class="cls-7" d="M301.84,316.67c1.26.5,14.53,9.25,14.53,9.25l2.93,8.66-6.54.29,9.35,6.38-29.36,56.69s15-49.84,15.69-69.08C308.69,321.45,301.84,316.67,301.84,316.67Z" transform="translate(0 -0.12)"/><polygon class="cls-7" points="314.77 459.21 327.73 464.1 329.17 479.35 315.54 474.28 314.77 459.21"/><path class="cls-5" d="M286.54,431.22c2.68,0,8.25-.08,10.87-.61s5.94.79,11.71-1.38c1.6-.62,3.7,0,2,1.15s-5,2.24-7.54,3.21c-3.13,1.15,6.51,7.28,8.76,8.29,2,.86,12,7.17,11.14,8.48-1.54,2.37-11.8-5.54-12.2-4.41-.33.94,13.14,6.66,11.87,7.93-2.67,2.68-13-4.88-15.24-4,0,0,2.67,1.64,5.54,3.36,2.62,1.56,6.31,2.34,6.36,3.36.18,3.42-15.9-5.71-16.45-3.21-.44,2,11.08,3.47,9.33,5.14-.85.83-13.47-3.12-13.47-3.12S283,449,277.79,445.45c-3.12-2.13-14.48-4.5-14.48-4.5l10.34-13.06S281.93,431.31,286.54,431.22Z" transform="translate(0 -0.12)"/><path class="cls-10" d="M277.75,428.34l9.5,2.37s-4.93,24.69-4.93,28.1l-13.64-3Z" transform="translate(0 -0.12)"/><path class="cls-7" d="M237.59,343.62c-3.89-7.12-10.86-16.28-23.27-8.71-2.76,1.69-2.78,9.2-4.68,12.81-6.81,12.8-11.13,61.6-8.39,86.4.72,6.35,6.26,8.27,8.49,9.88,4.93,3.62,65.46,20.38,66.17,17.52.12-.4,3.7-28.49,7.26-32.6-17.36-4.29-53.94-12.37-53.69-17.07C230,401.58,237.59,343.62,237.59,343.62Z" transform="translate(0 -0.12)"/><path class="cls-12" d="M229.83,335.86c5.76,3.64,9.86,13.43,10.23,19.07,2.12,30.76-5.65,47.72-4.58,50.2s1.88,4.12,1.88,4.12l45.81,19.67a12.22,12.22,0,0,0-2.9,6.61c-7.75-4.26-40.31-19.22-46.67-19.92s-14,1.89-14,1.89,8.59-5.65,10.7-5.65-8.94.35-10.34.69,6.94-1.3,8.69-3.75,10.48-49.22,9.65-54.55c-2.48-15.92-8-17.53-12.69-20.15C221.36,331.72,229.83,335.86,229.83,335.86Z" transform="translate(0 -0.12)"/><path class="cls-15" d="M356.82,796.93V592.54H596V796.93ZM594,795v0Zm-233.26-2H592V596.48H360.75V793Z" transform="translate(0 -0.12)"/><path class="cls-16" d="M375.51,754.5V587.42H579.88V754.5Zm202.78-1.6v0Zm-199.6-1.6h198V590.62h-198V751.3Z" transform="translate(0 -0.12)"/><polygon class="cls-6" points="595.78 591.67 595.78 596.47 357.29 596.1 357.29 591.71 376.07 580.06 578.54 580.06 595.78 591.67"/><polygon class="cls-16" points="357.32 794.2 375.64 752.15 378.57 753.42 360.25 795.48 357.32 794.2 357.32 794.2"/><polygon class="cls-16" points="576.79 753.35 579.78 752.23 595.5 794.27 592.51 795.4 576.79 753.35 576.79 753.35"/><path class="cls-17" d="M634.62,746c-.07-.08-.17-.13-.24-.21C634.44,746.33,634.52,746.34,634.62,746ZM738.53,375.73c-5.61-17.59-8.82-24.55-17.95-25.49-11.18-3.14-11.74-3.4-26.17-9.32-2.68-1.55-5.58-3.21-7.58-4.29l.49-1-5-4.53-.58.6c-.83-5-1.6-9.74-2.15-13a10.58,10.58,0,0,0,.44-1.44c.49-2.62-.3-7.76-.88-10.91,0-.6,0-1.19,0-1.79,2.08-1.8,4.1-4,3.23-7.92-1-4.35-1.78-8-4.13-8.72l1.81.49s-.71-11.52-6.9-18.32c-3.08-3.37-5.56-6.48-8.74-7.08-2.39-2.69-9.7-4.5-10-3.9-.2.39,2.41-.45,3.12,2.73-2.51-2.57-2-2.68-12.68-3.62,0,0,6.89,3.37,7.78,5.72h-.08c-1.59-3.75-13.19-6.56-12.11-5.6,1.93,1.78,2.54,2.94,2.52,3.83l-2.63,1.75c.24-1.88.54-3.69-1.27-5.41,1.81,3.09-1.78,5-3.67,8.71l-1.4.94a5.75,5.75,0,0,0-3.85,2.14L628.35,273c0-.08,0-.14,0-.24-2.16,1.4-1.85,7.76-.44,12.16.19,1.37.46,2.88.85,4.5,1.55,6.71,3.47,8.09,3.47,8.09h.47c-1.56,1.38.61,4.28,2.08,8.59s5.49,8.44,6.71,8.54c.13,1.32,5.6,11.61,7.4,13.36a13.28,13.28,0,0,0,1.47,1.1c0,1.85,0,3.58-.06,5.14l0-.07-.17.19-.24-.18-1.25,1.64c-1.47.54-12.08,7.38-12.08,7.38l-.35,1.35c-11.43,5.43-12.16,5.3-21.48,7.55-3.39.83-5.36,5-6.09,8.78-7.1,17-20.95,63.79-19.61,81.07.12,1.5,17.83,21.42,41.25,25-.06.62-.12,1.28-.17,1.91l-1.76.67.74,12.27a209.48,209.48,0,0,0,0,33.7c.06.55,3.85,1.59,9.33,2.82-.68,45.26,1.05,103.84,1.37,113,.93,26.19-3.83,109.67-5.14,114.71.36.37.74.68,1.13,1a93.89,93.89,0,0,1-11.1,10.95c-10.2,8.7-7,13.6,2.1,15,7.67,1.23,23.23-2.73,25.28-6.32s2.52-5.63,7.13-4.66c4.43.93,8-2.17,8-2.17,1-2,1.51-5,1.63-8.6,4.59-.4,7.64-.3,7.45,1.92,6.3-72.73,5.88-120.48,5.21-112.55l5.87-64.49c2.74,20.35,5.58,42.83,5.42,50.3-.76,39.08,5.19,113.06,10.6,117.24a10.58,10.58,0,0,0,2,1.1,33.62,33.62,0,0,0,0,5c1.2,9.94,8.1,9.93,8.1,9.93s1-.26,1.34.37c5,10,16.21,16.49,30.45,14.07,11.65-2,2.94-14.34-4.77-23-.69-.77-1.31-1.52-1.93-2.27a4.78,4.78,0,0,0,2.29-1.46c3.44-.5,6.41-1.27,5.72-2.47-1.55-2.65-12.26-110.45-11.75-122.74.48-12-.94-110.2-4.88-124.15,1.21-.73,1.82-3.78,2.25-6.38a48.7,48.7,0,0,1,4.63,8.05S761.71,450.6,759.35,441C758.29,436.54,741.3,384.41,738.53,375.73Zm-61-88.05.47.12a3.66,3.66,0,0,0-.67,0ZM631.28,433a77.7,77.7,0,0,1-9.74-1.52c.36-2.12,4.56-15.77,6.41-27.65C629.26,409,630.49,422.81,631.28,433Zm97.64,12.13c-3-5.18-5.38-9.19-5.68-11.33-1.39-10-3.73-31.51-2.76-35.87,3.21,7.07,8.54,33.38,10.31,39.69C731.06,438.52,730.3,441.17,728.92,445.08Z" transform="translate(0 -0.12)"/><path d="M671,728.29c1.38,7.88,2.21,26.67-2,33.09,0,0-3.89,3-8.26,2.1-4.54-1-5.2,1-7.64,4.53s-18.51,7.31-26.14,6.12c-9-1.38-11.85-6.15-.67-14.62,13.21-10,20.84-19,23.55-28.18S671,728.29,671,728.29Z" transform="translate(0 -0.12)"/><path class="cls-11" d="M708.32,751.73c-.09-5.36,2.75-8.76.37-36.26-.29-3.33,24.59-4.46,24.59-4.46-1.1,13.51-3.27,25.89,9.79,42.14,6.71,8.35,14,20.23,2.26,22.14-14.35,2.33-24.79-3.91-28.69-13.58-.26-.61-1.3-.35-1.3-.35S708.46,761.36,708.32,751.73Z" transform="translate(0 -0.12)"/><path class="cls-18" d="M750.77,464.44c6.22,16.28,9.29,20,9.29,47.17s-9.83,94.1-11.7,114.45c-.53,6-3.68,113.5-3.68,121.66s-32.81,2.11-37.77-2-3.22-76.61,1.69-115.35c1.72-13.48-1.25-76.39-1.25-87.25s3.71-76,3.71-76Z" transform="translate(0 -0.12)"/><path class="cls-19" d="M743.64,465.64c1.86,9-2.73,119.4-5.21,154l-3.69,130.63s16.26-.54,15-3.1-.16-108.12,1.7-120.29S763.3,511.23,760.2,501s-7.45-39.73-7.45-39.73Z" transform="translate(0 -0.12)"/><path class="cls-18" d="M674.34,465C665,480.41,655.13,620,654.19,634.5c-1.81,28.1-16.85,121.11-16.85,113.15,11.19,13.43,42.75.61,41.45,7.27,13.82-71.13,18.38-118.43,16.87-110.56l24.59-123.93,6.9-60.26Z" transform="translate(0 -0.12)"/><path class="cls-5" d="M698,306.19l-1.66,22.45-9.68,9s14.81,40.41,24.69,44,19.57-22.15,19.35-29-2.34-44.48-2.34-44.48Z" transform="translate(0 -0.12)"/><path class="cls-20" d="M694.65,300.45c-2.28-5.83,26,4.46,32.63,12.05l-28.12,44.21c-3.67-3.81-3.12-19.87-4.79-21.89C696.84,330.88,698.7,310.69,694.65,300.45Z" transform="translate(0 -0.12)"/><path class="cls-12" d="M729.86,330.2c-1.69,2.16-13,13.19-18.23,12.88,0-.89,0-1.36,0-1.36-5.16-.55-13.74-9.91-15.44-13.62C694.71,329.64,682,341,682,341l-1.1,130.52,32.37-3.2v.08l36.39-3.1,3-119.8Z" transform="translate(0 -0.12)"/><polygon points="708.59 349.77 712.38 349.77 712.13 339.76 704.62 339.76 704.55 344.04 708.59 349.77"/><polygon points="708.1 348.28 704.97 449.35 715.69 457.29 712.55 348.31 708.1 348.28"/><polygon class="cls-11" points="715.24 349.77 712.1 349.77 711.84 339.76 719.51 339.76 719.47 344.04 715.24 349.77"/><polygon class="cls-11" points="715.81 348.28 725.7 448.19 715.69 457.29 712.12 348.28 715.81 348.28"/><path class="cls-18" d="M706.2,529.13S654.94,519,654.94,516.89c0-29.36,10.25-64.14,10.63-77.58.29-10.39.93-35.63-.56-40.11s-15.44-19.8-15.44-19.8-2.64-13.17-.59-23.11c.9-4.37,3.58-9.92,7.77-10.75,12-2.33,10.71-1.63,31.83-10.56,0,0-3.72,24.73-.12,31.95S700,416,702.46,423.5C705.1,431.18,706.2,529.13,706.2,529.13Z" transform="translate(0 -0.12)"/><path class="cls-19" d="M752.11,479.26l-11.77-57.89s-2.05-23.71-1-69.37l-2-16.65c18.53,8.95,18,8.91,30.26,13.07,4,1.35,2,12.69,2,12.69s-6.07,32.81-7.55,37.23-1.55,27-1.26,37.35c.19,6.14,14.91,27.41,14.91,48.54Z" transform="translate(0 -0.12)"/><path class="cls-19" d="M694.4,329.76c.08-.54-13.69,7.3-13.69,7.3l-4.05,11.52,9.93,2.8-13.65,7.77,26.25,60.19s-6.28-65.78-7.93-74.18C689.24,334.84,694.4,329.76,694.4,329.76Z" transform="translate(0 -0.12)"/><path class="cls-18" d="M731.91,331.17c1.28.41,16,10.48,16,10.48l3.33,8.48-9.93,1.25,10.25,5.29-12.82,64.15s-3.57-68.26-2.59-76.75S731.91,331.17,731.91,331.17Z" transform="translate(0 -0.12)"/><polygon class="cls-19" points="682.94 461.26 658.84 469.33 658.34 482.06 682.44 476.51 682.94 461.26"/><path class="cls-5" d="M734.11,289.64c-.6-5.52-1.1-10-4.73-9.79-2.56-13.71-7.23-24.82-26.88-21.4a41.72,41.72,0,0,0-7.75,2s0-.07,0-.11c-13.28,4.92-13.7,12.85-11.81,24.74-.39,0,.27,2.21-.06,2.31-3.82.88-1.27,4.4,0,9.92,1.09,4.8,4.9,9.32,6.17,9.5a44.19,44.19,0,0,0,6.23,9.57c.19.21.36.43.53.61.45.51.89,1,1.35,1.44s1,.95,1.5,1.41c.32.27.61.57.93.84a29.4,29.4,0,0,0,2.82,2l.17.08a16.48,16.48,0,0,0,11.12,2.72c9.54-1.46,14.85-14.66,16.14-27.57C732.22,296.13,734.58,293.86,734.11,289.64Z" transform="translate(0 -0.12)"/><path class="cls-21" d="M695.43,258.71l.22-1.33s4.5-4.24,3.54-4c-.56.1-2.79-1.26-3.39,1.74l1.39-5.14-11,6.45a6.44,6.44,0,0,0-4.32,2.11L679.12,262s.77,1.95.53-1c-2.45,1.39-2.8,8.29-1.78,13.12.06,1.49.18,3.12.42,4.9.93,7.31,2.81,8.89,2.81,8.89l3,.22s-3.55-9.6,1.53-15.82,17.43-5.51,17.43-5.51Z" transform="translate(0 -0.12)"/><polygon class="cls-7" points="715.1 339.96 723.75 350.04 734.79 331.32 730.14 326.27 715.1 339.96"/><polygon class="cls-7" points="709.71 339.72 700.08 350.29 691.26 339.52 690.57 333.71 695.71 327.98 709.71 339.72"/><path class="cls-18" d="M651.51,350.79c-8,13.07-30.7,68.92-31,88.62,0,1.65,18.2,25.16,44.2,28,1.88-4.69,9.07-31.23,10-35a91.88,91.88,0,0,1-18.92-2.81c.92-3.42,14.43-35.6,11.18-45.41S651.51,350.79,651.51,350.79Z" transform="translate(0 -0.12)"/><path class="cls-5" d="M762.07,471.16a46.29,46.29,0,0,1-9.79,12.14,17.61,17.61,0,0,0-4.18,5.14s7,11.18,11.18,13.52c2.29,1.28,3.71-5.13,4.64-8.4s6.05-11.2,6.05-11.2Z" transform="translate(0 -0.12)"/><path class="cls-18" d="M767.64,348.42c9.31,1.4,11.81,8.86,15.54,27.53s12.41,58.49,13.65,68.45-29.64,59.42-29.64,59.42A51.65,51.65,0,0,0,750,480c9.31-21.16,18.62-37.34,18.14-40.13-1.1-6.59-3.56-34.07-6-41.56S765.94,348.17,767.64,348.42Z" transform="translate(0 -0.12)"/><path class="cls-22" d="M729.35,297s1.15,10.43-.06,14.58-10.56,17-11.54,18.23-5.39,2.7-5.39,2.7-4.55-11.39-3.24-11.94c4.58-1.9,8.14-4.11,9.61-5.56s5.43-6,6.16-8.4a52.32,52.32,0,0,0,1.89-10.34Z" transform="translate(0 -0.12)"/><path class="cls-21" d="M689,306.82c0,1.42,4.63,12.68,6.33,14.64s16,11.51,17,11-2-12.12-2-12.12-9.72-1.22-14.29-4.53c-3-2.13-4.16-7.6-5.63-8.57S689,306.82,689,306.82Z" transform="translate(0 -0.12)"/><path class="cls-22" d="M727.42,260.64c-2.87-3.8-5.12-7.29-8.41-8.13-2.22-3-9.74-5.4-10.16-4.78-.25.41,2.6-.35,3,3.14-2.37-2.93-1.82-3-13-4.65,0,0,6.91,4.05,7.59,6.65h-.08c-1.26-4.15-13.24-7.85-12.21-6.74,5.25,5.75.07,5.74-1.11,8.28.19-2.86,2-5.51-.36-8.19,1.8,3.95-3.71,5.8-5.76,11a8.9,8.9,0,0,0,3,12.74c2,1.22,13.43-1.85,19.32-2.79A19.45,19.45,0,0,1,719.47,273c2.08,2.51,3.64,9.2,3.64,9.2h0c.8,3.92,1.58,8.08,1.58,8.08l2.94,1.85s-.17-8.2.47-11.66l1.85-.62,2.65.89S733.16,268.29,727.42,260.64ZM693,255.32v-.07C693.07,255.3,693.11,255.31,693,255.32Z" transform="translate(0 -0.12)"/><path class="cls-11" d="M668.56,434.41c-2.25.57-6.09,34.74-2.81,32.63s5.61-21.12,6.08-26.52S670.43,434,668.56,434.41Z" transform="translate(0 -0.12)"/><path d="M786,333.48h0Z" transform="translate(0 -0.12)"/><path class="cls-6" d="M801.88,384.5c.33,2.43-13,32.53-13,32.53L795,415.9l8.26-29.77Z" transform="translate(0 -0.12)"/><path class="cls-19" d="M705.51,469c-1.1,5.87,0,48.86-5.5,52.54S664.45,520,664.45,520s26.76,7,34.09,5.14,7-7,7-16.16Z" transform="translate(0 -0.12)"/><path class="cls-23" d="M856.79,749.69l-.35.41a29.58,29.58,0,0,1-1.67-9.2c-.6-14.29,9.29-63.29-3-85.95a39.56,39.56,0,0,1-3.42-9c1.06,0,1.76-.23,6.84-1.19-2.77-11.75-2.56-88.28-3.36-107.65-.53-12.9-7.06-23.71-12.44-32.48,2.69-7.64,4.1-13.77,3.79-16.68a9.81,9.81,0,0,0,1-6.75c-1.15-4.56-.06-16.43-3.59-37.49a16.29,16.29,0,0,0,2.7-1.81,42.75,42.75,0,0,0,.15-5.09c3.34.51,6.64-.4,9.24-1.19-4.41-2.21-5.42-37.45-7.34-61.64-2.36-29.63-17.58-40.54-28.18-45.7a43.83,43.83,0,0,0-3-17.75c-7.64-20-31.07-19.54-50-9.66a14.48,14.48,0,0,0-7.22,8c-7.26,5.74-6.52,11-3.4,13.61a57.48,57.48,0,0,0-.25,15.22c.07.63,1.73,3.55,2,5.62A14.21,14.21,0,0,1,753,353.65c-1.05,2.13,2.82,2.42,4.56,2.77,1.88,7.46,3.91,12.1,8.93,14.68,2.15,1.1,8.46-.31,14.06-2.08l.11.08a22.36,22.36,0,0,1,4.25,11.78c-4.18,3.78-9,9.4-9,9.4l3.06,8.43a22.86,22.86,0,0,0-3.06,4.47c-3.27,6.17-16,33.55-16,33.55s.81.77,2.2,2a62.35,62.35,0,0,1-4.32,8.93c-1.26,1.86-30.21-11.54-30.53-12.22a62,62,0,0,0-4.67-9c-1.36-2.12-7.19-4.26-7.69-4.69-.72-.61-2.49-1-1.26.24l5.89,6.13a43.16,43.16,0,0,0-5.08-3.63c-2.33-1.34-5-2.76-6-3.24a11.31,11.31,0,0,0-5.71-.7c-1.69.29-2.1,1.05.1,1.43a18.91,18.91,0,0,1,4,1.27c.86.23,5.18,3.54,5.18,3.54a52,52,0,0,0-6.25-3c-2.14-.72-5.13-2.16-5.13-2.16s-4.67.9-.73,2.24c2.71.92,5.77,2.21,5.77,2.21l4.83,3.86s-11.67-6.36-12.51-4.51c-.41.89,1.09,1.95,6.17,4,3.86,1.56,5.07,3.85,5.07,3.85s-7.34-3.58-9.18-4.26c-1.41-.51-2.17,1.57,0,3.5.69.57,3.76.95,5,2.21a78.61,78.61,0,0,0,9.24,7.95,42.55,42.55,0,0,0,5.59,3.23s35.87,23,42.79,22.66c2.36-.1,6.34-3.05,10.66-7.47.46,6.6.1,15,.2,17.48,1.38,28.8,4.22,27.35,4.22,27.35l2.19-.28c-4.74,42.68,18,142.42,18,142.42s2.9,0,7.4,0c2.83,6.18,5.58,11.2,7,13,3.78,4.82,16,77.33,16.27,82.06.3,6.32-6.82,19.37-16,27.89-1-.2-1.61-.39-1.61-.39A43.71,43.71,0,0,1,802.3,775c-4.66,1.61-3.14,6.7-1.89,8.31.56.69,4.81,1.38,9.87,1.51a7.21,7.21,0,0,0,1.23,3.36c1.28,1.58,22.43,3.2,27.54-2.16a35.92,35.92,0,0,0,4.46-6.09c0,1.09,0,1.77,0,1.77s.08.62,3.26-.08c-.5-1.59-.35-4.37.11-7.5,1.76-3,3.3-5.43,4.6-5.9,3-1.09,3.2,18.35,3.2,18.35s.11.64,3.27,0c-1.35-4.29,2-17.24,3.63-22.68S859.92,751.83,856.79,749.69Zm-42.1-409.22c3.71,5.58,9.28,18,6.06,39.8,0,.22,0,.43,0,.64-1.09-1-2.24-2.09-3.47-3.31-.15-.24-.3-.48-.46-.72l.57-.71-.21-1.59-1,1.23h0l1-1.22-4.87-5.94-.14.11a104.57,104.57,0,0,1-4.37-9.56c-.54-1.66-1-3.29-1.41-4.87A43.37,43.37,0,0,0,814.69,340.47Z" transform="translate(0 -0.12)"/><path class="cls-14" d="M836.77,323.09c9.34,5,24.56,15.43,25.66,45.19.85,22.87.44,56.46,4.4,58.79-5.65,1.49-14.82,3.5-19.06-12.87s-10.37-28.12-7.89-41.33c5.51-29.2-6.32-41.05-6.32-41.05Z" transform="translate(0 -0.12)"/><path class="cls-13" d="M836.58,330.08c5.87.36,14.3,6.24,15.95,31.59.94,14.34-1.83,52.53,8.81,61.72-4.4-1.1-10.26-8.82-11-19.1s0,11.39,3.3,14c-6.6-.74-12.47-21.68-11.37-40.05s3.49-38-6.78-44.45C832.41,331.82,836.58,330.08,836.58,330.08Z" transform="translate(0 -0.12)"/><path class="cls-5" d="M792.37,409.24c-2.81,0-10.48,20.31-14,25.06-1.28,1.75-27.78-12.65-28-13.33a61,61,0,0,0-3.87-9c-1.15-2.12-6.52-4.48-7-4.93-.64-.63-2.28-1.11-1.2.17l5.19,6.24a39.75,39.75,0,0,0-4.58-3.77c-2.12-1.42-4.59-2.93-5.45-3.44a10.56,10.56,0,0,0-5.36-1c-1.63.2-2.06.92,0,1.4a17,17,0,0,1,3.67,1.43c.79.26,4.67,3.69,4.67,3.69a46.69,46.69,0,0,0-5.72-3.22c-2-.81-4.72-2.35-4.72-2.35s-4.48.64-.84,2.13c2.51,1,5.32,2.44,5.32,2.44l4.33,4s-10.64-6.75-11.56-5c-.45.84.91,1.95,5.59,4.19,3.56,1.7,4.57,4,4.57,4s-6.74-3.85-8.44-4.59c-1.3-.58-2.16,1.41-.18,3.4.62.59,3.5,1.12,4.64,2.41a74.34,74.34,0,0,0,8.25,8.19,39.65,39.65,0,0,0,5.09,3.42S775.32,455,781.87,455s27.61-23.24,30.09-38.21C812.75,412,795.16,409.24,792.37,409.24Z" transform="translate(0 -0.12)"/><path class="cls-6" d="M814.29,388.91c7.17,6.85-5.75,41-13.21,52.65a146.19,146.19,0,0,1-20.15-17.79s13.29-25.76,16.63-31.5C802.69,383.46,808.22,383.07,814.29,388.91Z" transform="translate(0 -0.12)"/><path class="cls-8" d="M806.32,606c-1.71,12,9.69,41.14,13.12,46.26s11.95,82.84,11.95,88c0,9.14-13.44,31.24-26.92,37.61,7.65,4.77,20.09,2.87,33.47-13.34,4.91-5.91,13.62.54,15.13-4,3.41-10.3-2.3-13.71-2.3-29.14s10.85-62.54,0-86.53c-6.62-14.67-3.4-35.4-5.12-40.56S806.32,606,806.32,606Z" transform="translate(0 -0.12)"/><path class="cls-7" d="M847.83,742.06c2.93,2.37,5.89,9.48,4.15,15.38s-5.63,20.11-4.49,24.84c-3.16.77-3.21.08-3.21.08s.58-21.36-2.36-20.19-7.69,13.63-13,19.57-26.19,4.14-27.39,2.36-2.4-7.43,2.32-9.2a43.68,43.68,0,0,0,8.85-4.73s10.9,3.89,16.22-3.83S847.83,742.06,847.83,742.06Z" transform="translate(0 -0.12)"/><path class="cls-5" d="M813.13,607.67c-1.72,12,9.7,41.12,13.11,46.24s12,82.85,12,88c0,9.12-9,32.84-22.44,39.19,7.65,4.78,11,4.58,29.6-12,5.74-5.08,13-2.43,14.48-7,3.42-10.26-2.89-8.78-2.89-24.23s11.46-67.43.59-91.42c-6.61-14.68-3.4-35.43-5.13-40.57S813.13,607.67,813.13,607.67Z" transform="translate(0 -0.12)"/><path class="cls-12" d="M858.59,747.47c2.94,2.35,5.9,9.45,4.14,15.36s-5.62,20.13-4.47,24.86c-3.14.76-3.22,0-3.22,0s.59-21.34-2.36-20.16-7.71,13.64-13,19.55-26.18,4.13-27.37,2.37-2.42-7.41,2.3-9.2a43,43,0,0,0,8.86-4.74s10.91,3.88,16.21-3.83S858.59,747.47,858.59,747.47Z" transform="translate(0 -0.12)"/><path class="cls-12" d="M845.8,481.67c2.88,10.06,15.82,25.16,15.82,44.59s-3.19,97.47-1,109.72c-19.39,3.6-54.45,2.26-54.45,2.26s-19-117.46-8.3-153.57C828.59,482.39,845.8,481.67,845.8,481.67Z" transform="translate(0 -0.12)"/><path class="cls-7" d="M862.26,526.26c0-19.43-12.93-34.53-15.81-44.59,0,0,4.51,0-8.84.73,6.33,20.43,10.08,16.44,13.84,50.24,1.65,15-6.27,95.4-4.34,104.34,11-.13,4.67.75,14.13-1C859.08,623.73,862.26,545.67,862.26,526.26Z" transform="translate(0 -0.12)"/><path class="cls-6" d="M809.32,369.78c-4.21,2.83-11.12,10.2-11.12,10.2l4.38,14.93,10.12-19.35Z" transform="translate(0 -0.12)"/><path class="cls-5" d="M840.77,377.65c-3.17-7.22-15.75-22.8-17.87-58-.89-14.48-30.59,30.06-30.59,30.06,8.22,4.1,16.65,14,14.35,25.6-6.94,21.42-14.06,39.76-12.84,39.08C789.81,427.05,843.41,379.63,840.77,377.65Z" transform="translate(0 -0.12)"/><path class="cls-24" d="M802.93,359.57l29.56,24.89,7.7-6.41s-3.61-8.11-7.18-14.65c-5.31-9.78-6.82-26.34-6.82-26.34S814.81,353.17,802.93,359.57Z" transform="translate(0 -0.12)"/><path class="cls-10" d="M822.27,376.12c-3.75,2.68-12.36,5.57-12.36,5.57C806.6,390.22,798.5,400,786.56,419c-3.36,5.33-.6,18.13,4,20.81,3.16,1.82,1.06,21.46,1,25.47-.21,28.55,2.55,27.22,2.55,27.22s45.42-4.11,50.39-5.24c22.14-5.09.66-35.52,2.28-73.45.5-11.67,5.36-21,.05-32.49-2.79-3.82-6.63-7-11.87-13.23C827.8,370.93,827.84,372.13,822.27,376.12Z" transform="translate(0 -0.12)"/><path class="cls-5" d="M779,344.12a13.55,13.55,0,0,0,2.57-9.55c-.11-1.95-1.48-4.78-1.51-5.37-1.09-22.18,8.92-35.6,25-35.71s20.89,6.49,21.09,26.76-4.56,32-13.91,36.95c-3.11,1.67-18.35,6.11-21.7,4.1-4.5-2.71-6.13-7.19-7.47-14.32C781.47,346.55,777.92,346.06,779,344.12Z" transform="translate(0 -0.12)"/><path class="cls-14" d="M836.77,307.66c-6-18.76-27.18-19.8-44.85-11.93a13.1,13.1,0,0,0-7,6.92c-8.71,6.08-5.9,12.3-1.43,13.88s17.12,5.44,15.67,12.81c1.68-.31,3.47-2.24,3.86-5.51,2.38,3,1.82,8,2.56,9.55s2.94-8.37,6.24-5.69c4.4,3.58.82,11.57.82,11.57l5.41,9.55,8.07.55S845.24,334,836.77,307.66Z" transform="translate(0 -0.12)"/><path class="cls-5" d="M839.28,473.37c-5.34,12.48-9.72,36.5-13.45,49.87-1.27,1.66-4.84,2.87-8.82,6-2,1.57-6,8.24-6.48,8.72-.65.75-1.19,3-.11,2.19a45.18,45.18,0,0,0,4.11-4.54,27.52,27.52,0,0,0-2.75,6,18.33,18.33,0,0,0-.64,5c-.08,1.71.73,3,1.41.94a26.88,26.88,0,0,1,1.77-4.88c1.25-2.37,2.32-5.06,2.32-5.06a44.49,44.49,0,0,1-1.9,6.31,28.06,28.06,0,0,0-1.51,5.82c-.06,1.85.89,1.85,1.61.51,1.17-2.17,2.29-4.94,2.29-4.94l3-4.64s-5.69,10.77-3.81,11.62c.9.4.88-1.79,3.13-5.24a45.93,45.93,0,0,1,3.48-4.79s-3.82,6.9-4.48,8.73c-.51,1.39.65,1.34,2.57-.85s2.78-5.12,4.55-7c4.35-4.62,8.46-14.45,8.46-14.45,13.23-20.26,22.46-44.53,22.06-51.35a10,10,0,0,0,1.15-6.57c-1.22-6.22,2.11-25.7-6.65-64.09-1.91-8.28-19.31-6.11-21.68-.46S839.28,473.37,839.28,473.37Z" transform="translate(0 -0.12)"/><path class="cls-6" d="M844.42,379.14c9,1.49,15.62,39.15,13.58,53.52-8.63,7.14-30.91,4.69-30.91,4.69s-3-28.78-2.36-35.68C825.79,391.08,830.36,376.79,844.42,379.14Z" transform="translate(0 -0.12)"/><polygon class="cls-10" points="814.48 391.94 807.47 379.39 832.64 361.36 836.82 367.21 814.48 391.94"/><polygon class="cls-6" points="807.47 379.39 815.41 391.22 836.82 367.21 836.95 368.71 814.77 394.43 807.47 379.39"/><polygon class="cls-6" points="649.51 384.18 688.99 393.57 695.66 460.81 664.02 453.06 649.51 384.18"/><polygon class="cls-10" points="686.18 392.86 731.98 383.24 740.41 453.67 695.66 460.81 686.18 392.86"/><path class="cls-5" d="M677.28,432.77c1.75-3,3.39-2.29,5.85-3.35s4.93-5.15,5.74-5.12c1.29.07,1.29,3.07-.71,5.65-1.74,2.27-1.34,1.92-1.34,1.92s4.51.26,6.61.08a22.27,22.27,0,0,0,6.72-1.9c1.22-.71,4.89-2.89,5.69-2.13,1.51,1.42-2.45,3.79-4.55,5.2s-5.86,1.75-5.86,1.75,6-.23,7-.93,7.12-3.51,7.6-2.23c.7,1.88-5.31,4.34-6.9,5.39s-6.39,2.35-6.91,2.7,5.53-1.49,7.5-2.35c3.27-1.4,4.91-3.62,5.9-2.22.62.87-3.69,4.68-6.14,5.75a45.83,45.83,0,0,0-5.27,2.82s7.6-3.47,9-2.93-2.74,2.94-5.26,4c-3.17,1.3-6,2.52-7.45,2.88s-13.35-.89-17.93-2.12-9.66-1.07-10.7-4.05-1-10.05,2.51-9.69C674.93,432.6,677.28,432.77,677.28,432.77Z" transform="translate(0 -0.12)"/><path class="cls-10" d="M674.75,432.42l-7-1.42s-4.15,18.37-3.23,23.77c5.11,1.23,6.7,1.58,6.7,1.58S674.29,433.12,674.75,432.42Z" transform="translate(0 -0.12)"/><path class="cls-18" d="M645.23,424.83c4.93.72,27.41,6.53,27.41,6.53s-3.77,5.95-7.12,23.38c-1.89,10-29.95-20.76-29.95-20.76Z" transform="translate(0 -0.12)"/><path class="cls-25" d="M652.42,135.58A52.42,52.42,0,1,0,600,188.11h0A52.47,52.47,0,0,0,652.42,135.58Zm-15.8,26.51a64.58,64.58,0,0,0-11.78-4.44,96.79,96.79,0,0,0,2.38-19.85h20.66a47.74,47.74,0,0,1-8.83,25.67C638.25,163,637.48,162.52,636.62,162.09ZM639,107.56a47.77,47.77,0,0,1,8.92,25.8H627.25a93.94,93.94,0,0,0-2.48-20,65.15,65.15,0,0,0,11.79-4.43C637.41,108.49,638.17,108,639,107.56Zm-16.15,25.8h-20.6v-16.9a96.42,96.42,0,0,0,18.29-2.07A88.67,88.67,0,0,1,622.81,133.36ZM602.21,112V87.72a14.1,14.1,0,0,1,6.14,3.19c4.42,3.68,8.28,10.51,10.92,19.17A89.25,89.25,0,0,1,602.21,112ZM591.66,90.91a14,14,0,0,1,6.14-3.19V112a92.05,92.05,0,0,1-17.1-1.94,58.58,58.58,0,0,1,3.53-9.09A31.75,31.75,0,0,1,591.66,90.91Zm6.14,25.54v16.91H577.17a91,91,0,0,1,2.37-19A96.75,96.75,0,0,0,597.8,116.45Zm-25,16.91H552.12a47.74,47.74,0,0,1,9-25.84,59.75,59.75,0,0,0,14.13,5.75A97.52,97.52,0,0,0,572.77,133.36Zm0,4.44a95.49,95.49,0,0,0,2.48,19.95,59.76,59.76,0,0,0-14.2,5.8,47.74,47.74,0,0,1-8.9-25.75Zm4.46,0h20.6v16.76a96.45,96.45,0,0,0-18.31,2.12A89.86,89.86,0,0,1,577.2,137.8ZM597.8,159v24.46a14,14,0,0,1-6.14-3.2c-4.44-3.7-8.31-10.59-11-19.31A91.29,91.29,0,0,1,597.8,159Zm10.55,21.26a14,14,0,0,1-6.14,3.2V159a89.93,89.93,0,0,1,17.14,1.93,57,57,0,0,1-3.58,9.25A31.57,31.57,0,0,1,608.35,180.24Zm-6.14-25.69V137.8h20.63a90.42,90.42,0,0,1-2.33,18.8A94.87,94.87,0,0,0,602.21,154.55Zm34-50.5a58.61,58.61,0,0,1-12.57,5,63.8,63.8,0,0,0-3.88-10,38.59,38.59,0,0,0-6.64-9.67,47.9,47.9,0,0,1,20.84,12.23C634.72,102.36,635.45,103.2,636.18,104.05ZM587.09,89.3c-4.54,4.65-8.18,11.46-10.67,19.74A60.22,60.22,0,0,1,565.54,105c-.59-.3-1.13-.62-1.69-.93.73-.84,1.45-1.67,2.23-2.45A47.76,47.76,0,0,1,587.09,89.3Zm-23.3,77.76c.6-.34,1.19-.69,1.84-1A59.87,59.87,0,0,1,576.36,162a64.09,64.09,0,0,0,3.92,10.14,38.31,38.31,0,0,0,6.65,9.68,47.61,47.61,0,0,1-20.85-12.24C565.28,168.78,564.53,167.92,563.79,167.06Zm49.13,14.8c4.56-4.67,8.22-11.55,10.71-19.9a58.31,58.31,0,0,1,12.66,5c-.76.89-1.53,1.77-2.36,2.6A47.74,47.74,0,0,1,612.92,181.86Z" transform="translate(0 -0.12)"/><g class="cls-26"><path class="cls-10" d="M838.91,28a12.44,12.44,0,0,1-.46-17.58h0A12.38,12.38,0,0,1,856,10h0a12.43,12.43,0,0,1,.45,17.56h0a12.37,12.37,0,0,1-17.53.46Zm2.9-3.07a8.19,8.19,0,0,0,11.57-.3h0a8.22,8.22,0,0,0-.3-11.59h0a8.18,8.18,0,0,0-11.57.3h0a8.23,8.23,0,0,0,.3,11.59Z" transform="translate(0 -0.12)"/><path class="cls-10" d="M675.05,167.53a12.45,12.45,0,0,1-.46-17.57h0a12.39,12.39,0,0,1,17.54-.45h0a12.45,12.45,0,0,1,.46,17.56h0a12.39,12.39,0,0,1-17.54.46Zm2.91-3.06a8.18,8.18,0,0,0,11.57-.31h0a8.22,8.22,0,0,0-.3-11.58h0a8.17,8.17,0,0,0-11.57.29h0a8.22,8.22,0,0,0,.3,11.6Z" transform="translate(0 -0.12)"/><path class="cls-10" d="M742.25,142.51l-49.11,13.2a.69.69,0,0,1-.83-.47h0a.63.63,0,0,1,.46-.79h0l49.11-13.21a.68.68,0,0,1,.82.46h0a.67.67,0,0,1-.16.63h0a.65.65,0,0,1-.29.18Z" transform="translate(0 -0.12)"/><path class="cls-10" d="M757.86,132.35a1,1,0,0,1-.57-1.26h0l21.49-57.78a.94.94,0,0,1,1.24-.57h0a1,1,0,0,1,.57,1.24h0L759.1,131.77a1,1,0,0,1-.21.33h0a1,1,0,0,1-1,.25Z" transform="translate(0 -0.12)"/><path class="cls-10" d="M778.29,72.31a10.3,10.3,0,1,1,14.55-.38A10.33,10.33,0,0,1,778.29,72.31Z" transform="translate(0 -0.12)"/><path class="cls-10" d="M744,146.4a10.3,10.3,0,1,1,14.55-.38A10.34,10.34,0,0,1,744,146.4Z" transform="translate(0 -0.12)"/><path class="cls-10" d="M838.39,26.18,793.23,57.9a1,1,0,0,1-1.35-.23h0a1,1,0,0,1,.25-1.35h0L837.28,24.6a1,1,0,0,1,1.34.24h0a1,1,0,0,1-.09,1.22h0a.81.81,0,0,1-.14.12Z" transform="translate(0 -0.12)"/><path class="cls-10" d="M925.68,1.78,857,11.23a1,1,0,0,1-1.38,0h0a1,1,0,0,1,0-1.36h0L924.34.39a1,1,0,0,1,1.36,0h0a1,1,0,0,1,0,1.34h0s0,0,0,0Z" transform="translate(0 -0.12)"/></g><g class="cls-26"><path class="cls-10" d="M492.71,219.84a11.61,11.61,0,0,1,12.37,10.8h0A11.61,11.61,0,0,1,494.29,243h0a11.61,11.61,0,0,1-12.36-10.8h0a11.62,11.62,0,0,1,10.78-12.38Zm.27,3.95a7.66,7.66,0,0,0-7.1,8.16h0a7.66,7.66,0,0,0,8.15,7.13h0a7.68,7.68,0,0,0,7.11-8.18h0a7.66,7.66,0,0,0-8.16-7.11Z" transform="translate(0 -0.12)"/><path class="cls-10" d="M500.42,18.59a11.61,11.61,0,0,1,12.37,10.79h0A11.62,11.62,0,0,1,502,41.77h0A11.61,11.61,0,0,1,489.65,31h0a11.62,11.62,0,0,1,10.77-12.39Zm.27,3.94a7.68,7.68,0,0,0-7.1,8.18h0a7.67,7.67,0,0,0,8.15,7.12h0a7.68,7.68,0,0,0,7.11-8.17h0a7.67,7.67,0,0,0-8.16-7.13Z" transform="translate(0 -0.12)"/><path class="cls-10" d="M475.14,80.76l22-42.22a.62.62,0,0,1,.83-.27h0a.59.59,0,0,1,.26.82h0l-22,42.23a.64.64,0,0,1-.83.27h0a.61.61,0,0,1-.34-.51h0a.55.55,0,0,1,.07-.32Z" transform="translate(0 -0.12)"/><path class="cls-10" d="M472.25,98a.92.92,0,0,1,1.22.4h0l26.12,51.36a.9.9,0,0,1-.39,1.22h0a.91.91,0,0,1-1.22-.4h0L471.86,99.18a1.54,1.54,0,0,1-.1-.35h0a.92.92,0,0,1,.49-.87Z" transform="translate(0 -0.12)"/><path class="cls-10" d="M500.59,150a9.64,9.64,0,1,1-8.95,10.28A9.62,9.62,0,0,1,500.59,150Z" transform="translate(0 -0.12)"/><path class="cls-10" d="M471.34,79.54a9.64,9.64,0,1,1-8.94,10.28A9.63,9.63,0,0,1,471.34,79.54Z" transform="translate(0 -0.12)"/><path class="cls-10" d="M494.28,220.64,501,169.43a.89.89,0,0,1,1-.78h0a.91.91,0,0,1,.77,1h0l-6.75,51.21a.87.87,0,0,1-1,.77h0a.9.9,0,0,1-.78-.83h0a1,1,0,0,1,0-.17Z" transform="translate(0 -0.12)"/><path class="cls-10" d="M455.87,296.28l36.91-53.35a.93.93,0,0,1,.89-.94h0a.9.9,0,0,1,.92.88h0l-36.92,53.36a.89.89,0,0,1-.88.92h0a.91.91,0,0,1-.92-.85h0v0Z" transform="translate(0 -0.12)"/></g><polygon class="cls-27" points="0 158.75 0 152.97 478.52 152.97 478.52 158.75 0 158.75 0 158.75"/><polygon class="cls-27" points="0 135.01 0 129.22 464.45 129.22 464.45 135.01 0 135.01 0 135.01"/><polygon class="cls-27" points="0 109.77 0 103.98 451.86 103.98 451.86 109.77 0 109.77 0 109.77"/><polygon class="cls-27" points="785.18 139.46 785.18 133.68 1000 133.68 1000 139.46 785.18 139.46 785.18 139.46"/><polygon class="cls-27" points="794.81 115.71 794.81 109.92 1000 109.92 1000 115.71 794.81 115.71 794.81 115.71"/><polygon class="cls-27" points="802.96 90.47 802.96 84.69 1000 84.69 1000 90.47 802.96 90.47 802.96 90.47"/><path class="cls-28" d="M881.26,240.57a2.22,2.22,0,0,1-2.2-2.2h0V213.52a2.21,2.21,0,0,1,2.2-2.2h92.56a2.21,2.21,0,0,1,2.19,2.2h0v24.85a2.22,2.22,0,0,1-2.19,2.2H881.26Zm91.61-3.14v-23H882.2v23Z" transform="translate(0 -0.12)"/><path class="cls-28" d="M796.23,222.82a2.71,2.71,0,0,1-2.7-2.72h0V189.27a2.71,2.71,0,0,1,2.7-2.72H911.06a2.71,2.71,0,0,1,2.71,2.72h0V220.1a2.71,2.71,0,0,1-2.71,2.72H796.23Zm113.67-3.88V190.43H797.41v28.51Z" transform="translate(0 -0.12)"/><g class="cls-29"><polygon class="cls-30" points="807.78 186.48 807.78 139.16 810 139.16 810 186.48 807.78 186.48 807.78 186.48"/><polygon class="cls-30" points="895.55 186.48 895.55 139.16 897.78 139.16 897.78 186.48 895.55 186.48 895.55 186.48"/><polygon class="cls-30" points="958.89 210.98 958.89 138.42 961.12 138.42 961.12 210.98 958.89 210.98 958.89 210.98"/></g><path class="cls-31" d="M473.34,578.78,381.9,582c0-.82-.48-1.48-1.06-1.48h-3.42c-.58,0-1.05.66-1.05,1.48v7.48c0,.82.47,1.48,1.05,1.48h3.42c.07,0,.12-.09.18-.11h78.71Z" transform="translate(0 -0.12)"/><path class="cls-7" d="M517.54,563.81a1.54,1.54,0,0,1-1.55,1.54H452.61a1.54,1.54,0,0,1-1.55-1.54L448.61,479c0-.86,3.14-2.42,4-2.42H516a1.54,1.54,0,0,1,1.55,1.55Z" transform="translate(0 -0.12)"/><path class="cls-6" d="M516,562.05c0,.84-2.38,3.22-3.2,3.22l-60.31-.86a1.53,1.53,0,0,1-1.52-1.52L449.21,480c0-.84,2.41-2.52,3.25-2.52h62A1.5,1.5,0,0,1,516,479Z" transform="translate(0 -0.12)"/><path class="cls-12" d="M514.57,565.5a1.55,1.55,0,0,1-1.54,1.55H449.64a1.55,1.55,0,0,1-1.55-1.55V479.78a1.54,1.54,0,0,1,1.55-1.55H513a1.54,1.54,0,0,1,1.54,1.55Z" transform="translate(0 -0.12)"/><rect class="cls-32" x="460.81" y="500.06" width="39.97" height="3.86"/><rect class="cls-32" x="467.55" y="514.56" width="26.5" height="3.86"/><rect class="cls-10" x="377.88" y="581.64" width="81.47" height="7.97"/><polygon class="cls-6" points="459.34 589.61 474.65 576.63 474.65 568.37 459.17 579 459.34 589.61"/><polygon class="cls-31" points="377.88 581.64 377.09 580.61 400.58 568.37 474.65 568.37 459.34 581.64 377.88 581.64"/><rect class="cls-10" x="371.45" y="570.9" width="81.47" height="6.16"/><polygon class="cls-6" points="452.92 577.05 468.23 567.02 468.23 560.64 452.76 568.85 452.92 577.05"/><polygon class="cls-33" points="371.45 570.9 394.17 560.64 468.23 560.64 452.92 570.9 371.45 570.9"/><rect class="cls-34" x="382.81" y="563.17" width="81.47" height="6.16"/><polygon class="cls-6" points="464.28 569.33 479.59 559.3 479.59 552.92 464.11 561.13 464.28 569.33"/><polygon class="cls-7" points="382.81 563.17 405.52 552.92 479.59 552.92 464.28 563.17 382.81 563.17"/><rect class="cls-35" x="377.38" y="555.45" width="81.47" height="6.16"/><polygon class="cls-6" points="458.85 561.61 474.15 551.58 474.15 545.19 458.69 553.4 458.85 561.61"/><polygon class="cls-7" points="377.38 555.45 400.09 545.19 474.15 545.19 458.85 555.45 377.38 555.45"/><path class="cls-36" d="M458.55,541.93l-4.9-.13-67.84,7.05-4.2-7.63c0-1-.6-3.61-1.33-3.61l-4.31-.5c-.73,0-1.33.84-1.33,1.86v11.68c0,1,.6,1.87,1.33,1.87l68.82-.14Z" transform="translate(0 -0.12)"/><polygon class="cls-10" points="444.23 551.3 375.51 551.3 375.68 537.79 444.4 537.79 444.23 551.3"/><polygon class="cls-6" points="444.23 551.3 456.57 542.18 456.28 528.23 444.31 533.3 444.23 551.3"/><polygon class="cls-36" points="375.68 537.79 375.54 537.24 395.45 527.82 457.82 527.82 444.4 537.79 375.68 537.79"/><path class="cls-31" d="M452,527.11l-66.61,5.43-3.82,1.6V525.6c0-.93-.54-1.69-1.21-1.69h-3.93c-.66,0-1.2.76-1.2,1.69v8.59c0,.93.54,1.69,1.2,1.69h3.93c.08,0,.13-.1.21-.12h58.24Z" transform="translate(0 -0.12)"/><polygon class="cls-10" points="438.43 534.85 376.14 534.85 376.27 524.41 438.56 524.41 438.43 534.85"/><polygon class="cls-6" points="438.43 534.85 450.44 527.24 450.54 516.75 438.45 520.95 438.43 534.85"/><polygon class="cls-31" points="376.27 524.41 376.01 524.03 395.99 516.23 451.92 516.23 438.56 524.41 376.27 524.41"/><polygon class="cls-7" points="386.5 524.49 413.56 514.24 443.9 514.36 427.94 524.74 386.5 524.49"/><path class="cls-7" d="M389.71,523.26c0,1-.54,1.84-1.2,1.84h-2.77c-.68,0-1.22-.82-1.22-1.84v-9.4c0-1,.54-1.85,1.22-1.85h2.77c.66,0,1.2.83,1.2,1.85Z" transform="translate(0 -0.12)"/><path class="cls-7" d="M428.05,524.43c0,.44-.28.8-.6.8H385.59c-.32,0-.6-.36-.6-.8h0c0-.44.28-.81.6-.81h41.86c.32,0,.6.37.6.81Z" transform="translate(0 -0.12)"/><polygon class="cls-10" points="427.5 523.69 386.56 523.69 386.68 511.77 427.62 511.77 427.5 523.69"/><polygon class="cls-6" points="427.49 523.69 441.95 514.23 442.17 504.33 427.53 509.79 427.49 523.69"/><polygon class="cls-7" points="385.38 512.88 385.47 511.89 408.26 503.83 443.71 503.75 428.61 512.88 385.38 512.88"/><path class="cls-12" d="M576.56,580.17a1.34,1.34,0,0,1-1.35,1.35H519.89a1.34,1.34,0,0,1-1.34-1.35l-2.14-74c0-.74,2.73-2.1,3.48-2.1h55.32a1.34,1.34,0,0,1,1.35,1.35Z" transform="translate(0 -0.12)"/><path class="cls-6" d="M575.2,578.64c0,.73-2.08,2.81-2.82,2.81l-52.61-.75a1.33,1.33,0,0,1-1.33-1.32L516.94,507c0-.73,2.09-2.2,2.83-2.2h54.14a1.33,1.33,0,0,1,1.32,1.32Z" transform="translate(0 -0.12)"/><rect class="cls-7" x="515.96" y="505.37" width="58.02" height="77.5" rx="1.35"/><path class="cls-37" d="M565.79,549.35a1.34,1.34,0,0,1-1.34,1.35h-39.9a1.34,1.34,0,0,1-1.35-1.35V525.66a1.35,1.35,0,0,1,1.35-1.35h39.9a1.34,1.34,0,0,1,1.34,1.35Z" transform="translate(0 -0.12)"/><rect class="cls-38" x="527.05" y="529.38" width="34.89" height="3.37"/><rect class="cls-38" x="532.94" y="537.18" width="23.12" height="3.37"/></g></g></svg>