<svg id="Happy_students" data-name="Happy students" xmlns="http://www.w3.org/2000/svg" xmlns:xlink="http://www.w3.org/1999/xlink" viewBox="0 0 400 354.65"><defs><style>.cls-1{opacity:0.1;}.cls-2,.cls-44{fill:#590800;}.cls-3{fill:#e1784e;}.cls-4{fill:url(#åçûìßííûé_ãðàäèåíò_22);}.cls-5{fill:url(#åçûìßííûé_ãðàäèåíò_22-2);}.cls-6{fill:#fe9300;}.cls-7{fill:#c4552d;}.cls-8{fill:url(#åçûìßííûé_ãðàäèåíò_49);}.cls-9{fill:#460030;}.cls-10{fill:url(#åçûìßííûé_ãðàäèåíò_30);}.cls-11,.cls-42{fill:#fff;}.cls-12{fill:url(#åçûìßííûé_ãðàäèåíò_3);}.cls-13{fill:url(#åçûìßííûé_ãðàäèåíò_3-2);}.cls-14{fill:url(#åçûìßííûé_ãðàäèåíò_86);}.cls-15{fill:#b26485;opacity:0.2;}.cls-16{fill:url(#åçûìßííûé_ãðàäèåíò_43);}.cls-17{fill:url(#åçûìßííûé_ãðàäèåíò_43-2);}.cls-18,.cls-19,.cls-20,.cls-24,.cls-42,.cls-53,.cls-71,.cls-76,.cls-79{opacity:0.5;}.cls-18{fill:url(#åçûìßííûé_ãðàäèåíò_49-2);}.cls-19{fill:url(#åçûìßííûé_ãðàäèåíò_49-3);}.cls-21{fill:#f47100;}.cls-22{fill:#6f0800;}.cls-23{fill:#003363;}.cls-24,.cls-56{fill:#ffbf10;}.cls-25{fill:#630e41;}.cls-26{fill:url(#åçûìßííûé_ãðàäèåíò_43-3);}.cls-27{fill:url(#åçûìßííûé_ãðàäèåíò_43-4);}.cls-28{fill:url(#åçûìßííûé_ãðàäèåíò_30-2);}.cls-29{fill:#88271d;}.cls-30{fill:#006070;}.cls-31{fill:#003370;}.cls-32{fill:#000d36;}.cls-33{fill:url(#åçûìßííûé_ãðàäèåíò_22-3);}.cls-34{fill:url(#åçûìßííûé_ãðàäèåíò_22-4);}.cls-35{fill:url(#åçûìßííûé_ãðàäèåíò_30-3);}.cls-36{fill:url(#åçûìßííûé_ãðàäèåíò_8);}.cls-37{fill:#910000;}.cls-38,.cls-53{fill:#930000;}.cls-39{fill:url(#åçûìßííûé_ãðàäèåíò_30-4);}.cls-40{fill:url(#åçûìßííûé_ãðàäèåíò_3-3);}.cls-41{fill:url(#åçûìßííûé_ãðàäèåíò_3-4);}.cls-43{fill:url(#åçûìßííûé_ãðàäèåíò_3-5);}.cls-44{opacity:0.59;}.cls-45{fill:#c13c32;opacity:0.3;}.cls-46{fill:#6df2bf;}.cls-47{fill:#57d19c;}.cls-48{fill:url(#åçûìßííûé_ãðàäèåíò_99);}.cls-49{fill:url(#åçûìßííûé_ãðàäèåíò_99-2);}.cls-50{fill:#a00000;}.cls-51{fill:url(#åçûìßííûé_ãðàäèåíò_99-3);}.cls-52{fill:#e71400;}.cls-54{fill:url(#åçûìßííûé_ãðàäèåíò_30-5);}.cls-55{fill:#550547;}.cls-57{fill:#ffa110;}.cls-58{fill:url(#åçûìßííûé_ãðàäèåíò_22-5);}.cls-59{fill:url(#åçûìßííûé_ãðàäèåíò_22-6);}.cls-60{fill:url(#åçûìßííûé_ãðàäèåíò_30-6);}.cls-61,.cls-71{fill:#94001f;}.cls-62{fill:#b8aaff;}.cls-63{fill:url(#åçûìßííûé_ãðàäèåíò_30-7);}.cls-64{fill:url(#åçûìßííûé_ãðàäèåíò_3-6);}.cls-65{fill:url(#åçûìßííûé_ãðàäèåíò_3-7);}.cls-66{fill:url(#åçûìßííûé_ãðàäèåíò_99-4);}.cls-67{fill:url(#åçûìßííûé_ãðàäèåíò_99-5);}.cls-68{fill:#dbccff;}.cls-69{fill:url(#åçûìßííûé_ãðàäèåíò_52);}.cls-70{fill:url(#åçûìßííûé_ãðàäèåíò_11);}.cls-72{fill:#00427f;}.cls-73{fill:url(#åçûìßííûé_ãðàäèåíò_99-6);}.cls-74{fill:url(#åçûìßííûé_ãðàäèåíò_99-7);}.cls-75,.cls-76{fill:#0077a6;}.cls-77{fill:url(#åçûìßííûé_ãðàäèåíò_99-8);}.cls-78{fill:url(#åçûìßííûé_ãðàäèåíò_30-8);}.cls-79{fill:#00274a;}.cls-80{fill:url(#åçûìßííûé_ãðàäèåíò_22-7);}.cls-81{fill:url(#åçûìßííûé_ãðàäèåíò_22-8);}.cls-82{fill:url(#åçûìßííûé_ãðàäèåíò_30-9);}.cls-83{fill:url(#åçûìßííûé_ãðàäèåíò_30-10);}.cls-84{fill:url(#åçûìßííûé_ãðàäèåíò_30-11);}.cls-85{fill:#c989ff;}.cls-86{fill:url(#åçûìßííûé_ãðàäèåíò_30-12);}.cls-87{fill:url(#åçûìßííûé_ãðàäèåíò_3-8);}.cls-88{fill:url(#åçûìßííûé_ãðàäèåíò_3-9);}.cls-89{fill:#db595c;}.cls-90{fill:#ad1834;}.cls-91{fill:url(#åçûìßííûé_ãðàäèåíò_86-2);}.cls-92{fill:#db9fff;}.cls-93{fill:url(#åçûìßííûé_ãðàäèåíò_99-9);}.cls-94{fill:url(#åçûìßííûé_ãðàäèåíò_99-10);}.cls-95{fill:url(#åçûìßííûé_ãðàäèåíò_22-9);}.cls-96{fill:url(#åçûìßííûé_ãðàäèåíò_22-10);}.cls-97{fill:url(#åçûìßííûé_ãðàäèåíò_99-11);}.cls-98{fill:url(#åçûìßííûé_ãðàäèåíò_99-12);}.cls-99{fill:#c977ff;}.cls-100{fill:url(#åçûìßííûé_ãðàäèåíò_99-13);}.cls-101{fill:url(#åçûìßííûé_ãðàäèåíò_99-14);}.cls-102{fill:url(#åçûìßííûé_ãðàäèåíò_30-13);}</style><linearGradient id="åçûìßííûé_ãðàäèåíò_22" x1="279.01" y1="364.24" x2="312.35" y2="364.24" gradientUnits="userSpaceOnUse"><stop offset="0" stop-color="#ddf8fd"/><stop offset="1" stop-color="#8290c5"/></linearGradient><linearGradient id="åçûìßííûé_ãðàäèåíò_22-2" x1="313.46" y1="372.45" x2="338.57" y2="372.45" xlink:href="#åçûìßííûé_ãðàäèåíò_22"/><linearGradient id="åçûìßííûé_ãðàäèåíò_49" x1="284.2" y1="174.42" x2="284.2" y2="122.93" gradientUnits="userSpaceOnUse"><stop offset="0" stop-color="#8ba7fd"/><stop offset="1" stop-color="#95baff"/></linearGradient><linearGradient id="åçûìßííûé_ãðàäèåíò_30" x1="313.41" y1="114.69" x2="306.51" y2="64.3" gradientUnits="userSpaceOnUse"><stop offset="0" stop-color="#fdc38b"/><stop offset="1" stop-color="#fda37d"/></linearGradient><linearGradient id="åçûìßííûé_ãðàäèåíò_3" x1="312.37" y1="86.85" x2="318.31" y2="86.85" gradientUnits="userSpaceOnUse"><stop offset="0" stop-color="#a43113"/><stop offset="1" stop-color="#6f160d"/></linearGradient><linearGradient id="åçûìßííûé_ãðàäèåíò_3-2" x1="293.3" y1="87.86" x2="297.22" y2="87.86" xlink:href="#åçûìßííûé_ãðàäèåíò_3"/><linearGradient id="åçûìßííûé_ãðàäèåíò_86" x1="281.18" y1="66.61" x2="342.16" y2="66.61" gradientUnits="userSpaceOnUse"><stop offset="0" stop-color="#7d1831"/><stop offset="1" stop-color="#5c0000"/></linearGradient><linearGradient id="åçûìßííûé_ãðàäèåíò_43" x1="313.07" y1="235.66" x2="313.07" y2="119.17" gradientUnits="userSpaceOnUse"><stop offset="0" stop-color="#c4f7fd"/><stop offset="1" stop-color="#a6ddff"/></linearGradient><linearGradient id="åçûìßííûé_ãðàäèåíò_43-2" x1="342.29" y1="181.22" x2="342.29" y2="123.08" xlink:href="#åçûìßííûé_ãðàäèåíò_43"/><linearGradient id="åçûìßííûé_ãðàäèåíò_49-2" x1="319.48" y1="176.72" x2="319.48" y2="119.17" xlink:href="#åçûìßííûé_ãðàäèåíò_49"/><linearGradient id="åçûìßííûé_ãðàäèåíò_49-3" x1="318.25" y1="229.62" x2="318.25" y2="151.36" xlink:href="#åçûìßííûé_ãðàäèåíò_49"/><linearGradient id="åçûìßííûé_ãðàäèåíò_43-3" x1="334.55" y1="212.6" x2="334.55" y2="187.62" xlink:href="#åçûìßííûé_ãðàäèåíò_43"/><linearGradient id="åçûìßííûé_ãðàäèåíò_43-4" x1="368.46" y1="201.13" x2="368.46" y2="182.62" xlink:href="#åçûìßííûé_ãðàäèåíò_43"/><linearGradient id="åçûìßííûé_ãðàäèåíò_30-2" x1="352.51" y1="247.22" x2="344.71" y2="190.21" xlink:href="#åçûìßííûé_ãðàäèåíò_30"/><linearGradient id="åçûìßííûé_ãðàäèåíò_22-3" x1="54.77" y1="367.99" x2="76.43" y2="367.99" gradientTransform="matrix(-1, 0, 0, 1, 116.03, 0)" xlink:href="#åçûìßííûé_ãðàäèåíò_22"/><linearGradient id="åçûìßííûé_ãðàäèåíò_22-4" x1="-14.68" y1="367.82" x2="25.25" y2="367.82" gradientTransform="matrix(-1, 0, 0, 1, 116.03, 0)" xlink:href="#åçûìßííûé_ãðàäèåíò_22"/><linearGradient id="åçûìßííûé_ãðàäèåíò_30-3" x1="12.21" y1="235.14" x2="10.75" y2="224.43" gradientTransform="matrix(-1, 0, 0, 1, 116.03, 0)" xlink:href="#åçûìßííûé_ãðàäèåíò_30"/><linearGradient id="åçûìßííûé_ãðàäèåíò_8" x1="49.27" y1="354.98" x2="49.27" y2="201.9" gradientTransform="matrix(-1, 0, 0, 1, 116.03, 0)" gradientUnits="userSpaceOnUse"><stop offset="0" stop-color="#754a86"/><stop offset="1" stop-color="#3e0033"/></linearGradient><linearGradient id="åçûìßííûé_ãðàäèåíò_30-4" x1="47.15" y1="97.94" x2="39.66" y2="43.17" gradientTransform="matrix(-1, 0, 0, 1, 116.03, 0)" xlink:href="#åçûìßííûé_ãðàäèåíò_30"/><linearGradient id="åçûìßííûé_ãðàäèåíò_3-3" x1="43.58" y1="67.67" x2="49.23" y2="67.67" gradientTransform="matrix(0, -1, -1, 0, 136.67, 113.74)" xlink:href="#åçûìßííûé_ãðàäèåíò_3"/><linearGradient id="åçûìßííûé_ãðàäèåíò_3-4" x1="26.67" y1="70.36" x2="31.79" y2="70.36" gradientTransform="matrix(-1, 0, 0, 1, 116.03, 0)" xlink:href="#åçûìßííûé_ãðàäèåíò_3"/><linearGradient id="åçûìßííûé_ãðàäèåíò_3-5" x1="11.56" y1="51.11" x2="67.78" y2="51.11" gradientTransform="matrix(-1, 0, 0, 1, 116.03, 0)" xlink:href="#åçûìßííûé_ãðàäèåíò_3"/><linearGradient id="åçûìßííûé_ãðàäèåíò_99" x1="9.48" y1="133.67" x2="29.43" y2="133.67" gradientTransform="matrix(-1, 0, 0, 1, 116.03, 0)" gradientUnits="userSpaceOnUse"><stop offset="0" stop-color="#ca0000"/><stop offset="1" stop-color="#a80009"/></linearGradient><linearGradient id="åçûìßííûé_ãðàäèåíò_99-2" x1="53.22" y1="145.88" x2="71.56" y2="145.88" xlink:href="#åçûìßííûé_ãðàäèåíò_99"/><linearGradient id="åçûìßííûé_ãðàäèåíò_99-3" x1="60.81" y1="155.29" x2="88.49" y2="155.29" xlink:href="#åçûìßííûé_ãðàäèåíò_99"/><linearGradient id="åçûìßííûé_ãðàäèåíò_30-5" x1="55.6" y1="218.33" x2="53.91" y2="205.96" gradientTransform="matrix(-1, 0, 0, 1, 116.03, 0)" xlink:href="#åçûìßííûé_ãðàäèåíò_30"/><linearGradient id="åçûìßííûé_ãðàäèåíò_22-5" x1="129.71" y1="364.98" x2="151.47" y2="364.98" xlink:href="#åçûìßííûé_ãðàäèåíò_22"/><linearGradient id="åçûìßííûé_ãðàäèåíò_22-6" x1="162.31" y1="366.65" x2="193.53" y2="366.65" xlink:href="#åçûìßííûé_ãðàäèåíò_22"/><linearGradient id="åçûìßííûé_ãðàäèåíò_30-6" x1="190.87" y1="248.1" x2="182.05" y2="183.63" xlink:href="#åçûìßííûé_ãðàäèåíò_30"/><linearGradient id="åçûìßííûé_ãðàäèåíò_30-7" x1="161.17" y1="133.2" x2="154.16" y2="81.95" xlink:href="#åçûìßííûé_ãðàäèåíò_30"/><linearGradient id="åçûìßííûé_ãðàäèåíò_3-6" x1="146.72" y1="108.8" x2="153.66" y2="108.8" xlink:href="#åçûìßííûé_ãðàäèåíò_3"/><linearGradient id="åçûìßííûé_ãðàäèåíò_3-7" x1="168.24" y1="111.87" x2="173.83" y2="111.87" xlink:href="#åçûìßííûé_ãðàäèåíò_3"/><linearGradient id="åçûìßííûé_ãðàäèåíò_99-4" x1="149.45" y1="122.49" x2="167.45" y2="122.49" gradientTransform="matrix(1, 0, 0, 1, 0, 0)" xlink:href="#åçûìßííûé_ãðàäèåíò_99"/><linearGradient id="åçûìßííûé_ãðàäèåíò_99-5" x1="149.45" y1="124.69" x2="165.6" y2="124.69" gradientTransform="matrix(1, 0, 0, 1, 0, 0)" xlink:href="#åçûìßííûé_ãðàäèåíò_99"/><linearGradient id="åçûìßííûé_ãðàäèåíò_52" x1="181.91" y1="154.65" x2="195.54" y2="154.65" gradientUnits="userSpaceOnUse"><stop offset="0" stop-color="#ff7045"/><stop offset="1" stop-color="#bd3e39"/></linearGradient><linearGradient id="åçûìßííûé_ãðàäèåíò_11" x1="110.08" y1="119.94" x2="195.02" y2="119.94" gradientUnits="userSpaceOnUse"><stop offset="0" stop-color="#bd3e39"/><stop offset="1" stop-color="#ff7045"/></linearGradient><linearGradient id="åçûìßííûé_ãðàäèåíò_99-6" x1="129.71" y1="361.79" x2="151.47" y2="361.79" gradientTransform="matrix(1, 0, 0, 1, 0, 0)" xlink:href="#åçûìßííûé_ãðàäèåíò_99"/><linearGradient id="åçûìßííûé_ãðàäèåíò_99-7" x1="162.31" y1="360.99" x2="193.53" y2="360.99" gradientTransform="matrix(1, 0, 0, 1, 0, 0)" xlink:href="#åçûìßííûé_ãðàäèåíò_99"/><linearGradient id="åçûìßííûé_ãðàäèåíò_99-8" x1="129.31" y1="149.27" x2="165.97" y2="149.27" gradientTransform="matrix(1, 0, 0, 1, 0, 0)" xlink:href="#åçûìßííûé_ãðàäèåíò_99"/><linearGradient id="åçûìßííûé_ãðàäèåíò_30-8" x1="141.07" y1="193.58" x2="137.83" y2="169.88" xlink:href="#åçûìßííûé_ãðàäèåíò_30"/><linearGradient id="åçûìßííûé_ãðàäèåíò_22-7" x1="260.66" y1="367.23" x2="277.02" y2="367.23" xlink:href="#åçûìßííûé_ãðàäèåíò_22"/><linearGradient id="åçûìßííûé_ãðàäèåíò_22-8" x1="221.96" y1="367.57" x2="236.9" y2="367.57" xlink:href="#åçûìßííûé_ãðàäèåíò_22"/><linearGradient id="åçûìßííûé_ãðàäèåíò_30-9" x1="232.48" y1="356.57" x2="219.15" y2="259.07" xlink:href="#åçûìßííûé_ãðàäèåíò_30"/><linearGradient id="åçûìßííûé_ãðàäèåíò_30-10" x1="265.26" y1="354.35" x2="252.91" y2="264.09" xlink:href="#åçûìßííûé_ãðàäèåíò_30"/><linearGradient id="åçûìßííûé_ãðàäèåíò_30-11" x1="271.13" y1="252.39" x2="258.08" y2="157.04" xlink:href="#åçûìßííûé_ãðàäèåíò_30"/><linearGradient id="åçûìßííûé_ãðàäèåíò_30-12" x1="243.48" y1="123.94" x2="236.31" y2="71.47" xlink:href="#åçûìßííûé_ãðàäèåíò_30"/><linearGradient id="åçûìßííûé_ãðàäèåíò_3-8" x1="242.96" y1="94.48" x2="249.88" y2="94.48" xlink:href="#åçûìßííûé_ãðàäèåíò_3"/><linearGradient id="åçûìßííûé_ãðàäèåíò_3-9" x1="223.48" y1="94.7" x2="229.5" y2="94.7" xlink:href="#åçûìßííûé_ãðàäèåíò_3"/><linearGradient id="åçûìßííûé_ãðàäèåíò_86-2" x1="213.46" y1="95.62" x2="274.64" y2="95.62" xlink:href="#åçûìßííûé_ãðàäèåíò_86"/><linearGradient id="åçûìßííûé_ãðàäèåíò_99-9" x1="221.96" y1="358.78" x2="235.86" y2="358.78" gradientTransform="matrix(1, 0, 0, 1, 0, 0)" xlink:href="#åçûìßííûé_ãðàäèåíò_99"/><linearGradient id="åçûìßííûé_ãðàäèåíò_99-10" x1="261.4" y1="358.15" x2="277.02" y2="358.15" gradientTransform="matrix(1, 0, 0, 1, 0, 0)" xlink:href="#åçûìßííûé_ãðàäèåíò_99"/><linearGradient id="åçûìßííûé_ãðàäèåíò_22-9" x1="223.5" y1="366.47" x2="235.86" y2="366.47" xlink:href="#åçûìßííûé_ãðàäèåíò_22"/><linearGradient id="åçûìßííûé_ãðàäèåíò_22-10" x1="261.04" y1="366.09" x2="275.11" y2="366.09" xlink:href="#åçûìßííûé_ãðàäèåíò_22"/><linearGradient id="åçûìßííûé_ãðàäèåíò_99-11" x1="228.74" y1="131.64" x2="252.15" y2="131.64" gradientTransform="matrix(1, 0, 0, 1, 0, 0)" xlink:href="#åçûìßííûé_ãðàäèåíò_99"/><linearGradient id="åçûìßííûé_ãðàäèåíò_99-12" x1="260.65" y1="158.61" x2="269.96" y2="158.61" gradientTransform="matrix(1, 0, 0, 1, 0, 0)" xlink:href="#åçûìßííûé_ãðàäèåíò_99"/><linearGradient id="åçûìßííûé_ãðàäèåíò_99-13" x1="204.37" y1="155.07" x2="223.81" y2="155.07" gradientTransform="matrix(1, 0, 0, 1, 0, 0)" xlink:href="#åçûìßííûé_ãðàäèåíò_99"/><linearGradient id="åçûìßííûé_ãðàäèåíò_99-14" x1="212.28" y1="261.36" x2="260.97" y2="261.36" gradientTransform="matrix(1, 0, 0, 1, 0, 0)" xlink:href="#åçûìßííûé_ãðàäèåíò_99"/><linearGradient id="åçûìßííûé_ãðàäèåíò_30-13" x1="203.39" y1="157.55" x2="226.41" y2="157.55" xlink:href="#åçûìßííûé_ãðàäèåíò_30"/></defs><path class="cls-1" d="M400,365.81v12.86c-44.55,3-119.39,5-204.21,5-79.68,0-150.56-1.74-195.79-4.43V365.27c45.23-2.69,116.11-4.43,195.79-4.43C280.61,360.84,355.45,362.81,400,365.81Z" transform="translate(0 -28.99)"/><path class="cls-2" d="M349.47,142.32s6.33,22.32,7.74,29.13c2.13,10.28-10.4,35.62-11.2,37.61s-11.28,6.46-14.22,3.73-8.46-29.29-8.36-33.43,11.41-19.67,11.41-19.67Z" transform="translate(0 -28.99)"/><path class="cls-3" d="M347,247.6c-1.27.29-3.14-1.67-3.14-1.67l5.9-1.57S348.88,247.16,347,247.6Z" transform="translate(0 -28.99)"/><path class="cls-4" d="M279,364.18v3.43a82.47,82.47,0,0,0,16.69.53c8.46-.69,16.65-5.46,16.65-5.46l-3-2.55Z" transform="translate(0 -28.99)"/><path class="cls-5" d="M313.46,370.76v3.65a54.29,54.29,0,0,0,13.23,1.12c6-.47,11.88-4.74,11.88-4.74l-1.18-1.49Z" transform="translate(0 -28.99)"/><path class="cls-6" d="M308.38,285.48c-1.07,4.77,2.33,23.69,3.09,28.91S309.62,343,309.62,343h-.06c-.35-.08-2.4-.48-4.69-.74l-.25,0a18.27,18.27,0,0,0-5.46,0c-3.08.77-6.77,1.54-6.77,1.54s-4.15-36.3-4.15-40.75-2.46-12.84-2.31-16.19c0-.12,0-.28,0-.5.42-5.53,4.24-40.51,5.16-44.52a3.61,3.61,0,0,1,.4-1c1.93-3.29,8.71-4,8.71-4l18,5.07L314.56,260S309.46,280.71,308.38,285.48Z" transform="translate(0 -28.99)"/><path class="cls-6" d="M340,345c-.19,1.84-.66,8.76-.66,8.76s-14.76-4.15-16.45-3.38a53.82,53.82,0,0,1-7.08,1.84s4.62-32.9,4.62-35.36-2.61-12-2.61-16.61-1.92-33.68-3-39.22-2.38-12.3-7-16-9.22-5.39-12.15-4.77a16.36,16.36,0,0,0-4.49,1.54l-.23-6.15s.3-.33.87-.88h0A49.53,49.53,0,0,1,311,223.49c14.79-4.41,25.08-2.64,25.08-2.64s3.39,13.7,3.85,17.87-3.23,46-2.61,54.08,1.53,20.67,1.53,25.28c0,4.29-1.16,10.19-.9,13a4.35,4.35,0,0,0,.08.57C338.53,334.08,340.14,343.15,340,345Z" transform="translate(0 -28.99)"/><path class="cls-3" d="M256.5,199.86s-3.73,5.31-6.37,7.47-5.19,3.54-6.42,4.65-4,4.6-5,5-1-1.17-1-1.17-.83,1.79-1.77,1.54a1.31,1.31,0,0,1-1-1.13s-.33.13-.79-.54,1.68-3.84,2.63-5.21a43.43,43.43,0,0,1,4.84-4.6s-4,2.74-5.48,3.87-2.56,3.3-3.25,3.91-1.14-.93-.49-2.64,3.51-4.13,4.34-5.17,6.09-3.86,7.53-4.12S256.5,199.86,256.5,199.86Z" transform="translate(0 -28.99)"/><path class="cls-3" d="M297,179s-.36.32-1,.83c-2.29,2-8.1,6.9-10.73,8.28s-17.09,6.17-23.62,8.51c-1.55.56-2.66,1-3.05,1.18l0,0c-1.83,1-4.79,6.44-7.44,6.92s-7.93-.78-7.93-.78a20.4,20.4,0,0,0-4.75,3.7c-1.53,1.61-5.88,1.66-6.51,1.11s1.38-1.93,2.8-2.41,2.88-2.72,6-5.22,9.69-4.58,13.51-6.28,5.28-2.37,13.46-9.3c3.71-3.15,7.55-6.12,10.65-8.43,2.76-2,4.93-3.58,5.87-4.25l.51-.35C291.19,172,297,179,297,179Z" transform="translate(0 -28.99)"/><path class="cls-7" d="M296,179.83c-2.29,2-8.1,6.9-10.73,8.28s-17.09,6.17-23.62,8.51c4.51-1.82,12.6-5.47,14.75-8.87,2.59-4.08,2.14-9.22,1.95-10.62,2.76-2,4.93-3.58,5.87-4.25Z" transform="translate(0 -28.99)"/><path class="cls-8" d="M291.24,122.93,291,134.2l-.06,2.63,0,1.86-.2,8.87,0,1.83-.2,8.42,0,1.84L290.19,170l-.05,1.89-.05,2.56H277.17s.31-1.43.75-3.8c.11-.58.23-1.2.35-1.89.37-2.06.81-4.59,1.2-7.36.09-.59.18-1.28.26-2,.07-.57.13-1.19.2-1.84.26-2.66.54-5.89.81-9.23.05-.62.1-1.25.16-1.87.32-4,.65-8,1-11.23.08-.65.14-1.27.21-1.84a26.39,26.39,0,0,1,.76-4.39,7.89,7.89,0,0,1,3.43-3.68A24.71,24.71,0,0,1,291.24,122.93Z" transform="translate(0 -28.99)"/><path class="cls-9" d="M291.58,189.6s-6.43-4.43-10.43-6.88c-4.48-2.73-6.26-2.45-7.29-3.35-.53-.47,2.06-9,2.69-9.33s2.23.17,6.87,1.12c5.83,1.21,8.16,2.82,8.16,2.82Z" transform="translate(0 -28.99)"/><path class="cls-3" d="M324.58,119.78s-2.89,2.13-10.39,3.3a13,13,0,0,1-11.68-3.91,31.89,31.89,0,0,0,3.54-1.24,8.88,8.88,0,0,0,2.6-1.53,3.82,3.82,0,0,0,1-3.43l9.72-5.92s-.42,6.29-.07,8.1a4.45,4.45,0,0,0,1.49,2A26.44,26.44,0,0,0,324.58,119.78Z" transform="translate(0 -28.99)"/><path class="cls-7" d="M320.8,117.14a20.37,20.37,0,0,1-7.86,1.56,24.53,24.53,0,0,1-6.89-.77,8.88,8.88,0,0,0,2.6-1.53,3.82,3.82,0,0,0,1-3.43l9.72-5.92s-.42,6.29-.07,8.1A4.45,4.45,0,0,0,320.8,117.14Z" transform="translate(0 -28.99)"/><path class="cls-10" d="M327.34,99.42c-3.27,7.09-16.48,15.4-23.17,16.53-1.83.31-3.85-.48-5.82-1.84h0c-5-3.47-9.74-10.58-10-12.25-.34-2.3,3-8.66,3.06-11.24s-1.48-9.06-.83-12.52h0c.68-3.47,10.12-12.21,17.6-14s19.84,1.17,22,5.2S329.39,95,327.34,99.42Z" transform="translate(0 -28.99)"/><path class="cls-3" d="M327.34,99.42c-3.27,7.09-16.48,15.4-23.17,16.53-1.83.31-3.85-.48-5.82-1.84a26.35,26.35,0,0,0,19.09-8.25c8.63-8.91,7.1-28.45,4.48-31.83s-9.57-3.41-18.46-2.46c-8.6.92-12.62,6.19-12.87,6.52.68-3.47,10.12-12.21,17.6-14s19.84,1.17,22,5.2S329.39,95,327.34,99.42Z" transform="translate(0 -28.99)"/><path class="cls-11" d="M309.08,91.87s1.88-10.54,6-10.27,4.22,8.12,4.22,8.12-2.1,3-5.11,2.88A22.26,22.26,0,0,1,309.08,91.87Z" transform="translate(0 -28.99)"/><path class="cls-11" d="M297.22,92.18s.34-9-2.76-8.91-3,8.46-3,8.46a2.82,2.82,0,0,0,2.27.87A18.79,18.79,0,0,0,297.22,92.18Z" transform="translate(0 -28.99)"/><path class="cls-3" d="M318.69,90.62a22.57,22.57,0,0,1-4.07,1.11,23.89,23.89,0,0,1-4.06.56,13.11,13.11,0,0,0,4.38.81C316.61,92.93,318.69,90.62,318.69,90.62Z" transform="translate(0 -28.99)"/><path class="cls-3" d="M291.7,92.18a17.71,17.71,0,0,0,2,.15,22.61,22.61,0,0,0,3.48-.15,14,14,0,0,1-3.67,1.15A1.68,1.68,0,0,1,291.7,92.18Z" transform="translate(0 -28.99)"/><path class="cls-12" d="M318.31,86.85c0,2.38-1.33,4.32-3,4.32s-3-1.94-3-4.32,1.33-4.32,3-4.32S318.31,84.46,318.31,86.85Z" transform="translate(0 -28.99)"/><path class="cls-2" d="M317.44,86.33c0,1.69-.94,3.06-2.1,3.06s-2.1-1.37-2.1-3.06.94-3.06,2.1-3.06S317.44,84.64,317.44,86.33Z" transform="translate(0 -28.99)"/><path class="cls-13" d="M297.21,90.73l-.13.25a1.92,1.92,0,0,1-1.54,1.2c-1.25,0-2.24-1.94-2.24-4.32a5.84,5.84,0,0,1,1.07-3.68,1.54,1.54,0,0,1,1.17-.64,1.18,1.18,0,0,1,.71.23h0a7.49,7.49,0,0,1,.63,1.94,15.83,15.83,0,0,1,.23,1.72A30.33,30.33,0,0,1,297.21,90.73Z" transform="translate(0 -28.99)"/><path class="cls-2" d="M297.12,87.44a4.59,4.59,0,0,1-.3,1.69c-.28.78-.76,1.27-1.28,1.27-.89,0-1.6-1.37-1.6-3.06a3.42,3.42,0,0,1,1.16-2.94.75.75,0,0,1,.44-.12c.57,0,1.07.57,1.35,1.44A15.83,15.83,0,0,1,297.12,87.44Z" transform="translate(0 -28.99)"/><path class="cls-2" d="M297.21,90.73c0,.62,0,1,0,1s0-.28-.08-.75-.14-1.13-.26-1.85c-.31-1.82-.85-4-1.72-4.73a.82.82,0,0,0-.47-.22,1.13,1.13,0,0,0-.26,0c-2.14.28-2.9,7.55-2.9,7.55s-.77-9.1,3.23-9.09a1.81,1.81,0,0,1,1.55,1.13h0a7.49,7.49,0,0,1,.63,1.94,15.83,15.83,0,0,1,.23,1.72A30.33,30.33,0,0,1,297.21,90.73Z" transform="translate(0 -28.99)"/><path class="cls-11" d="M314.19,87.81a1.25,1.25,0,1,1-1.25-1.25A1.25,1.25,0,0,1,314.19,87.81Z" transform="translate(0 -28.99)"/><path class="cls-11" d="M294.55,88.59a1.25,1.25,0,1,1-1.25-1.25A1.25,1.25,0,0,1,294.55,88.59Z" transform="translate(0 -28.99)"/><path class="cls-2" d="M309.08,91.15s2.15-9.12,6.15-8.36,4.07,6.93,4.07,6.93S320.61,81,314.84,81C309.84,81,309.08,91.15,309.08,91.15Z" transform="translate(0 -28.99)"/><path class="cls-2" d="M309.58,77l.27-3.69.42,1.57.29-1.57s4.59.38,6.71,1.46a10.63,10.63,0,0,1,3.26,2.54l-.46,1.88a11.9,11.9,0,0,0-4.73-2.11A27.92,27.92,0,0,0,309.58,77Z" transform="translate(0 -28.99)"/><path class="cls-2" d="M299.35,77.37V73.68l-.58.73-.38-1.11a14.23,14.23,0,0,0-4.81,2.42,8.78,8.78,0,0,0-3,3.73v2a38.78,38.78,0,0,1,4.67-3.07A10.18,10.18,0,0,1,299.35,77.37Z" transform="translate(0 -28.99)"/><path class="cls-2" d="M296.28,103.81s5.94,1.13,9.94-.23c4.19-1.43,6.27-4.66,7.68-6,.58-.56.77.27.77.27s-4,5.46-8.72,6.61a21,21,0,0,1-9.6-.29Z" transform="translate(0 -28.99)"/><path class="cls-2" d="M312.07,95.72a3.11,3.11,0,0,1,2.65,1.15c1,1.35,1.84,2.36,1.84,2.36s-1.85.16-2.65-.88A26.1,26.1,0,0,0,312.07,95.72Z" transform="translate(0 -28.99)"/><path class="cls-3" d="M298,96.67a21.69,21.69,0,0,0,5.3.23A11,11,0,0,0,307,96s-.35,1.66-1.15,2-2-.42-2-.42a3.94,3.94,0,0,1-2.69,1.27C299.39,98.94,298,96.67,298,96.67Z" transform="translate(0 -28.99)"/><path class="cls-3" d="M327.11,92.18a46.08,46.08,0,0,1,7.11-4.84c3.46-1.78,6.08-2.16,6.92-1.7s.16,7.14-2,10.07-8.46,7.28-10.53,6.23-2.31-2.38-2.31-2.38Z" transform="translate(0 -28.99)"/><path class="cls-7" d="M328.41,96a79,79,0,0,1,7.81-5.88,23.4,23.4,0,0,1,3.35-1.79,51.84,51.84,0,0,1-4.21,4.29C333.22,94.48,328.41,96,328.41,96Z" transform="translate(0 -28.99)"/><path class="cls-7" d="M332.07,93.78s-.87,2.32,0,3.24,3.06.35,3.06.35-2.68,1.38-4.14.69-.42-3.35-.42-3.35Z" transform="translate(0 -28.99)"/><path class="cls-14" d="M334.22,87.34a20.54,20.54,0,0,0-5.81,5.26l-1.11.74s.57-13.62.55-19-2.4-7.38-2.4-7.38a20.12,20.12,0,0,1-6.76,1.76c-3.85.31-4.84-1.3-4.84-1.3s-5.45,2.77-8.38,2.84S301.55,69,301.55,69s-4.89,5.13-8.83,5.57c-3.61.39-6.74-.85-7.42-2.66a1.89,1.89,0,0,1-.13-.52,4.42,4.42,0,0,1,.38-2.92,6.86,6.86,0,0,1-4.3-5.7c-.47-4.38,1.68-6.14,1.68-6.14s-1.15-6.08,3.31-8.69,11.73-2,11.73-2A26.59,26.59,0,0,1,305.45,41a13.15,13.15,0,0,1,5.11-1.08A10.18,10.18,0,0,1,319.43,45s3.49-2.53,6.34-.61,2.64,4.38,2.64,4.38a9.7,9.7,0,0,1,6,2.77c2.46,2.61,0,6.46,0,6.46l.07,0c.71.47,6.46,4.39,7.54,8.54C343.22,71,334.22,87.34,334.22,87.34Z" transform="translate(0 -28.99)"/><path class="cls-15" d="M323.3,50.5c-1.22,2-6.74,4.92-6.74,4.92s-.94,6.15-4.88,7.39-10.52,0-10.52,0a16.69,16.69,0,0,1-6.19,6.3c-2.83,1.77-6.91,2.47-9.67,2.75a1.89,1.89,0,0,1-.13-.52,4.42,4.42,0,0,1,.38-2.92,6.86,6.86,0,0,1-4.3-5.7c-.47-4.38,1.68-6.14,1.68-6.14s-1.15-6.08,3.31-8.69,11.73-2,11.73-2A26.59,26.59,0,0,1,305.45,41h0c8.16-.29,11.09,3.69,11.09,3.69S324.53,48.5,323.3,50.5Z" transform="translate(0 -28.99)"/><path class="cls-2" d="M334.22,87.34a20.54,20.54,0,0,0-5.81,5.26l-1.11.74s.57-13.62.55-19-2.4-7.38-2.4-7.38a15.63,15.63,0,0,0,4.76-2.54c2.16-1.77,4.24-6.38,4.24-6.38l.07,0c.71.47,6.46,4.39,7.54,8.54C343.22,71,334.22,87.34,334.22,87.34Z" transform="translate(0 -28.99)"/><path class="cls-16" d="M336.91,220.87s-17.41-.55-28.72,3.48a45.91,45.91,0,0,0-10.31,5.27,36.23,36.23,0,0,0-7,6,3.17,3.17,0,0,1-1-1.39c-.46-1,.59-3.92.59-5.07,0-.68-.12-2.37-.21-4.15h0c0-.77,0-1.54-.05-2.26,0-.47,0-.92,0-1.31.12-2.42.81-4.84.7-6.64,0-.62-.14-1.71-.25-3.22,0-.59-.08-1.24-.13-2-.17-2.76-.32-6.41-.32-10.68,0-.38,0-.78,0-1.22s0-1.2-.06-1.87c-.13-3.21-.4-7.34-.73-11.68,0-.62-.09-1.24-.15-1.87-.2-2.64-.42-5.35-.64-7.92-.09-1-.18-2-.26-3-.05-.67-.11-1.33-.17-2-.26-3.17-.49-5.94-.63-7.93-.05-.61-.06-1.35-.06-2.19,0-.56,0-1.18.05-1.83.08-2.24.28-4.95.54-7.85.06-.61.11-1.21.18-1.83.29-3.09.64-6.34,1-9.42.08-.63.15-1.24.23-1.85s.15-1.28.23-1.9c.8-6.59,1.52-11.69,1.52-11.69l.5-.17L294,122h0l8.55-2.86s4.89,3.25,9.17,3,11.89-3,11.89-3c1.87,1.31,12.19,3.91,12.19,3.91s0,.63.09,1.74c0,.54.06,1.17.09,1.9.14,2.8.3,6.91.37,11.32,0,.37,0,.73,0,1.1s0,.5,0,.76c0,2.84,0,5.74,0,8.44,0,.66-.05,1.29-.08,1.91-.19,4.27-.61,7.82-1.37,9.44l-.09.19h0c-.26.58-.52,1.19-.78,1.84-.37.94-.73,2-1.07,3-.58,1.79-1.11,3.68-1.55,5.51q-.24.93-.42,1.83a46,46,0,0,0-1.16,7.3,11.67,11.67,0,0,0,.07,1.27c.05.53.13,1.17.22,1.91.3,2.31.82,5.52,1.41,9q.18,1,.36,2c.36,2,.72,4,1.08,5.85.12.63.24,1.25.36,1.85.54,2.8,1,5.26,1.43,6.94.18.8.33,1.43.45,1.83a3,3,0,0,0,.16.44c.69,1.2,3.23,3.52,3.34,5.37S336.91,220.87,336.91,220.87Z" transform="translate(0 -28.99)"/><path class="cls-17" d="M352.67,176.05a28.47,28.47,0,0,0-4.12.67,47.19,47.19,0,0,0-6.56,2l-6.3,2.47s-.68-4.34-1.47-9c-.1-.61-.21-1.24-.32-1.86-.35-2-.7-4-1-5.6-.23-1.26-.45-2.33-.63-3.06-.07-.29-.14-.53-.19-.71a5.91,5.91,0,0,1-.15-1.19c-.08-1.72.07-4.87.35-8.64.05-.62.1-1.26.16-1.91.24-3,.56-6.33.92-9.59.07-.61.14-1.23.21-1.83,0-.15,0-.3.05-.45.45-3.87.94-7.54,1.39-10.35.12-.74.24-1.41.36-2s.27-1.38.4-1.89c0,0,1.29.34,3,.89h0c.94.3,2,.65,3.07,1,2.73,1,5.46,2.22,6,3.31.4.74.88,4.15,1.36,8.6.07.6.14,1.22.2,1.84.21,2.06.42,4.27.62,6.5.05.62.1,1.24.16,1.85.36,4.17.67,8.28.89,11.43.05.67.08,1.3.12,1.88.1,1.49.17,2.63.19,3.27.05,1.58.23,3.61.42,5.56.06.63.14,1.25.2,1.85C352.38,173.85,352.67,176.05,352.67,176.05Z" transform="translate(0 -28.99)"/><path class="cls-18" d="M352.67,176.05a28.47,28.47,0,0,0-4.12.67s-3.33-25.26-6.27-31a19.8,19.8,0,0,0-5.95-6.54,30.54,30.54,0,0,0-2.72-1.8,45,45,0,0,0-20.19-5.72A62.65,62.65,0,0,0,291,134.2c-.47.14-.9.29-1.27.42-1.46.52-2.23.89-2.23.89l-1.2-10.26a24.71,24.71,0,0,1,4.95-2.32l11.27-3.76s4.89,3.25,9.17,3,11.89-3,11.89-3c1.87,1.31,12.19,3.91,12.19,3.91s10.92,2.93,12.15,5.24,3.38,30.91,3.54,35.37S352.67,176.05,352.67,176.05Z" transform="translate(0 -28.99)"/><path class="cls-19" d="M336.91,220.87s-17.41-.55-28.72,3.48a45.91,45.91,0,0,0-10.31,5.27h0a37.79,37.79,0,0,1,16.22-8.75c9.57-2.22,20.3-3.32,20.18-4.48s-3.46-5.76-11.65-3.61A135,135,0,0,0,305.23,219a112.49,112.49,0,0,1,12.08-7.14c5.3-2.54,11.42-3.81,12.34-4.15s-1.5-20-2.43-21-6.45,2.73-6.8,2.2,3.7-6.16,6.68-13.75c2.75-7,4.48-21.43,4.77-23.88a31.67,31.67,0,0,0,.06,5.64c.32,3.92,1,7.72,1,7.72a68.52,68.52,0,0,0-3.13,14.64c-.11,3.56,4.85,29.89,5.54,31.09s3.23,3.52,3.34,5.37S336.91,220.87,336.91,220.87Z" transform="translate(0 -28.99)"/><path class="cls-9" d="M300.66,119.78l2.75-1.08a19.83,19.83,0,0,0,8.66,2c4.66-.11,10-2.5,10-2.5l2.49,1.62a50.73,50.73,0,0,1-13,2.9A19.83,19.83,0,0,1,300.66,119.78Z" transform="translate(0 -28.99)"/><path class="cls-9" d="M309.66,122A102.61,102.61,0,0,0,307,134a67.55,67.55,0,0,0-1,10.11h3a88.4,88.4,0,0,1,.58-13.34c.84-5.59,1.59-8.7,1.59-8.7Z" transform="translate(0 -28.99)"/><g class="cls-20"><path class="cls-9" d="M349.47,138.76a50.49,50.49,0,0,0-7.08.89,14.5,14.5,0,0,1-3.49.35c-.81,0-1.65,0-2.56-.1s-1.95-.17-3-.28-2.31-.27-3.54-.41c-.8-.11-1.63-.21-2.47-.3-6.33-.74-23.48-1.06-28.36-.35a30,30,0,0,1-8.09.13,13.82,13.82,0,0,1-1.63-.32,7.32,7.32,0,0,1-3.14-1.52,11,11,0,0,0-4.23-1.69c.08-.65.14-1.27.21-1.84a12.56,12.56,0,0,1,5.26,2.17,5.29,5.29,0,0,0,2.13,1,13.43,13.43,0,0,0,1.44.31,26.61,26.61,0,0,0,7.79-.1c5.31-.76,23-.34,28.85.34l2.46.3c1.23.15,2.41.3,3.53.42,1,.11,1.89.19,2.75.25a18.82,18.82,0,0,0,5.63-.18,49.12,49.12,0,0,1,7.33-.94C349.34,137.52,349.41,138.14,349.47,138.76Z" transform="translate(0 -28.99)"/></g><g class="cls-20"><path class="cls-9" d="M350.25,147.11l-7.88,1.74c-1.9.42-3.63.82-5.14,1.17l-1,.23c-1.64.38-3,.68-3.94.87l-.2,0a8,8,0,0,1-1.27.07c-1.67,0-4.66-.21-9.5-.57-4.47-.33-10-.74-15.87-1a146.14,146.14,0,0,0-14.78-.24c-1.14.08-1.74.16-2.12.22a2.09,2.09,0,0,1-.45,0,58.11,58.11,0,0,1-7.34-1.36c.05-.62.1-1.25.16-1.87a60.75,60.75,0,0,0,7.3,1.41h.06a23.45,23.45,0,0,1,2.43-.23,145.58,145.58,0,0,1,14.82.23c5.88.28,11.45.7,15.93,1a96.85,96.85,0,0,0,10.29.52l.7-.13c1-.21,2.3-.51,3.86-.87l.52-.12c1.51-.35,3.26-.76,5.15-1.17l8.13-1.79C350.14,145.88,350.19,146.5,350.25,147.11Z" transform="translate(0 -28.99)"/></g><g class="cls-20"><path class="cls-9" d="M351.26,160.42a33.18,33.18,0,0,1-7.4,1.19c-2.39.08-5.22.13-7.57.13l-2.33,0-1.7-.06a4.11,4.11,0,0,1-.6-.07c-.77-.14-12.67-.75-22-.75a179.15,179.15,0,0,1-19.24-1.19c-1-.11-1.79-.21-2.23-.27-.18,0-.41-.06-.7-.08-1.76-.11-5.23,0-7.76,0,.07-.57.13-1.19.2-1.84,2.11-.07,5.63-.14,7.61,0a9,9,0,0,1,.92.08l2,.26A180.85,180.85,0,0,0,309.66,159c8.76,0,20.58.54,22.26.76l.16,0a25.66,25.66,0,0,0,2.66.09h0c2.23,0,5.56,0,9.06-.12a31.69,31.69,0,0,0,7.33-1.22C351.19,159.21,351.22,159.84,351.26,160.42Z" transform="translate(0 -28.99)"/></g><g class="cls-20"><path class="cls-9" d="M331.34,170.23q-.24.93-.42,1.83h-1.35c-.75,0-2.1.19-3.81.39a156.94,156.94,0,0,1-18.54,1.28c-1,0-2,0-3,0a58.08,58.08,0,0,1-14.11-1.84l-1.41-.38-.38-.1a22.8,22.8,0,0,0-3-.69,32.84,32.84,0,0,0-7.41-.07c.11-.58.23-1.2.35-1.89a34.19,34.19,0,0,1,7.34.13,23.12,23.12,0,0,1,2.57.56l1,.28,1,.27a56.42,56.42,0,0,0,14.11,1.88,146.07,146.07,0,0,0,21.24-1.23c1.82-.22,3.14-.36,3.95-.4C330,170.21,330.59,170.21,331.34,170.23Z" transform="translate(0 -28.99)"/><path class="cls-9" d="M352.07,171.1a50,50,0,0,1-5.35,1,83.65,83.65,0,0,1-12.5.1c-.1-.61-.21-1.24-.32-1.86h.2a84.84,84.84,0,0,0,12.38-.07,54.26,54.26,0,0,0,5.39-1C351.93,169.88,352,170.5,352.07,171.1Z" transform="translate(0 -28.99)"/></g><g class="cls-20"><path class="cls-9" d="M330.05,182.54a20.86,20.86,0,0,0-6.17-.2,41.4,41.4,0,0,0-5,1,50.12,50.12,0,0,1-11.66,1.76c-.63,0-1.29,0-2,0-5.72,0-12.5-.62-15.82-1,0-.62-.09-1.24-.15-1.87a151.13,151.13,0,0,0,17.88.95,47.72,47.72,0,0,0,11.26-1.7,42,42,0,0,1,5.26-1.08,22.17,22.17,0,0,1,6.18.12C329.88,181.16,330,181.8,330.05,182.54Z" transform="translate(0 -28.99)"/></g><g class="cls-20"><path class="cls-9" d="M331.82,193.54a15.68,15.68,0,0,0-7.44-.7c-3.3.58-12,2.12-21.75,4.22a40.43,40.43,0,0,1-8.51.85c-1.42,0-2.75-.07-3.93-.15,0-.58,0-1.2-.06-1.87a42.55,42.55,0,0,0,12.1-.63c9.76-2.11,18.53-3.66,21.84-4.23a16.83,16.83,0,0,1,7.39.47Q331.64,192.51,331.82,193.54Z" transform="translate(0 -28.99)"/></g><g class="cls-20"><path class="cls-9" d="M333.26,201.24c-4.78.11-14,.58-21.25,2.51a167.33,167.33,0,0,0-21.36,7.86c0-.59-.08-1.24-.13-2a167.06,167.06,0,0,1,21-7.69c7.33-2,16.43-2.46,21.37-2.58C333,200,333.14,200.64,333.26,201.24Z" transform="translate(0 -28.99)"/></g><g class="cls-20"><path class="cls-9" d="M335.14,210a102.58,102.58,0,0,0-21.85,2.89c-9.4,2.38-18.91,9-23.06,12.14,0-.77,0-1.54-.05-2.26,4.64-3.44,13.57-9.37,22.66-11.66a104.24,104.24,0,0,1,21.85-2.94C334.87,209,335,209.61,335.14,210Z" transform="translate(0 -28.99)"/></g><g class="cls-20"><path class="cls-9" d="M341.87,125l-5.93,1.71L335,127l-3.77,1.06a60,60,0,0,1-13.51,1.23c-2.81,0-5.9-.12-9.16-.43a34.69,34.69,0,0,1-16.82-6.09L294,122h0a33.78,33.78,0,0,0,14.77,5c11.68,1.11,20-.2,22-.74l4.61-1.3c.17,0,.33-.09.49-.15,1-.28,2-.57,2.95-.85h0C339.74,124.27,340.8,124.62,341.87,125Z" transform="translate(0 -28.99)"/></g><path class="cls-21" d="M338.83,318.08c0,4.29-1.16,10.19-.9,13-1.56,3.39-3.55,7.38-3.55,7.38s.35-3.47,1.5-14-.74-25.45-.74-25.45l-3.38,3.07a231.61,231.61,0,0,0,3.38-27.22c.92-14.76,2.47-37.83-6-45.25s-36.67,4.86-37.36,5.15A49.53,49.53,0,0,1,311,223.49c14.79-4.41,25.08-2.64,25.08-2.64s3.39,13.7,3.85,17.87-3.23,46-2.61,54.08S338.83,313.47,338.83,318.08Z" transform="translate(0 -28.99)"/><path class="cls-21" d="M311.47,314.39c.76,5.23,4,31.95,4,31.95l-.87-.5-9.69-3.59-.25,0s5.88-23,5.19-26.74S306,292.8,306,292.8l-5.88,2.6a22.39,22.39,0,0,0,3.92-7.15c1.84-5,5.31-24.34,5.53-29.81s-2.56-12.31-2.64-12.51a13.18,13.18,0,0,1,5,4.68c1.73,3,2.67,9.34,2.67,9.34s-5.1,20.76-6.18,25.53S310.71,309.17,311.47,314.39Z" transform="translate(0 -28.99)"/><path class="cls-2" d="M285.93,356.65s3.82-13.61,5-14.3,9.57-2.2,13-2.2,11.74,6.36,12.5,7.28S315,361.37,314,362.18s-1.66.5-1.66.5-5.06-4.88-10.26-6.95S285.93,356.65,285.93,356.65Z" transform="translate(0 -28.99)"/><path class="cls-22" d="M314.56,366s-1.64-10.77-1.29-12.27,7.88-5.19,12.69-5.19c6.54,0,15.24,3.35,16.47,5.89.19.4.6,10.31-.23,13.89a5,5,0,0,1-3,3.34s-7.38-10.81-13.84-10.43C322,361.46,314.56,366,314.56,366Z" transform="translate(0 -28.99)"/><path class="cls-23" d="M314.56,366s-1.58,3-1.34,3.88l.24.85a93.16,93.16,0,0,0,12.07.93,36.91,36.91,0,0,0,11.86-2.39s-5.26-8.31-12.1-8.92S314.56,366,314.56,366Z" transform="translate(0 -28.99)"/><path class="cls-23" d="M285.93,356.65s-2.76,2-5.19,3.53a3.69,3.69,0,0,0-1.73,4s9.81,1.31,16.73,0a80.18,80.18,0,0,0,13.62-4.05s-5.66-5.79-12.12-5.67A33,33,0,0,0,285.93,356.65Z" transform="translate(0 -28.99)"/><path class="cls-24" d="M319.56,296.13s7.31-1.42,10.49-7-.29-47.16-1.9-50.45-20.37.14-20.37.14,5.67,6.18,8.09,18.79C318.58,271.8,319.56,296.13,319.56,296.13Z" transform="translate(0 -28.99)"/><path class="cls-24" d="M298.69,276.55A24.49,24.49,0,0,1,286,286.33c.42-5.53,4.24-40.51,5.16-44.52a3.61,3.61,0,0,1,.4-1c3.62,1,10.56,2.25,12.24,6.25C305,249.88,303.93,268.26,298.69,276.55Z" transform="translate(0 -28.99)"/><polygon class="cls-25" points="330.05 223.35 373.46 206.67 368.98 173.45 321.3 183.8 330.05 223.35"/><polygon class="cls-9" points="330.05 223.35 327.3 223.35 319.56 182.58 367.9 172.95 368.98 173.45 321.3 183.8 330.05 223.35"/><polygon class="cls-26" points="333.57 212.6 328.07 189.4 337.6 187.62 341.03 209.54 333.57 212.6"/><polygon class="cls-27" points="368.98 201.13 370.48 200.63 368.06 182.62 366.44 183.37 368.98 201.13"/><path class="cls-28" d="M359.26,241.2a1.31,1.31,0,0,1-1.48.92s-.12,1.53-.92,1.75c-1.22.34-1.41-.29-1.41-.29a2.85,2.85,0,0,1-1,2.32,1.33,1.33,0,0,1-1.61,0,6.13,6.13,0,0,1-2.9,1.71,14,14,0,0,1-2.95,0s2.53-1.62,2.76-3.24c.32-2.36-1.51-6.38-1.51-6.38a52.49,52.49,0,0,0-1.25,7.56c-.07,2.56-3,2-3.36,2s0-.59.33-2.17.89-10.36,2.26-14.3,3.09-7.72,2.17-11-5.39-14.67-6.07-18c-.21-1.07-.54-3.26-.84-5.3h0c-.15-1.17-.31-2.28-.42-3.12l-.2-1.44,11.7-3,1.11-.27s1.21,9.62,1.21,13.63-1.9,17.62-1.9,18.86c0,.57,1.46,4.15,3,8.13h0C357.8,234.5,359.77,240,359.26,241.2Z" transform="translate(0 -28.99)"/><path class="cls-3" d="M355.93,229.61a21,21,0,0,1-3.26-6.18c-.73-2.89.93-17.92-1.41-21.49s-9.8-5.15-9.8-5.15h0c-.15-1.17-.31-2.28-.42-3.12l11.5-4.4,1.11-.27s1.21,9.62,1.21,13.63-1.9,17.62-1.9,18.86C353,222.05,354.41,225.63,355.93,229.61Z" transform="translate(0 -28.99)"/><path class="cls-9" d="M339.34,194.89c-1.67.48-3-3.55-3.27-6.68-.31-3.84-1.41-7.78-1.23-8.3s4.26-1.91,10.32-3.19,10.44-1.42,10.44-1,.86,5.58,1.15,8.57.69,5.14.29,5.89S340.32,194.6,339.34,194.89Z" transform="translate(0 -28.99)"/><path class="cls-29" d="M338.64,122.52l2,2.06A134.7,134.7,0,0,0,336,144.15C334.26,155,333.5,168,333.5,168s-2.23-16-1.6-22.33S338.64,122.52,338.64,122.52Z" transform="translate(0 -28.99)"/><path class="cls-2" d="M331.9,175.51a197.52,197.52,0,0,1-2.6-29c-.2-16.8,1.69-25.41,1.69-25.41l7.65,1.47s-3.08,14.83-4.65,25.4a86.31,86.31,0,0,0-.49,20.1Z" transform="translate(0 -28.99)"/><path class="cls-29" d="M331.89,175.07S333,180,330.6,187.59s-5,9.89-5,9.89l5.65,1.91s3.26-10.61,3.28-16A12.93,12.93,0,0,0,331.89,175.07Z" transform="translate(0 -28.99)"/><path class="cls-30" d="M123.08,233.38h3.54A148.32,148.32,0,0,0,130.24,213c1.15-11.15,1.84-19.17,1.84-19.17l-1.84-1.23Z" transform="translate(0 -28.99)"/><path class="cls-31" d="M96.58,232.12s8.66.84,15.35.77a88.84,88.84,0,0,1,11.15.49,171.51,171.51,0,0,0,5-22.32c2.31-13.93,2.16-18.47,2.16-18.47a104.42,104.42,0,0,1-13.61.93c-8.16.07-23.3,1.15-23.3,1.15Z" transform="translate(0 -28.99)"/><path class="cls-32" d="M119,193.47s-6.91,10-10.14,18.92A49.3,49.3,0,0,0,106,229.46l-9.84,1.27-3.51-11.2,6.76-15.9,10.81-9.93Z" transform="translate(0 -28.99)"/><path class="cls-33" d="M61.26,368.22v3.46s-8.15,2.61-14.53.61c-5.33-1.67-7.13-9.36-7.13-9.36Z" transform="translate(0 -28.99)"/><path class="cls-34" d="M130.72,366v2.77s-4.73,1.91-15.58,1.73a215.87,215.87,0,0,1-24.36-2.24l.09-3.18Z" transform="translate(0 -28.99)"/><path class="cls-35" d="M111.93,232.89s-3.15.42-3.84-.89-.5-6.54-1.58-7.3-1.57,1.82-1.57,1.82-.77-2.29-1.47-2.29-1.53,2.29-1.53,2.29-.72-1.55-1.44-1.48-1.64,5.15-1.64,5.15-.53-3-1.27-3.37-1.15,5.67-.71,6.82,2.18.36,2.18.36a2.13,2.13,0,0,0,1.55.69,1.9,1.9,0,0,0,1.59-1,1.61,1.61,0,0,0,1.39.73,4,4,0,0,0,1.58-1,3.28,3.28,0,0,0,2.42.77A12.58,12.58,0,0,0,111.93,232.89Z" transform="translate(0 -28.99)"/><path class="cls-9" d="M72.18,244.34s7.15,20.3,8.19,32.53-1,20.53.88,33.6,9.08,28.45,9.54,32.14-3.08,7.23-2,9.69,2,2.68,2,2.68,7.65.09,11-1.3,4.77-2.3,3.85-3.38-4.62-2.15-2.93-4.61,1.39-1.54-.46-3.54-3.61-40.37-2.92-66.21-2.52-57-2.52-57-22.32,13.89-22.7,16.43S72.18,244.34,72.18,244.34Z" transform="translate(0 -28.99)"/><path class="cls-36" d="M36.66,348.61c.3,1.23,2.76,1.38,2.46,3.23a5.39,5.39,0,0,0,.3,3.07s3.85.16,8.31,0a14.16,14.16,0,0,0,3.27-.45h0c2.14-.58,3.08-1.63,2.86-2.61-.31-1.39-1.84-2.15-.46-3.69s-.31-4.31-.15-7.23,10.15-40.6,14.6-60.29,8.92-36.29,11.69-42.75,16-14.12,16.57-14.45h0l.73-4.51-31.7-17h-9.3A24.87,24.87,0,0,1,54,209a17.92,17.92,0,0,1-1.57,2.91c-3,4.47-2.23,10.93-2.08,12.31s.85,46-.3,51.51-6.77,20.92-6.62,30.92-.92,26-1.38,30.44S36.35,347.38,36.66,348.61Z" transform="translate(0 -28.99)"/><path class="cls-37" d="M96.58,105.2s4.67,4.07,5,7.32,3.69,50.93,3.69,50.93-6.61-23.07-8.91-30.14S96.58,105.2,96.58,105.2Z" transform="translate(0 -28.99)"/><path class="cls-38" d="M80.37,98.62C77.72,96.25,62.27,92,58.75,91.4l-8.11-1.31-6.17.85s0,4-.9,6.23-3.68,5.1-4.26,8,.38,7.32.38,7.32L78.89,111,85,106.86Z" transform="translate(0 -28.99)"/><path class="cls-38" d="M98.87,210.9l5.14-1.31.77-5.39s5.69-6.11,6.16-17.76c.41-10.6-1.71-12.61-4.85-21.72s-11-25.87-11-25.87l-5.08,30Z" transform="translate(0 -28.99)"/><path class="cls-3" d="M57.54,100.05S60.3,103.8,69,105a19,19,0,0,0,11.85-2.15,24.07,24.07,0,0,1-3.21-1.52h0a8.16,8.16,0,0,1-2.37-1.86c-.25-.34-.44-.62-.61-.86v0a3.73,3.73,0,0,1-.71-1.35l-6.68-4.46-5.43-3.64s.83,4.72.52,6.71c-.18,1.13-2,2.49-3.59,3.45Z" transform="translate(0 -28.99)"/><path class="cls-7" d="M58.75,99.31a30.67,30.67,0,0,0,10.72,2.47,45,45,0,0,0,8.15-.44,8.16,8.16,0,0,1-2.37-1.86c-.25-.34-.44-.62-.61-.86v0l-7.39-5.81-5.43-3.64s.83,4.72.52,6.71C62.16,97,60.31,98.35,58.75,99.31Z" transform="translate(0 -28.99)"/><path class="cls-39" d="M54,66.83s.46,9,3.23,14.49S65.61,95,67.26,96.63c1.47,1.52,7.59,2.52,10.37,1.69,1.9-.58,13.16-10.95,14-14.3s-.26-8-.35-12.43c0-3.17,1.86-8.89,2.7-12.4v0a9.58,9.58,0,0,0,.39-2.54,1,1,0,0,0-.07-.29c-.68-1.38-7.86-13.5-25.32-14a19,19,0,0,0-5.34.54C51.88,45.94,53.17,60.7,54,66.83Z" transform="translate(0 -28.99)"/><path class="cls-3" d="M54,66.83s.46,9,3.23,14.49S65.61,95,67.26,96.63c1.47,1.52,7.59,2.52,10.37,1.69,0,0-8.58-.69-10.6-4.31s-7.15-13.72-7.46-23.16C59.39,65.38,61,53.8,68.7,53S94,59.19,94,59.19v0l1-1.91-.59-.63L88.56,50.5,63.65,42.92C51.88,45.94,53.17,60.7,54,66.83Z" transform="translate(0 -28.99)"/><path class="cls-11" d="M83.73,73.62C83.52,75,89,76.7,90.93,74.71c1-3.59-.17-7.59-2.37-8.51S84.1,71.35,83.73,73.62Z" transform="translate(0 -28.99)"/><path class="cls-11" d="M64.68,68.74c0,1.25.78,2.77,2.95,3.92s6.65.43,6.63-1.15c0-1.23-.52-7.9-4-8.88S64.67,68.16,64.68,68.74Z" transform="translate(0 -28.99)"/><ellipse class="cls-40" cx="68.99" cy="67.33" rx="5.26" ry="2.83" transform="translate(-3.73 101.63) rotate(-85.33)"/><path class="cls-2" d="M66.81,66.68c-.16,1.94.56,3.59,1.6,3.67s2-1.42,2.18-3.36S70,63.39,69,63.31,67,64.73,66.81,66.68Z" transform="translate(0 -28.99)"/><path class="cls-2" d="M74.26,71.51s.11-10.1-4.21-10.21-5.37,7.44-5.37,7.44S67.34,62,70.1,63.2,74.26,71.51,74.26,71.51Z" transform="translate(0 -28.99)"/><path class="cls-41" d="M84.24,71.32q0,.27.09.51c.35,1.7,1.31,2.91,2.44,2.91,1.44,0,2.59-2,2.59-4.38a6.14,6.14,0,0,0-.79-3.17A2.26,2.26,0,0,0,86.82,66C85.57,67.16,84.73,69.52,84.24,71.32Z" transform="translate(0 -28.99)"/><path class="cls-2" d="M85,70.35c0,1.67.8,3,1.79,3s1.79-1.36,1.79-3-.8-3-1.79-3S85,68.68,85,70.35Z" transform="translate(0 -28.99)"/><path class="cls-2" d="M83.73,73.62c.08-.24.27-.93.6-1.79.18-.47.4-1,.65-1.49a6.5,6.5,0,0,1,2.32-2.87,2.24,2.24,0,0,1,1.08-.29h.19c3.39.23,2.43,7,2.36,7.52.15-.53,2.38-8.49-2-9.43a2.35,2.35,0,0,0-2.15.69c-1.25,1.19-2.09,3.55-2.58,5.35C84,72.43,83.78,73.34,83.73,73.62Z" transform="translate(0 -28.99)"/><path class="cls-2" d="M80.83,87.78a26.68,26.68,0,0,1-7.1-3.55c-3-2.23-6.7-5.59-6.7-5.59s3.25,9.29,5.71,10.26S80.83,87.78,80.83,87.78Z" transform="translate(0 -28.99)"/><circle class="cls-11" cx="70.94" cy="39.58" r="1.47"/><circle class="cls-11" cx="89.36" cy="42.52" r="1.47"/><path class="cls-3" d="M73.6,78.29a10.92,10.92,0,0,0,4.08,2.5,16.46,16.46,0,0,0,4.26.91s-2.39,1.57-3.64,1.57S75,80.47,75,80.47a1,1,0,0,1-1.34,0C72.88,79.82,73.6,78.29,73.6,78.29Z" transform="translate(0 -28.99)"/><path class="cls-42" d="M83.91,70.76c-.69,4.24,1,8,3.87,8.51s5.68-2.6,6.37-6.85-1-8.06-3.87-8.52S84.6,66.51,83.91,70.76Z" transform="translate(0 -28.99)"/><path class="cls-2" d="M83.26,70.65c-.78,4.78,1.18,9.07,4.36,9.59s6.4-2.93,7.18-7.71-1.18-9.08-4.36-9.59S84,65.87,83.26,70.65Zm.65.1c.69-4.24,3.54-7.31,6.37-6.85s4.56,4.28,3.87,8.52-3.54,7.31-6.37,6.85S83.22,75,83.91,70.75Z" transform="translate(0 -28.99)"/><path class="cls-42" d="M63.64,67.85c-.47,4.67,2,8.74,5.53,9.1s6.77-3.14,7.25-7.81-2-8.73-5.54-9.09S64.11,63.18,63.64,67.85Z" transform="translate(0 -28.99)"/><path class="cls-2" d="M62.84,67.77C62.3,73,65.09,77.61,69.06,78s7.63-3.53,8.16-8.78S75,59.39,71,59,63.37,62.52,62.84,67.77Zm.8.08c.47-4.67,3.72-8.16,7.24-7.8s6,4.43,5.54,9.09S72.7,77.3,69.17,77,63.17,72.52,63.64,67.85Z" transform="translate(0 -28.99)"/><polygon class="cls-2" points="83.75 40.81 76.95 39.31 76.72 40.5 83.56 41.37 83.75 40.81"/><polygon class="cls-2" points="63.9 34.87 51.53 36.62 52.34 37.42 63.58 36.54 63.9 34.87"/><path class="cls-11" d="M78.89,87.45a13.22,13.22,0,0,1-4.38-.24c-2.13-.53-6.58-7.5-6.58-7.5S72.89,85,78.89,87.45Z" transform="translate(0 -28.99)"/><path class="cls-2" d="M75.76,55.88l.71-5.19L75,52.76V50.23a25,25,0,0,0-8.48,2,10.53,10.53,0,0,0-5.53,5.31l1.23,1.64a19.72,19.72,0,0,1,5.76-2.85A18.25,18.25,0,0,1,75.76,55.88Z" transform="translate(0 -28.99)"/><path class="cls-2" d="M93.56,63.49A18.4,18.4,0,0,0,89.36,59a27.64,27.64,0,0,0-3.07-2.08l.51-4.54.53,2.37.35-2.22a13.54,13.54,0,0,1,3.95,3.77,12.56,12.56,0,0,1,2.67,5.46Z" transform="translate(0 -28.99)"/><path class="cls-3" d="M55.75,70s-7.56-10.7-10.9-10.36S45.25,76.55,50.3,78s7.42-.42,7.42-.42Z" transform="translate(0 -28.99)"/><path class="cls-43" d="M48.26,49.37c0,.8,0,1.59.07,2.36a27.74,27.74,0,0,0,.32,3c.08.49.16.94.23,1.37.13.79.25,1.49.36,2.11.91,5.13,1.18,5.3,1.18,5.3S52,66.1,53.48,68.8c1.18,2.22,2.2,4.27,2.2,4.27l.81.16a90.1,90.1,0,0,1,0-14.27,22.69,22.69,0,0,1,.73-4.23,18.27,18.27,0,0,1,.58-1.81,20.56,20.56,0,0,1,2.39-4.73,13.43,13.43,0,0,1,1.38-1.77,132.91,132.91,0,0,1,22.18,5.92,42,42,0,0,1,16.57,11.52L95.73,55.2l-2.63-5L104.48,59a47.47,47.47,0,0,0-9-16.17c-.7-.82-1.45-1.64-2.26-2.44A39.66,39.66,0,0,0,85,34c-.28-.16-.56-.32-.85-.47a34.42,34.42,0,0,0-4.87-2.21,39.71,39.71,0,0,0-15.74-2.23,33.89,33.89,0,0,0-11.45,2.41,3,3,0,0,0-.54.31,4.93,4.93,0,0,0-1.16,2.14A52.14,52.14,0,0,0,48.26,49.37Z" transform="translate(0 -28.99)"/><path class="cls-7" d="M53.48,74.74a33.68,33.68,0,0,0-4-7.65c-2.77-4-4.27-4.81-4.27-4.81a54.66,54.66,0,0,1,4.14,7C51.42,73.52,53.48,74.74,53.48,74.74Z" transform="translate(0 -28.99)"/><path class="cls-7" d="M50.64,69.72s-.72,2.16-2,2.1-2.56-2.1-2.56-2.1,1.16,2.82,3.27,3.14,1.92-1.35,1.92-1.35Z" transform="translate(0 -28.99)"/><path class="cls-44" d="M61.6,46.41A113.11,113.11,0,0,1,78,42.92a98.55,98.55,0,0,1,17.48-.13c-.7-.82-1.45-1.64-2.26-2.44a81.28,81.28,0,0,0-15.54,1.07A83.05,83.05,0,0,0,61.6,46.41Z" transform="translate(0 -28.99)"/><path class="cls-44" d="M61.59,46.4C62,46,69.35,38.87,76.72,36a58.31,58.31,0,0,1,7.41-2.48,34.42,34.42,0,0,0-4.87-2.21,50.76,50.76,0,0,0-6.84,4.3C68,38.86,62,46,61.59,46.4Z" transform="translate(0 -28.99)"/><path class="cls-44" d="M50.37,33.91C51,35,52,36.7,53.48,39a21.56,21.56,0,0,0,8,7.32A18,18,0,0,1,54.81,39a39.37,39.37,0,0,1-2.74-7.5,3,3,0,0,0-.54.31A4.93,4.93,0,0,0,50.37,33.91Z" transform="translate(0 -28.99)"/><path class="cls-44" d="M48.26,49.37c0,.8,0,1.59.07,2.36a12.61,12.61,0,0,1,3.2-1.51,65.82,65.82,0,0,1,8.66-2s-5.55-.69-9.55.38A19.19,19.19,0,0,0,48.26,49.37Z" transform="translate(0 -28.99)"/><path class="cls-44" d="M48.88,56.08c.13.79.25,1.49.36,2.11A26.66,26.66,0,0,1,53.12,56a13.26,13.26,0,0,1,4.1-1.3,18.27,18.27,0,0,1,.58-1.81,34,34,0,0,0-6.27,1.79A19.3,19.3,0,0,0,48.88,56.08Z" transform="translate(0 -28.99)"/><path class="cls-45" d="M63.52,29.05A20.73,20.73,0,0,0,69,42.38c5.59,6.2,22.06,11.42,26.74,12.82l-2.63-5L104.48,59a47.47,47.47,0,0,0-9-16.17c-.7-.82-1.45-1.64-2.26-2.44A39.66,39.66,0,0,0,85,34c-.28-.16-.56-.32-.85-.47a34.42,34.42,0,0,0-4.87-2.21A39.71,39.71,0,0,0,63.52,29.05Z" transform="translate(0 -28.99)"/><path class="cls-46" d="M50.19,201c-.46,1.55,14.15,1.16,20,5.43s9.8,13.14,13.14,13.72,16-1.61,16-1.61-.35-3.46-.57-8.54-2-22.84-3-33,.81-28.37.81-38.06c0-3.76-.54-9.58-1.2-15.28h0c-1-9-2.38-17.69-2.38-17.69l-8.47-2.4h0l-6.12-1.74S78,103.4,72,103.32s-13.78-3.66-13.78-3.66l-9.21,1s3.23,47.38,4.52,59.06S50.65,199.43,50.19,201Z" transform="translate(0 -28.99)"/><path class="cls-47" d="M50.19,201c-.46,1.55,14.15,1.16,20,5.43s9.8,13.14,13.14,13.72,16-1.61,16-1.61-.35-3.46-.57-8.54-2-22.84-3-33,.81-28.37.81-38.06c0-3.76-.54-9.58-1.2-15.28h0L95,113.89l-1.92-8-8.47-2.41-6.12-1.74S78,103.4,72,103.32s-13.78-3.66-13.78-3.66l-9.21,1s3.23,47.38,4.52,59.06S50.65,199.43,50.19,201Zm8.72-1.84s8.43-1.5,12.7,0,9.45,7.73,9.45,7.73a23.18,23.18,0,0,0-10.49-10.61c-7.73-3.93-9.92-10.5-9.64-16S69,167.3,69,166.6s-1.91-5.27-2.46-9.57c-1.35-10.61-1.06-22.57,2.65-27.8,2.69-3.78,10-4.24,18.9-5a22.36,22.36,0,0,1,.79,4.18c.76,9.43,3.61,57.82,7.19,70.74s-.35,17.07-2.89,17.76-9.45-.23-16-7.26S58.91,199.13,58.91,199.13Z" transform="translate(0 -28.99)"/><path class="cls-48" d="M106.55,165.68S92,135.78,90.84,129.93s-2.43-25.72-3.33-27l-.91-1.27s8.76,2.44,10,3.53.63,24.84,3.4,35.45S106.09,163.72,106.55,165.68Z" transform="translate(0 -28.99)"/><path class="cls-49" d="M50.64,137.15c.14,3.95,0,8.13-.24,12.35-.29,4.55-.74,9.13-1.2,13.51-.1.89-.2,1.78-.29,2.64s-.17,1.54-.25,2.3c-.1,1-.21,1.94-.3,2.88h0c-.18,1.67-.33,3.27-.47,4.8-.62,6.68-.79,11.84.38,14a15.94,15.94,0,0,0,5.54,6,12.89,12.89,0,0,0,2.79,1.38s1.52-12.45,3.6-23.53a184.58,184.58,0,0,0,1.41-51.9,68.43,68.43,0,0,0-1.35-7.47A50.68,50.68,0,0,0,56,102.53c-2.88-5.56-5.66-7.82-5.66-7.82s.24,1.22.37,2.47a5,5,0,0,1-.1,2.48c-.54.77-6.6,1.77-6.14,2.13.3.23,2.54,6.59,4.24,16.64A138.55,138.55,0,0,1,50.64,137.15Z" transform="translate(0 -28.99)"/><path class="cls-50" d="M56.59,197.05l-.71,4.85s-4.92-2.77-6.23-4.85-1.4-7.38-1.4-7.38S52.13,195.28,56.59,197.05Z" transform="translate(0 -28.99)"/><path class="cls-51" d="M27.54,161.76c.12,7.84,7.38,37.72,11.07,41s13.81,6.11,13.81,6.11l2.8-3.8a65.45,65.45,0,0,0-1.42-9.35,37.06,37.06,0,0,0-2.73-8.07,34.61,34.61,0,0,1-3.19-12c-.21-2.16-3.41-13,2.52-26.14a13.84,13.84,0,0,0,1.18-4.65c1.12-4.54.11-16.28-1.62-26.36-1.59-9.33-3.79-17.23-5.46-16.7C41,102.91,27.43,153.92,27.54,161.76Z" transform="translate(0 -28.99)"/><path class="cls-52" d="M104,209.59l.77-5.39s8.62-12.68,4.23-28.14-17.13-39.71-20-45.69-8.65-31.75-8.65-31.75l6.23,3s1.55-.53,3.66,11.81,2.51,21.81,8.45,34.32,11,21.69,12.92,32.3-5.77,23.82-6.12,24.28-.86,5.21-.86,5.21Z" transform="translate(0 -28.99)"/><path class="cls-53" d="M27.54,161.76c.12,7.84,7.38,37.72,11.07,41s13.81,6.11,13.81,6.11v-.77s-8.54-8.16-11-11-9.8-30.37-9.64-35.45,8-39.82,11.07-42.29c1-.82,3.32-1,5.93-.88l1.22.06a86.5,86.5,0,0,1,10.52,1.6l-.23-5.94L60,106.51l-3.93-4-5.27-5.36h0a5,5,0,0,1-.1,2.48c-.54.77-6.6,1.77-6.14,2.13C41,102.91,27.43,153.92,27.54,161.76Z" transform="translate(0 -28.99)"/><path class="cls-52" d="M44.47,90.94S55.73,98.4,59.88,117s1,50.37-.13,56.75-3.87,28.14-3.87,28.14l1.66-.93s6.18-32.44,7.41-58.74-2.8-37.49-6-43.61A22,22,0,0,0,51.19,90Z" transform="translate(0 -28.99)"/><path class="cls-9" d="M36.66,348.61c.3,1.23,2.76,1.38,2.46,3.23a5.39,5.39,0,0,0,.3,3.07s3.85.16,8.31,0a14.16,14.16,0,0,0,3.27-.45,19.71,19.71,0,0,1-3-.08c-2.35-.25-6.76-2.77-5.15-3.85S51.26,348,51.26,348s-10.38.69-10.68-.53,1.61-3.23,2.77-4.92,3-23.69,2.76-30.61,3-28.14,4.85-29.06,2.54,8.76,4.26,6.69,2.66-45.45,10-52.6,30.23-13.33,30.95-13.53h0l-1.06-1.84-16.17-1.36-21-15.2L54,209a17.92,17.92,0,0,1-1.57,2.91c-3,4.47-2.23,10.93-2.08,12.31s.85,46-.3,51.51-6.77,20.92-6.62,30.92-.92,26-1.38,30.44S36.35,347.38,36.66,348.61Z" transform="translate(0 -28.99)"/><path class="cls-54" d="M55.22,205A19.63,19.63,0,0,0,59.65,207c3.15,1.08,10.53,8.23,10.53,8.23s-6.92,1.69-9,1.88-6.14,1.23-7.06,0-1.71-8.26-1.71-8.26Z" transform="translate(0 -28.99)"/><path class="cls-55" d="M60.48,205s-1.61,3.57-3.89,7.6-3,5.42-3,5.42,5,6.58,11,8,12.74.05,13.52-4.84-6.66-10.27-9.39-12A80.58,80.58,0,0,0,60.48,205Z" transform="translate(0 -28.99)"/><path class="cls-56" d="M90.87,365.11c.34.85,12.79,1.26,18.39,1.9,1.44.15,2.73.26,3.95.3h0c3.51.15,6.49-.09,11-.3,6.11-.3,6.46-1,6.46-1s-3.75-2.89-7.1-3.29-14-4.39-15.56-5.94c-2.72-2.71,4.49-8.54,3.34-9.22s-6.87-.74-7.62,0-.7,5.6-1.31,5.85S91.38,355,91.38,355,90.52,364.24,90.87,365.11Z" transform="translate(0 -28.99)"/><path class="cls-56" d="M39.31,361.18c-.12,2,2,6,3.81,6.64a12.07,12.07,0,0,0,2.09.44h0a77,77,0,0,0,11.24.71c4.69-.07,4.78-.76,4.78-.76s-.16-2.08-3-3.81c-1.75-1.06-3.35-3.7-4.33-5.62-.64-1.24-1-2.18-1-2.18,0-2,3.69-5.77,2.62-6.77s-7.93-.84-9.31.46,0,4.66,0,4.66l-6.31,0S39.42,359.22,39.31,361.18Z" transform="translate(0 -28.99)"/><path class="cls-3" d="M107.3,234.22s-1.27-.14-1.84-2.45a20.84,20.84,0,0,1-.58-4.5,17.2,17.2,0,0,0,0,4.15C105.17,233.46,105.14,234.14,107.3,234.22Z" transform="translate(0 -28.99)"/><path class="cls-3" d="M103.47,234.46s-1.13-.3-1.39-2.2a38.7,38.7,0,0,1-.2-4.79,23.4,23.4,0,0,0-.09,5.45A1.8,1.8,0,0,0,103.47,234.46Z" transform="translate(0 -28.99)"/><path class="cls-3" d="M100.32,234.69s-.66-.42-.92-2.33a26.45,26.45,0,0,1,.11-5.09,15,15,0,0,0-.74,4.76c.16,2,.29,2,.29,2A1.84,1.84,0,0,0,100.32,234.69Z" transform="translate(0 -28.99)"/><path class="cls-57" d="M90.87,365.11c.34.85,12.79,1.26,18.39,1.9,1.44.15,2.73.26,3.95.3-1.93-.37-14.19-2.21-12-6.78,1.91-3.92,6.81-3.73,6.81-3.73-2.72-2.71,4.49-8.54,3.34-9.22s-6.87-.74-7.62,0-.7,5.6-1.31,5.85S91.38,355,91.38,355,90.52,364.24,90.87,365.11Z" transform="translate(0 -28.99)"/><path class="cls-57" d="M39.31,361.18c-.12,2,2,6,3.81,6.64a12.07,12.07,0,0,0,2.09.44,6,6,0,0,1-1.48-.46A6,6,0,0,1,41,363.53c-.11-.93.69-4.93,4.38-4.74s8.55,0,8.55,0c-.64-1.24-1-2.18-1-2.18,0-2,3.69-5.77,2.62-6.77s-7.93-.84-9.31.46,0,4.66,0,4.66l-6.31,0S39.42,359.22,39.31,361.18Z" transform="translate(0 -28.99)"/><path class="cls-58" d="M151.47,367.22v2.94a36.28,36.28,0,0,1-11.82.4c-5.77-.92-9.63-8.36-9.63-8.36l-.31-3.13,8.09,6Z" transform="translate(0 -28.99)"/><path class="cls-59" d="M193.53,365.22v2.94a69.53,69.53,0,0,1-13.53.44c-7.71-.46-17.69-.28-17.69-.28v-3.18s10-.8,16.15-.52S193.53,365.22,193.53,365.22Z" transform="translate(0 -28.99)"/><polygon class="cls-3" points="163 330.16 163.47 326.77 169.58 326.15 171.31 330.16 163 330.16"/><polygon class="cls-3" points="130.01 327.93 130.25 326.85 135.83 325.6 136.32 327.39 135.32 331.46 132.55 331.7 130.01 327.93"/><path class="cls-23" d="M167.27,187.18a32.34,32.34,0,0,0,.18,3.8c.17.46,4.79,9,7.49,15s5.59,24.18,5,41.73-3.19,35.85-6.29,53.54-3.55,49.91-3.55,51,.15,2.8.15,2.8l-7.54.77s-9.07-32-8.91-39.52,4.61-20.46,5.84-25.84-4.46-36-4.46-36,2.92-11.77,2.61-19.8-17.8-27-17.8-27l5.5-10.64.35-8.66Z" transform="translate(0 -28.99)"/><path class="cls-60" d="M199.61,241.93c0,1-1.29,4.1-1.47,4-.87-.59.29-2.67.15-3.49a21.59,21.59,0,0,0-1.43-3.2,24.15,24.15,0,0,1,.59,3.17c0,.65-1.5,4.42-2,4.69a1.11,1.11,0,0,1-.92.09s-.77.81-.93.49,1-3.39,1-4.21a29.22,29.22,0,0,0-1.38-4.37,11.68,11.68,0,0,1,.48,3.9c-.26,1.23-1.44,4.59-1.83,4.18s.34-4.38-.22-6.57-3.29-5.93-3.29-5.93a4.17,4.17,0,0,0,0,.81,29.82,29.82,0,0,1,.58,3.76c0,1.64-1,3.55-1.54,3.07s-.09-1.29-.36-3.43-1.32-4.94-1.19-6.51a11.07,11.07,0,0,1,.85-2.58h0a5.69,5.69,0,0,0,.33-3.16c-.48-2.56-11.4-19.32-12-24.39a32.12,32.12,0,0,1,.67-8.13c1-5.36,2.81-10.77,4.36-10,1,.44,2.2,2.47,3.86,5.83.67,1.33,1.4,2.89,2.19,4.65l1,2.26c3.34,7.46,2.55,28.39,3.06,29a72.14,72.14,0,0,1,5.48,7.87C197.48,236.91,199.59,241,199.61,241.93Z" transform="translate(0 -28.99)"/><path class="cls-3" d="M186.64,229.75a5.69,5.69,0,0,0,.33-3.16c-.48-2.56-11.4-19.32-12-24.39a32.12,32.12,0,0,1,.67-8.13l8.22-4.22c.67,1.33,1.4,2.89,2.19,4.65,0,0-4.17,5.87-4.94,11.55s5.18,17,6.13,18.84S186.78,229.48,186.64,229.75Z" transform="translate(0 -28.99)"/><path class="cls-61" d="M115,182.73s1.19-5.36-1-9.36-2-3.24-3.22-5.85-.2-2.68,1.18-5.57,20.88-19.1,21.11-23.41-.19-31.08-.1-32.42,10.17-18.33,12.4-19.33,39.76-1.92,41.37,5.15-5.07,20.53-3.61,26,6.46,10.88,4.65,15.18-4.27,5.92-4.61,9.81,6.8,14.86,8.72,17.63,2.7,2.63,1.89,5.89-7.27,13-7.61,16.58-.58,5.45-.58,5.45-11.56-1.57-17.37-2.23-5.55-6.83-30.3-6.1C130,180.34,115,182.73,115,182.73Z" transform="translate(0 -28.99)"/><path class="cls-3" d="M172.16,142.89s-6.74,1.38-11.35,2.42-19-.69-19-.69-9.69,19.49-11,23.64-2.77,11-2.77,11-13.6,18.5-14.87,17.58.53-17.65,4.69-28.61,11.77-23.31,14.76-25.37,3.92-1.58,6.22-2.12c1-.22,3-.9,5.14-1.66a49.12,49.12,0,0,0,6.71-2.73c.4-.39.74-3.41.91-5,0-.56.08-.94.08-.94l5.49,1.89,2.78,1s.2,1.91.2,3c0,.22.52.64,1.33,1.15C164.61,139.43,172.16,142.89,172.16,142.89Z" transform="translate(0 -28.99)"/><path class="cls-7" d="M161.49,137.46a16.22,16.22,0,0,1-4.91,1c-3.74.42-12.59.6-12.59.6a49.12,49.12,0,0,0,6.71-2.73c.4-.39.74-3.41.91-5l5.57,1,2.78,1s.2,1.91.2,3C160.16,136.53,160.68,137,161.49,137.46Z" transform="translate(0 -28.99)"/><path class="cls-62" d="M167.45,140.65s2.36,1.17,4.71,2.24,5.14,3.29,6.18,6c1.64,4.24,2.8,21.91,3.57,27A116.73,116.73,0,0,0,185,189.14a57.34,57.34,0,0,1-7.72,4.26L174,194.79s-4.5-14.88-5.19-19.72S167.45,140.65,167.45,140.65Z" transform="translate(0 -28.99)"/><path class="cls-63" d="M176.57,123.73c-2.14,3.64-9.58,8.2-16.58,9.58h0a20.42,20.42,0,0,1-2.29.34c-5.15.46-14.28-7-17.38-12.69s-4-17.12-4-17.12,6.46-22.13,17-21.65,23.53,9.63,24.1,15.48-.56,8.86-.73,14.35S178.94,119.7,176.57,123.73Z" transform="translate(0 -28.99)"/><path class="cls-3" d="M160,133.32a20.42,20.42,0,0,1-2.29.34c-5.15.46-14.28-7-17.38-12.69s-4-17.12-4-17.12,6.46-22.13,17-21.65,23.53,9.63,24.1,15.48a38,38,0,0,0-20.39-6.35c-11.67,0-14.56,9.57-14.21,16.61s1.54,12.19,6,17.47,7.48,7.09,8.83,7.6A5.19,5.19,0,0,0,160,133.32Z" transform="translate(0 -28.99)"/><path class="cls-11" d="M151.69,122.12a31.56,31.56,0,0,0,7.28,2.22,23.64,23.64,0,0,0,5.28.16s-1.59,3.3-3.76,3.36-7-3.23-7.12-3.31S151.69,122.12,151.69,122.12Z" transform="translate(0 -28.99)"/><path class="cls-11" d="M167.45,115.75s4.2-9.46,6.38-8.73,1.95,4.49,1.95,4.49-.44,4.41-2.11,5.22S167.92,116.82,167.45,115.75Z" transform="translate(0 -28.99)"/><path class="cls-11" d="M156.58,114.4s-1.13-8.13-4.94-9.19a8.83,8.83,0,0,0-7,1.33s-.24,3.85,2.09,6.07S156.35,114.69,156.58,114.4Z" transform="translate(0 -28.99)"/><path class="cls-64" d="M153.66,108.8c0,2.38-1.55,4.32-3.47,4.32s-3.47-1.94-3.47-4.32,1.55-4.32,3.47-4.32S153.66,106.41,153.66,108.8Z" transform="translate(0 -28.99)"/><path class="cls-2" d="M152.65,108.28a2.52,2.52,0,1,1-4.92,0c0-1.69,1.1-3.07,2.46-3.07S152.65,106.59,152.65,108.28Z" transform="translate(0 -28.99)"/><path class="cls-65" d="M172.71,108.16a1.91,1.91,0,0,0-1.1-.56,1.48,1.48,0,0,0-.47,0c-.21.3-.42.62-.62,1a30.24,30.24,0,0,0-1.46,2.9c-.31.71-.58,1.39-.82,2h0c0,.21.09.4.14.58a2.69,2.69,0,0,0,2,2.09c1.53.22,3-1.51,3.39-3.88A4.83,4.83,0,0,0,172.71,108.16Z" transform="translate(0 -28.99)"/><path class="cls-2" d="M173,111.65c-.24,1.67-1.32,2.89-2.4,2.74a2,2,0,0,1-1.45-1.67,4.23,4.23,0,0,1-.11-1.25,30.24,30.24,0,0,1,1.46-2.9,1.39,1.39,0,0,1,1-.24,1.33,1.33,0,0,1,.65.27A3.31,3.31,0,0,1,173,111.65Z" transform="translate(0 -28.99)"/><path class="cls-2" d="M156.66,114.74s.19-8.08-4.35-10.19-7.38.08-8.61-.3a10.39,10.39,0,0,1-2-.85s1.23,3,2.93,3.14,4.32-1.74,7.38-.45S156.66,114.74,156.66,114.74Z" transform="translate(0 -28.99)"/><path class="cls-2" d="M143.16,104.48s1.58-.73,4.54-1.92a14.37,14.37,0,0,1,5.5-1.08,11.57,11.57,0,0,0-3.77,1.23c-1.53.92-2.5,1.46-2.5,1.46Z" transform="translate(0 -28.99)"/><path class="cls-2" d="M179.46,108.83c-.32.32-3.08,2.84-3.89,2.69s.35-5.2-2.78-3.42l-.08.06a2.94,2.94,0,0,0-.55.44,22.54,22.54,0,0,0-3,4.12c-.29.48-.56.93-.79,1.34-.51.89-.86,1.55-.93,1.69.06-.17.34-1.07.79-2.27h0c.24-.61.51-1.29.82-2a30.24,30.24,0,0,1,1.46-2.9c.2-.35.41-.67.62-1,1-1.42,2.07-2.4,3.17-2.2,1.9.34,1.67,3.75,2.36,4.21S179.2,109,179.46,108.83Z" transform="translate(0 -28.99)"/><path class="cls-2" d="M175.81,109.32a32.66,32.66,0,0,0,0-3.54,7.12,7.12,0,0,0-.43-2.38,15.75,15.75,0,0,1,1.12,3.65,7.54,7.54,0,0,1-.23,3.08Z" transform="translate(0 -28.99)"/><path class="cls-2" d="M144.78,107.55a7,7,0,0,0,1.73,4.19,8.25,8.25,0,0,0,4,2.54s-3.1-.46-4.48-1.77S144.78,107.55,144.78,107.55Z" transform="translate(0 -28.99)"/><path class="cls-2" d="M169.12,116.76a22.91,22.91,0,0,0,3.92-.4c1.23-.35,2.15-2.35,2.15-2.35s-.46,2.42-1.27,3.19S169.12,116.76,169.12,116.76Z" transform="translate(0 -28.99)"/><circle class="cls-11" cx="152.65" cy="81.93" r="1.48"/><path class="cls-11" d="M174.41,113a1.13,1.13,0,1,1-1.13-1.13A1.14,1.14,0,0,1,174.41,113Z" transform="translate(0 -28.99)"/><path class="cls-2" d="M158.47,94.38s-2.39.24-5.82.47-4.06-.43-7,.48a9.54,9.54,0,0,0-4.5,3.15s3.69-2.48,7.21-2,5.94,1.36,7.85,1.18S158.47,94.38,158.47,94.38Z" transform="translate(0 -28.99)"/><path class="cls-2" d="M171.62,96.83a18.32,18.32,0,0,0,3.76,2.83c2.33,1.32,2.93,2.08,3.25,3.87a8.45,8.45,0,0,1-.06,2.59,4.23,4.23,0,0,0-1.5-3.47c-1.67-1.26-3.09-.23-4.92-1.78S171.62,96.83,171.62,96.83Z" transform="translate(0 -28.99)"/><path class="cls-66" d="M149.65,119.56s1.24,2.56,6.09,3.31a63.23,63.23,0,0,0,11.71.23,9.11,9.11,0,0,1-5.43,2.31,22.43,22.43,0,0,1-9.37-2.42,10.25,10.25,0,0,1-3.2-3.23Z" transform="translate(0 -28.99)"/><path class="cls-67" d="M149.45,119.76s.83,1.79,2.48,4.59,4.84,5.35,7.34,5.27,3.39-1.54,4.19-2.84a11.16,11.16,0,0,1,2.14-2.39l-1.48.12a8.59,8.59,0,0,0-1.31,1.42c-.69.92-2.11,1.22-4.17.62-2.64-.78-6.48-3.93-6.48-3.93Z" transform="translate(0 -28.99)"/><path class="cls-3" d="M152.89,117.9s-1.56.62-4.06,1.47c-1.26.43-1.1,2.75-1.1,2.75a3,3,0,0,1,1.45-1.69C150.32,119.86,152.12,119,152.89,117.9Z" transform="translate(0 -28.99)"/><path class="cls-3" d="M157.8,118a19.64,19.64,0,0,0,4,1.2,17.57,17.57,0,0,0,4.67.28s-1.81,1.73-3.68,1.54a3.8,3.8,0,0,1-2.37-1.27s-.29.37-1.44.23S157.8,118,157.8,118Z" transform="translate(0 -28.99)"/><path class="cls-61" d="M134.61,107.94a20.49,20.49,0,0,1,3.33,3.93,13,13,0,0,0,2.15,2.87s0-4.28,0-6.46a14.14,14.14,0,0,1,.31-3.33Z" transform="translate(0 -28.99)"/><path class="cls-68" d="M176.15,172.42c-1,1.76-5,4.72-5.3,4.83s-3.58,9.93-3.58,9.93-7.61,1.61-11.65,1.26a66.8,66.8,0,0,1-8.07-1.26s-6.05-8.69-8.05-14.35c-.77-2.18-1.62-4.81-2.36-7.2-1.19-3.8-2.13-7-2.13-7a39.32,39.32,0,0,0,5-6.7,9.67,9.67,0,0,0,1.27-3.37,78,78,0,0,0,.39-8.64h0a58.77,58.77,0,0,0,14.94,3c7.62.34,10.79-2.24,10.79-2.24s2,6,4.41,11.66a51.33,51.33,0,0,0,3.33,6.61C178.88,164.8,177.88,169.24,176.15,172.42Z" transform="translate(0 -28.99)"/><path class="cls-68" d="M144,150.61a4,4,0,0,1,0,.5c-.65,7.27-2.74,10.7-2.74,10.7s-2.35,2.06-4.07,3.82c-.27.27-.52.54-.74.79-2.64,2.9-5.54,8.74-7.1,12.12h0c-.71,1.56-1.15,2.6-1.15,2.6a24,24,0,0,0-5.92,3.44c-4.53,3.35-9.45,10.21-9.45,10.21s.86-16.54,4.47-26.53c4.21-11.65,10.15-23,15.21-26.23,3.38-2.16,9.25-2.13,9.25-2.13h0A19.11,19.11,0,0,1,144,150.61Z" transform="translate(0 -28.99)"/><polygon class="cls-3" points="162.92 140.39 163.08 142.03 164.21 141.46 163.57 140.75 162.92 140.39"/><path class="cls-62" d="M171.86,152.31c-3.24-2.24-8.47-2.78-11.63-2.62-13.85.69-22.51,8.4-25.22,8.92-5.93,1.15-7.88,14.95-8.92,16.86s2.94,3,3.21,3.07c-.71,1.56-1.15,2.6-1.15,2.6a24,24,0,0,0-5.92,3.44c-4.53,3.35-9.65,10.21-9.65,10.21s1.06-16.54,4.67-26.53c4.21-11.65,10.15-23,15.21-26.23,3.38-2.16,9.25-2.13,9.25-2.13h0a58.77,58.77,0,0,0,14.94,3c7.62.34,10.79-2.24,10.79-2.24S169.42,146.66,171.86,152.31Z" transform="translate(0 -28.99)"/><path class="cls-69" d="M183.19,142.89s1.15,3.46,5.65,7,6.92,7.37,6.69,10.6a15.59,15.59,0,0,1-1.73,5.89s-1.16-4.76-7.27-8.18C178.71,153.84,183.19,142.89,183.19,142.89Z" transform="translate(0 -28.99)"/><path class="cls-70" d="M195,125.41c-.58,2.14-7.15,7.67-7.15,7.67s.69-2.43-2.88-6.58-8.6-6.59-6.2-13.39,7.07-17.72,5.86-21.21c-2.43-6.89-37.86-.22-37.86-.22a30.27,30.27,0,0,1-1.3,7,13.15,13.15,0,0,1-3.71,6.16c-4.62,3.8-6.68,4.18-6.68,4.18s-1.15,14.9,1.54,21.58,1.41,15.23-6.9,22.27-16.14,8.07-18.34,10.61a3.41,3.41,0,0,0,0,4.73c-.23-.12-3.2-1.71,1-8.95,4.38-7.54,6.23-24.24,6.23-41.27,0-8.69.85-14.33,2.51-18.58a27.5,27.5,0,0,1,7-9.87c6.24-6.1,26.8-18.39,41.87-18,7.05.2,20.07,21.81,20.76,25.19s-.92,14,.47,18.92S195.53,123.28,195,125.41Z" transform="translate(0 -28.99)"/><path class="cls-71" d="M147.25,91.58l3.17-.54s12.78-5.53,17.82-6.59a71.3,71.3,0,0,1,14.15-1.82l-.6-.81a54.3,54.3,0,0,0-12.06,1.38C161.39,84.91,147.25,91.58,147.25,91.58Z" transform="translate(0 -28.99)"/><path class="cls-71" d="M147.76,91.37l-1,.3s10.54-7.8,15.86-11a61.1,61.1,0,0,1,13-6L176.86,76a112,112,0,0,0-13.08,5.22C156,84.82,147.76,91.37,147.76,91.37Z" transform="translate(0 -28.99)"/><path class="cls-71" d="M151.17,75.73a43.93,43.93,0,0,0-2.23,8.11c-.37,1.88-1.09,7.64-1.09,7.64l-1.13.19s.51-4,1.09-8.47a54.65,54.65,0,0,1,1.13-6.54Z" transform="translate(0 -28.99)"/><path class="cls-71" d="M146.6,93A69.18,69.18,0,0,1,133,95.33c-7.43.46-9.75-.08-9.75-.08l-1.39,2.45a80,80,0,0,0,12.1-.87,112,112,0,0,0,12.55-3Z" transform="translate(0 -28.99)"/><path class="cls-71" d="M145.17,99.46s-8.46,5.74-17.12,11.9-9.49,6.68-9.49,6.68l0,2.64s8-5.48,14.77-10.93,11.31-8.93,11.31-8.93Z" transform="translate(0 -28.99)"/><path class="cls-71" d="M114.58,154s4.38-3.25,12.16-14.45,8.17-18.46,8.17-18.46l.1,1.39a46.33,46.33,0,0,1-8.27,18.09c-6.64,8.71-12.82,15.33-12.82,15.33Z" transform="translate(0 -28.99)"/><path class="cls-71" d="M111.34,161.17s6.85-3.58,15-12.06a39.53,39.53,0,0,0,9.86-19.35l.87,1.48a43.62,43.62,0,0,1-10,18,80.18,80.18,0,0,1-16.34,13.36Z" transform="translate(0 -28.99)"/><path class="cls-71" d="M189.4,93.82s-4,13.6-4.37,21.93,4.85,15.49,4.85,15.49l1.09-1S184.8,123,185.88,114A133.24,133.24,0,0,1,190,95Z" transform="translate(0 -28.99)"/><path class="cls-71" d="M190.86,99.9s-1.18,5.45-2.14,12.13,5.4,10.09,5.4,10.09l-.48-1s-5.07-3.93-4.46-9.29a88.82,88.82,0,0,1,1.61-9.47Z" transform="translate(0 -28.99)"/><path class="cls-71" d="M195.21,162.59s.45-5.61-3.68-9.05c-7-5.81-9-10.08-9-10.08l-.62,2.27s1.31,2.87,8.74,8c4.89,3.38,4,10.71,4,10.71Z" transform="translate(0 -28.99)"/><path class="cls-71" d="M145.69,96.43l-.27,2.3a13.15,13.15,0,0,1-3.71,6.16c-4.62,3.8-6.68,4.18-6.68,4.18s-1.15,14.9,1.54,21.58,1.41,15.23-6.9,22.27-16.14,8.07-18.34,10.61a3.41,3.41,0,0,0,0,4.73c-.23-.12-3.2-1.71,1-8.95,4.38-7.54,6.23-24.24,6.23-41.27,0-8.69.85-14.33,2.51-18.58,0,0,1.91.63,10.27.44A34.25,34.25,0,0,0,145.69,96.43Z" transform="translate(0 -28.99)"/><path class="cls-3" d="M137.94,111.87s-5.46-7.71-9.31-7.39c-2.53.21-2.54,6.46.08,10.26s5.9,6.68,8.28,6.34,2.51-1.75,2.51-1.75Z" transform="translate(0 -28.99)"/><path class="cls-7" d="M137.94,117.08a31.19,31.19,0,0,0-4.23-6.92,15.5,15.5,0,0,0-5.66-3.61,52.05,52.05,0,0,1,4.7,4.37A76.48,76.48,0,0,1,137.94,117.08Z" transform="translate(0 -28.99)"/><path class="cls-7" d="M136,113.94a3.15,3.15,0,0,1-1.13,2c-.94.61-3.56-.89-3.56-.89s2.12,1.83,3.46,2,1.76-1.76,1.76-1.76Z" transform="translate(0 -28.99)"/><path class="cls-72" d="M157.77,246.5c-.73,5-5.35,23.35-10.13,41.3-1.3,4.86-2.61,9.69-3.86,14.21-5.85,21.22-7.19,52.41-7.19,52.41l-6.34,1.42s-3.93-20.35-5.17-33.14v-.07a39.94,39.94,0,0,1-.2-8.62c1.22-7.53,4.76-19.38,5.95-26s-1-52.52,0-56.27,9.15-24,9.15-24C162.15,223,158.69,240.19,157.77,246.5Z" transform="translate(0 -28.99)"/><path class="cls-73" d="M133.17,359.38s-.46-2.39,0-2.77,3.77-.69,4.07-.77,2.53,3.23,4.38,5,8.62,3.3,9.16,4a6.14,6.14,0,0,1,.69,2.38s-8.42,1.5-14.19-.57a13.09,13.09,0,0,1-7.57-7.58l.31-2.15Z" transform="translate(0 -28.99)"/><path class="cls-74" d="M163,359.15l-.69,6a99,99,0,0,1,12,0c7.45.39,12.68.77,14.76.54s4.46-.46,4.46-.46a2.77,2.77,0,0,0-2.08-1.77c-1.69-.38-7.9-.54-11.45-2.3s-7.16-4.93-7.69-4.93-2.08.54-1.85,1.39a3.22,3.22,0,0,0,.69,1.31Z" transform="translate(0 -28.99)"/><path class="cls-75" d="M133.71,228.58a48.36,48.36,0,0,0,9.8-3.13,32.69,32.69,0,0,0,7.33-4.45l-.6,2.35a49.49,49.49,0,0,1-8.62,4,65.83,65.83,0,0,1-7.91,2.38Z" transform="translate(0 -28.99)"/><path class="cls-75" d="M135.61,229.27a175.17,175.17,0,0,0-1.9,22c0,9.69.69,30.22,0,35.41s-6.81,23.3-6.46,30.11,3.64,38.88,3.64,38.88l.93-.32s-4.27-37.37-3.65-40.91,6.54-26.22,6.69-28.06-.12-32.91-.12-36.09,2.19-21.42,2.19-21.42Z" transform="translate(0 -28.99)"/><path class="cls-75" d="M137.52,227.64s2.3-8.36,3.57-12.82,3.25-10.46,3.25-10.46l2.17-.33a98.33,98.33,0,0,0-4.23,9.62,128.44,128.44,0,0,0-3.56,14Z" transform="translate(0 -28.99)"/><path class="cls-76" d="M166.23,355.48s-8.95-35.93-7.7-44.24,4.63-19.07,5.24-24.3-6.85-35.29-6.85-35.29l.61-2.09s8,34.39,7.55,37.27-5.77,22.6-5.77,26.53,7.84,42,7.84,42Z" transform="translate(0 -28.99)"/><path class="cls-75" d="M161.91,193.13s2.13,17.07,2.3,26-7.86,34.28-7.86,34.28,9.13-28.39,9.62-33-2-25.6-2-25.6Z" transform="translate(0 -28.99)"/><polygon class="cls-77" points="165.97 172.03 161.16 122.12 129.31 126.92 137.57 176.42 165.97 172.03"/><polygon class="cls-38" points="129.31 126.92 132.32 124.96 163.39 119.89 166.61 171.45 165.97 172.03 161.16 122.12 129.31 126.92"/><path class="cls-78" d="M166.89,175.8s.66,1-.11,1.6-1.7,1.32-5.39,1.89-8.38-.42-9.19-.42-16.73,13.61-24.65,15.63-12.91,3.1-14.37,2.37c-2.41-1.21,6.42-12.69,10.74-15.4s24.63-4.39,26.93-5.59,2.89-4,4-5.12,3.73-1.39,5.58-2.5,2.22-2,2.92-1.85-.16,2.12-1.46,3.12a30,30,0,0,1-3.31,1.88,4.28,4.28,0,0,0-.62.54,13.28,13.28,0,0,0,4.89-.84c2.07-.93,1.75-2.16,1.75-2.16.58.06,1.82,1.75,1,2.73l-.81,1s1.24-.74,1.47-.45a1.61,1.61,0,0,1,.29,1.33,2.52,2.52,0,0,1-.78.69s.95-.35,1.09-.17.44,1.06.09,1.41a3.1,3.1,0,0,1-1,.55Z" transform="translate(0 -28.99)"/><path class="cls-3" d="M161.91,173.62a20.34,20.34,0,0,0,3.09-1.25,3.78,3.78,0,0,0,.88-1.14l.09.93s-.11.29-.82.67A17.92,17.92,0,0,1,161.91,173.62Z" transform="translate(0 -28.99)"/><path class="cls-3" d="M166.61,173.54a5.66,5.66,0,0,1-1.24.85,11.81,11.81,0,0,1-2,.71,10.44,10.44,0,0,0,2.25-.55A1.7,1.7,0,0,0,166.61,173.54Z" transform="translate(0 -28.99)"/><path class="cls-3" d="M166.77,175.65a12.42,12.42,0,0,1-1.59.7c-.81.27-1,.34-1,.34s1.42-.24,1.86-.39a1.45,1.45,0,0,0,.85-.65l.09-.18Z" transform="translate(0 -28.99)"/><path class="cls-79" d="M147.64,287.77v0c-1.3,4.86-2.61,9.69-3.86,14.21-5.85,21.22-7.19,52.41-7.19,52.41l-6.34,1.42s-3.93-20.35-5.17-33.14v-.07l0-.59s5.25-16.52,11.3-22.64S147.64,287.77,147.64,287.77Z" transform="translate(0 -28.99)"/><path class="cls-2" d="M205.55,205.42a135.43,135.43,0,0,0-1.18,24.74c.72,12.3,4.68,17,8.56,8.92s4-27.72,3.69-28.62-1.76-7.37-1.76-7.37l-2.58,1.23a45.7,45.7,0,0,1,1.66,18.15c-1.16,9.84-5.31,14.84-6,15.13s-1.85-9.52-1.39-18.17a125.79,125.79,0,0,1,1.27-13.32Z" transform="translate(0 -28.99)"/><path class="cls-29" d="M201.59,137.54a123.26,123.26,0,0,1-2.19,14.22c-1.27,4.81-2.87,26.74-2.43,34s4.53,20.09,7.4,20.31,11.41,0,11.41,0l15.53-20.31-1-21.92-6.54-25.53-9.23-12Z" transform="translate(0 -28.99)"/><path class="cls-2" d="M200.48,146.3s6.17,6.09,11.68,21.67a95.53,95.53,0,0,1,5.39,29.46l15.21-17.86-6-21-14-25.63-10.53,4-.8,1.89Z" transform="translate(0 -28.99)"/><path class="cls-21" d="M217.55,124.76s-7.88-4.65-9.61-4.7-7.5,4.9-7.73,5.71,6.23,5.08,6.23,5.08l1.42-.34s-4.49-4.7-3.88-5.75,4.59-2.71,5.86-2.3,4.71,5.05,4.71,5.05Z" transform="translate(0 -28.99)"/><path class="cls-21" d="M220.56,124.56s3.07-1-4.32.89c-1,.27-14.19,7.36-15.22,9.38a10.78,10.78,0,0,0-.82,4.9s6.15-4.51,9.93-4.9c13-1.36,13-8.47,13-8.47Z" transform="translate(0 -28.99)"/><path class="cls-80" d="M261,366.89l-.38,3.77s7.68,1.84,12.3.31,4-8.08,4-8.08Z" transform="translate(0 -28.99)"/><path class="cls-81" d="M222,362.89a26.63,26.63,0,0,0,.56,6c.61,2.08,5.28,3.58,8.67,3.33a18.15,18.15,0,0,0,5.71-1.33l-1-3.88Z" transform="translate(0 -28.99)"/><path class="cls-82" d="M231.19,264.69s-1.06,15.47-1.21,37.65-1.39,53.94-1.39,53.94l-.85.29h0l-3.1,1.07s-9.23-41.2-9.67-47.2,1.36-20,2-24.79c.41-3.17-.59-13.57-1.31-20.22v-.07c-.37-3.35-.65-5.73-.65-5.73Z" transform="translate(0 -28.99)"/><path class="cls-83" d="M273.65,353.21H269.5s-.86-3.08-2.23-7.84c-3.79-13.24-11.5-39.53-15.45-48.91s-8-21.43-10-27.26v0c-.7-2.13-1.11-3.42-1.11-3.42l18.31-.32s2.15,16.26,3.23,21.48,7.08,14.3,9.34,24S273.65,353.21,273.65,353.21Z" transform="translate(0 -28.99)"/><path class="cls-3" d="M231.19,264.69s-1.06,15.47-1.21,37.65-1.39,53.94-1.39,53.94l-.85.29h0s-1.65-53.93-1.06-59,2.06-16.15,0-21.69-11-10.45-11-10.45v-.07c-.37-3.35-.65-5.73-.65-5.73Z" transform="translate(0 -28.99)"/><path class="cls-3" d="M273.65,353.21l-3.91.85s-1.1-3.93-2.47-8.69c0,0,3.19-18.16,1.92-27S263.77,295.15,263,294s-1.38,3.58-2,3.23-1.47-19.15-3.77-22.84-15.35-5.19-15.35-5.19v0c-.7-2.13-1.11-3.42-1.11-3.42l18.31-.32s2.15,16.26,3.23,21.48,7.08,14.3,9.34,24S273.65,353.21,273.65,353.21Z" transform="translate(0 -28.99)"/><path class="cls-2" d="M215.54,102.33s.69,8.11,1,12.53a35.33,35.33,0,0,0,1.85,8.62s4.15,2,12.62,1.28,13.93-1.57,16-1a11.19,11.19,0,0,1,4,2.58s6.16-9.63,7.12-12.41-.28-14-.28-14l-24.86-24-14.17,5.38S214.25,98.36,215.54,102.33Z" transform="translate(0 -28.99)"/><path class="cls-3" d="M208.14,154.88S207,161.11,206.22,167A57.32,57.32,0,0,1,204,177l14.34-1.56,2-19.23-8.18-2.59Z" transform="translate(0 -28.99)"/><path class="cls-3" d="M266.88,242.79s-1.44,6.17-.8,6.34,2.23-2.71,2.61-4.27.73-2.54.73-2.54-2.59,7.56-2.31,8.14,1.45-.93,2.31-2.6,2.19-4.73,2.19-4.73l-5.13-6.57Z" transform="translate(0 -28.99)"/><path class="cls-84" d="M273.65,244.56c.08,1.3-3,8-3.69,8s.1-3.36.67-5a11.1,11.1,0,0,0,.92-3.63c-.11-.52-2.93-3.58-3.46-4.55l-.5-.94c.15.39,1.17,2.94,1.55,4.16s1.2,2.19.86,2.65-1.56-.16-3.12-2.41-4.15-6.52-4.09-7.28c0-.44.27-3.49.4-6.42a35.22,35.22,0,0,0,0-5,2.86,2.86,0,0,0-.05-.32c-.7-3.39-6.57-20.71-6.71-25.75-.16-5.23,0-17.8,0-20.67,0-2.12-1.18-11.94-1.79-16.91-.22-1.74-.37-2.89-.37-2.89h1.37c3,0,9.94.08,9.94.8,0,0-.15,6.1-.17,12.13v0c0,3.39,0,6.74.17,9,.38,6.23,2.84,14.68,3.15,21.06s-2.7,24.2-1.66,26.14S273.57,243.25,273.65,244.56Z" transform="translate(0 -28.99)"/><path class="cls-3" d="M265.58,158.35s-.15,6.1-.17,12.13v0s-5.6,9.69-7,14.91,0,15.61,2.55,22.73c1.52,4.27,2,11,2.17,15.63-.7-3.39-6.57-20.71-6.71-25.75-.16-5.23,0-17.8,0-20.67,0-2.12-1.18-11.94-1.79-16.91l1-2.9C258.64,157.55,265.58,157.63,265.58,158.35Z" transform="translate(0 -28.99)"/><path class="cls-85" d="M259.5,159.63l10.46-2.2s-5.84-17-7.77-20.14c-1.16-1.91-7.88-4.31-7.88-4.31l-1,12.23Z" transform="translate(0 -28.99)"/><path class="cls-3" d="M251.09,131.86s-1,5-6,5.12-17.74-7.7-17.74-7.7,2.94-.44,5.38-1.05A8.2,8.2,0,0,0,235.9,127a8.5,8.5,0,0,0,1.42-3.4l8.45-6.55s-1.14,8-.39,9.56a4,4,0,0,0,.72,1A43.41,43.41,0,0,0,251.09,131.86Z" transform="translate(0 -28.99)"/><path class="cls-7" d="M246.1,127.64a10.89,10.89,0,0,1-7.09,1.71,22.52,22.52,0,0,1-6.25-1.12A8.2,8.2,0,0,0,235.9,127a8.5,8.5,0,0,0,1.42-3.4l8.45-6.55s-1.14,8-.39,9.56A4,4,0,0,0,246.1,127.64Z" transform="translate(0 -28.99)"/><path class="cls-86" d="M254.07,111.22c-2.73,4.73-13.32,13-16.42,13.51a3,3,0,0,1-1.37-.17c-4.88-1.56-15.06-12.26-15.55-15.25-.55-3.31.39-9.87.72-12.77a53.94,53.94,0,0,0,.36-9.54c-.06-1-.1-1.89-.1-2.68,0-3.93,8-11.51,14.57-12.84S256.35,78.25,258.57,84,256.8,106.47,254.07,111.22Z" transform="translate(0 -28.99)"/><path class="cls-3" d="M254.07,111.22c-2.73,4.73-13.32,13-16.42,13.51a3,3,0,0,1-1.37-.17,32.84,32.84,0,0,0,14.65-15c5-10.69,3.9-20.1-1.05-24.92s-17.11-5.71-21.37-3.48a25.49,25.49,0,0,0-6.7,5.89c-.06-1-.1-1.89-.1-2.68,0-3.93,8-11.51,14.57-12.84S256.35,78.25,258.57,84,256.8,106.47,254.07,111.22Z" transform="translate(0 -28.99)"/><path class="cls-11" d="M230.08,100.34s-.83-10.85-4.23-10.68-4.4,6.88-4.4,6.88.47,3.38,3.12,4.15A9.61,9.61,0,0,0,230.08,100.34Z" transform="translate(0 -28.99)"/><path class="cls-11" d="M239.17,101.35a15.13,15.13,0,0,0,8.55-1c3.95-1.93,5-4.44,3.95-6.47s-2-5-4.79-4.65C243.26,89.66,239.17,101.35,239.17,101.35Z" transform="translate(0 -28.99)"/><path class="cls-87" d="M249.88,94.48c0,2.78-1.55,5-3.46,5s-3.46-2.26-3.46-5,1.54-5,3.46-5S249.88,91.7,249.88,94.48Z" transform="translate(0 -28.99)"/><path class="cls-2" d="M249,94.37c0,2-1.1,3.58-2.46,3.58s-2.45-1.6-2.45-3.58,1.1-3.57,2.45-3.57S249,92.4,249,94.37Z" transform="translate(0 -28.99)"/><path class="cls-88" d="M229.5,94.87a7.27,7.27,0,0,1-.14,1.42c-.41,2-1.54,3.45-2.87,3.45-1.66,0-3-2.26-3-5a8.86,8.86,0,0,1,.13-1.48v0c.38-2.06,1.53-3.54,2.88-3.54a2.5,2.5,0,0,1,2,1.31A22,22,0,0,1,229.5,94.87Z" transform="translate(0 -28.99)"/><path class="cls-2" d="M228.63,94.7c0,2-1,3.57-2.14,3.57s-2.13-1.6-2.13-3.57.95-3.58,2.13-3.58S228.63,92.72,228.63,94.7Z" transform="translate(0 -28.99)"/><path class="cls-2" d="M239.17,101.35s2.51-12,6.93-13.45S251.38,91,252.22,91a2.23,2.23,0,0,0,1.44-.59s-1.06,3.29-2,3.5c-1.29.3-2.29-4-4.9-3.69C243,90.66,239.17,101.35,239.17,101.35Z" transform="translate(0 -28.99)"/><path class="cls-2" d="M230.08,100.34c-.06-.47-.29-2.19-.72-4a22.53,22.53,0,0,0-.74-2.55h0c-.59-1.64-1.38-3-2.39-3.19l-.14,0c-.92-.1-1.73,1.24-2.48,2.69v0a13.52,13.52,0,0,1-1.83,3.22c-1.16.93-2.33-4.43-2.33-4.43s.56,1.71,1.5,1.6,1.38-5.2,5.2-5.2c1,0,1.8,1.06,2.37,2.56a22,22,0,0,1,1,3.9A47.58,47.58,0,0,1,230.08,100.34Z" transform="translate(0 -28.99)"/><path class="cls-3" d="M221.56,97.08a5.12,5.12,0,0,0,2.81,2.44c1.88.55,4.14,1.5,4.14,1.5s-3.28.56-4.54,0S221.56,97.08,221.56,97.08Z" transform="translate(0 -28.99)"/><path class="cls-3" d="M241.09,101.63s3.59-1.33,6.17-2.46a43,43,0,0,0,4.41-2.2,6.87,6.87,0,0,1-2.84,3.5C246.66,101.8,241.09,101.63,241.09,101.63Z" transform="translate(0 -28.99)"/><path class="cls-11" d="M225.61,97a1.24,1.24,0,1,1-1.24-1.23A1.24,1.24,0,0,1,225.61,97Z" transform="translate(0 -28.99)"/><path class="cls-11" d="M245.35,97.3a1.24,1.24,0,1,1-1.24-1.24A1.25,1.25,0,0,1,245.35,97.3Z" transform="translate(0 -28.99)"/><path class="cls-2" d="M242.87,79.08A21.51,21.51,0,0,1,250.44,83a11.61,11.61,0,0,1,3.78,6.21,21.26,21.26,0,0,0-4.69-4.11C246.68,83.41,243.05,82.53,242.87,79.08Z" transform="translate(0 -28.99)"/><path class="cls-2" d="M229.67,79.26a14.26,14.26,0,0,0-5.26,3.15c-2.39,2.15-2.54,6.32-2.54,6.32s1-3.06,2.92-4.27S229.56,82.19,229.67,79.26Z" transform="translate(0 -28.99)"/><path class="cls-3" d="M239.23,104.1a48.93,48.93,0,0,1-5.46,1.4,7.17,7.17,0,0,1-4.07-.32s1.71,2.83,3.41,2.79,3.65-2.29,3.65-2.29a1.69,1.69,0,0,0,1.26.37C238.83,106,239.23,104.1,239.23,104.1Z" transform="translate(0 -28.99)"/><path class="cls-2" d="M230.35,112.39a19.42,19.42,0,0,0,2.23,2.65c.69.51,2.85,2,2.85,2l4.65-1.77,2.12-3.36,2.64-3.36,0-.82s-7,4.12-9.16,4.39S230.35,112.39,230.35,112.39Z" transform="translate(0 -28.99)"/><path class="cls-89" d="M244.65,108.12s-3.8,6.26-7.93,7.67c-1.52.52-3.59-.48-4.63-1.65a25,25,0,0,1-1.62-2l-.75-.55a19.94,19.94,0,0,0,2.18,3.32c1.64,2.13,2.22,3.85,4.38,3.76s4.28-2,5.79-4.27a62.35,62.35,0,0,0,3.54-7Z" transform="translate(0 -28.99)"/><path class="cls-11" d="M231.31,113.07a10.76,10.76,0,0,0,3.14,1.36c1.07.1,2.08.14,4.74-1.5a17,17,0,0,0,4.37-4.05Z" transform="translate(0 -28.99)"/><path class="cls-90" d="M229.29,111.33a5.57,5.57,0,0,0,3.58,2.12c2.26.25,5.55-1,7.34-2.21s5.76-4.12,5.76-4.12l-.28-.19s-8.27,3.8-11.52,4.33A12.74,12.74,0,0,1,229.29,111.33Z" transform="translate(0 -28.99)"/><path class="cls-3" d="M244.62,104.93a1.9,1.9,0,0,0,.87,2,11,11,0,0,1,1.94,1.86,1.6,1.6,0,0,0,0-1.4C247.07,106.72,244.9,105.64,244.62,104.93Z" transform="translate(0 -28.99)"/><path class="cls-2" d="M252.05,78.34s-12.72-3.32-22-.88-13,13.6-13.78,17.48-1.55,20.81-1.55,20.81-.58-6.14-.88-12.26-.2-31.26,5.58-35.1S252.05,78.34,252.05,78.34Z" transform="translate(0 -28.99)"/><path class="cls-2" d="M255.69,104.34l3.83-4a15.1,15.1,0,0,0-.31-5.64A31.74,31.74,0,0,0,256,87.61s.39,6.24.39,9.47A49.66,49.66,0,0,1,255.69,104.34Z" transform="translate(0 -28.99)"/><path class="cls-91" d="M252.05,78.34s-22.39-9.62-28.57-9.07-8.95,15.11-9.39,24.1a98,98,0,0,0,0,13.21s-1.28-15.29-.2-25.8S219.62,65.4,222.17,65s22.78-2.77,27.71-1.44S262.66,72.59,266.31,78s7.53,18.75,8.3,23.26S260.56,124,260.56,124l2.32-5.78a77.72,77.72,0,0,1-6.53,7.44l-2.65,2.43-2.77-1.77s7.71-16.48,8.28-24.34-4.59-14.64-5.55-17.5A57.25,57.25,0,0,1,252.05,78.34Z" transform="translate(0 -28.99)"/><path class="cls-15" d="M251.21,78s-10.48-9.31-13.89-11.82-4.41-2.41-4.41-2.41l2.6-.22s3,1.53,9,7.06a87.12,87.12,0,0,1,7.57,7.74Z" transform="translate(0 -28.99)"/><path class="cls-15" d="M251.21,64s.84,1.62.84,5.66v8.68l.4,1.82s.52-5.3.78-8.57a33.67,33.67,0,0,0-.25-6.66Z" transform="translate(0 -28.99)"/><path class="cls-15" d="M253.23,83.13a73.9,73.9,0,0,0,11.16,5.28c6.36,2.44,7.81,3.61,7.81,3.61l.44,1.51s-.69-1.21-7.29-3.87c-5.13-2.08-11.69-5.14-11.69-5.14Z" transform="translate(0 -28.99)"/><path class="cls-15" d="M257.93,93.7a52.71,52.71,0,0,1,9.16,7.26c4.53,4.53,2.7,10.58,2.7,10.58l-1.11,1.65s1.73-7.28-2.22-11.62a30.41,30.41,0,0,0-8-6.36Z" transform="translate(0 -28.99)"/><path class="cls-3" d="M255.69,104.34a15.81,15.81,0,0,1,5.05-4.82c3.38-2,6.51-2.89,7.45-2.22s.1,6.38-1.95,9.26-6.95,6.36-8.94,6.14a4.5,4.5,0,0,1-3.08-2.22Z" transform="translate(0 -28.99)"/><path class="cls-7" d="M255.64,107.57a42.75,42.75,0,0,1,5.88-4.17,38.88,38.88,0,0,1,5.57-2.82s-3.32,2.36-6,4.24A22.73,22.73,0,0,1,255.64,107.57Z" transform="translate(0 -28.99)"/><path class="cls-7" d="M258.73,105.63s-.64,1.91,0,2.4,2.63.15,2.63.15-2.32,1.12-3.29.2a2,2,0,0,1-.8-1.71Z" transform="translate(0 -28.99)"/><path class="cls-92" d="M261,265.28a154.74,154.74,0,0,1-21.55.41h0c-1.53-.09-3-.23-4.51-.4-11.54-1.42-22.46-6.74-22.46-6.74s-3.07-42.36-3.07-45.59,14.91-27.69,16.14-31.67.62-12.92,0-14.31-3.38-6.61-4.45-10.15a20.55,20.55,0,0,1,.06-5.77v0c.74-7.73,3-20.1,3.28-21.89l0-.22h5.15s5.78,4.69,10.62,5.15,9.88-3,9.88-3l4.23,1.88s.53,5.34,1.32,9.67a22.94,22.94,0,0,0,1.22,4.63c1.43,3.12,4.81,11.89,3.95,15a8.74,8.74,0,0,1-1,2h0c-.77,1.26-1.86,2.75-2.88,4.12l0,0a34.73,34.73,0,0,0-2.7,3.85c-.57,1.39-2.54,12.73-2.65,19.11s.93,10.67.93,14.18-.58,3.39,0,5.81,6,21.68,7.15,33S261,265.28,261,265.28Z" transform="translate(0 -28.99)"/><path class="cls-93" d="M224.21,358.59c.39-.94-3.12-7.65-2-8.61s7.38,0,8,.88-.81,5.28-.7,6.79,6.35,9.36,6.35,9.36-3.12,1.49-8.42.8-5-2.65-5.43-4.15S224.21,358.59,224.21,358.59Z" transform="translate(0 -28.99)"/><path class="cls-94" d="M267.46,356.22c.81-1.71-2.42-7.28-1.61-7.67s6-.33,6.45.42-.28,3.95-.11,4.24,1.46,0,1.46,0a61.87,61.87,0,0,1,3.15,7.24c.64,2.24-.15,6.17-1.69,7.09s-12.84.31-13.61-.62,3-3,4.31-5.46A17.4,17.4,0,0,0,267.46,356.22Z" transform="translate(0 -28.99)"/><path class="cls-95" d="M223.5,366.58a13.65,13.65,0,0,1,5.93-2.05c3.6-.41,5.3,1,5.3,1l1.13,1.46s-2.19,2-7,1.38S223.5,366.58,223.5,366.58Z" transform="translate(0 -28.99)"/><path class="cls-96" d="M263.46,364.22a10.07,10.07,0,0,1,6.6,0c3.74,1.23,5.05,3.32,5.05,3.32s-1.42,1.1-7.46,1-6.61-1.61-6.61-1.61A3.31,3.31,0,0,1,263.46,364.22Z" transform="translate(0 -28.99)"/><path class="cls-85" d="M259.79,164.3h0l-2.88,4.12,0,0-2.7,3.85s-16.47-2.25-19,0-7,15.29-8.09,21.17-.11,11.77-2.3,14.18-7.27,15.47-8,23.31,1.61,17.87,5.65,23.07,16.55,11.45,16.94,11.64c-1.53-.09-3-.23-4.51-.4-11.54-1.42-22.46-6.74-22.46-6.74s-3.07-42.36-3.07-45.59,14.91-27.69,16.14-31.67.62-12.92,0-14.31-3.38-6.61-4.45-10.15a20.55,20.55,0,0,1,.06-5.77v0l3.28-21.89,0-.22h5.15s5.78,4.69,10.62,5.15,9.88-3,9.88-3l4.23,1.88,1.33,9.67h0c-.44,0-15.26,0-21.17,2.08s-5.07,9.22-4.5,13.82,5.54,5.75,12.63,5.75Z" transform="translate(0 -28.99)"/><path class="cls-85" d="M251.63,195.7s.63,6.73,0,10.41-2.25,9-2.25,9a13.43,13.43,0,0,0,3.39-4.68C253.53,208.09,251.63,195.7,251.63,195.7Z" transform="translate(0 -28.99)"/><path class="cls-97" d="M231.79,128.46s4.67,4,9.52,3.51a18.62,18.62,0,0,0,7.27-2.06l3.57,2.11s-5.62,3.41-11.69,2.71-11.72-5.65-11.72-5.65Z" transform="translate(0 -28.99)"/><path class="cls-98" d="M260.65,158.55s2.66-.43,4.93-1a21,21,0,0,0,3.93-1.4l.45,1.28a25.76,25.76,0,0,1-5.62,3,18.07,18.07,0,0,1-3.41.63Z" transform="translate(0 -28.99)"/><path class="cls-99" d="M224.44,128.91s-5.92.6-9,2.46c-4.58,2.77-11.07,23.51-11.07,23.51s7.9-.27,12.23.59l6.88,1.38S227.32,131.06,224.44,128.91Z" transform="translate(0 -28.99)"/><path class="cls-100" d="M205,152.88a63,63,0,0,0,8.45,1.33,77.62,77.62,0,0,0,10.34.23l-.42,2.82a77.88,77.88,0,0,1-9.45-.66c-4.59-.64-9.57-1.72-9.57-1.72Z" transform="translate(0 -28.99)"/><path class="cls-101" d="M212.28,256.35A79.58,79.58,0,0,0,237,263.52a116.32,116.32,0,0,0,23.92,0l.05,1.76a105.82,105.82,0,0,1-24.89.63,71.94,71.94,0,0,1-23.8-6.69Z" transform="translate(0 -28.99)"/><path class="cls-2" d="M217.86,132.26a74.22,74.22,0,0,1,4.35,18.52c.85,9.68-3.25,23.29-3.25,23.29v4.21s6-16,7.95-25.43-3.48-25.36-3.48-25.36Z" transform="translate(0 -28.99)"/><path class="cls-7" d="M221.2,122.7a6.17,6.17,0,0,1,2.37-.91c.93,0,0,2.35,0,2.35S221.25,124,221.2,122.7Z" transform="translate(0 -28.99)"/><path class="cls-102" d="M226.09,131.52a1.17,1.17,0,0,1-1.19-.81c-.41-1.48.23-3.61-.5-3.19a2.55,2.55,0,0,0-.48.39s0,0,0,0a21.91,21.91,0,0,0-2.76,3.28c-.47.78-.16,4.08-.47,6.23s-1.61,4.38-1.77,5.07-.35,35.57-.92,39.73-6.57,13.52-10.61,13.79c-1.66.11-2.75-2.18-3.37-5.31-1-5-.72-12.23.37-15,1.77-4.56,11.22-31,10.57-34.85s-5.26-10.9-5-11.37,4.54-8.4,5.92-9.09a27.18,27.18,0,0,1,7.23-1.29c.33.08-.55.67-1.61,1.25l0,0c-.69.38-1.45.75-2,1a5.45,5.45,0,0,0-2.34,2.16s2.52-1.32,3.44-1.2.8,1.2.8,1.2a2.23,2.23,0,0,1,2,.12,1.51,1.51,0,0,1,.69,1.19,6,6,0,0,1,2,.42C226.83,125.64,226.07,131.49,226.09,131.52Z" transform="translate(0 -28.99)"/><path class="cls-3" d="M223.9,127.93a21.91,21.91,0,0,0-2.76,3.28c-.47.78-.16,4.08-.47,6.23s-1.61,4.38-1.77,5.07-.35,35.57-.92,39.73-6.57,13.52-10.61,13.79c-1.66.11-2.75-2.18-3.37-5.31l0-.46s10.08-3.14,11-8.14,2-37.45,2.27-38.14.84-1.84,1.77-4,.49-8.27.49-8.84S223.58,128.11,223.9,127.93Z" transform="translate(0 -28.99)"/><polygon class="cls-3" points="224.84 95.92 219.71 98.03 223.9 95.53 224.84 95.92"/><polygon class="cls-3" points="221.97 94.38 218.59 96.07 221.36 94.24 221.97 94.38"/><path class="cls-3" d="M221.52,120.33l0,0c-.69.38-1.45.75-2,1a5.45,5.45,0,0,0-2.34,2.16l-2.19,1.55a25.26,25.26,0,0,1,3-3.51A15.29,15.29,0,0,1,221.52,120.33Z" transform="translate(0 -28.99)"/><path class="cls-3" d="M218.32,288.29a22.92,22.92,0,0,0,1.5,5.88,16.88,16.88,0,0,0,2.42,3.58s-3-.12-3.92-2.19S218.32,288.29,218.32,288.29Z" transform="translate(0 -28.99)"/></svg>