<svg width="616" height="600" viewBox="0 0 616 600" fill="none" xmlns="http://www.w3.org/2000/svg">
<g clip-path="url(#clip0)">
<path d="M67.3837 478.013H48.1343V496.762H67.3837V478.013Z" fill="#CACAF6" fill-opacity="0.35"/>
<path d="M432.157 455.067L422.533 436.318C421.508 434.343 419.805 432.781 417.72 431.902L353.812 404.978L348.67 389.447C365.319 376.338 375.372 354.595 375.372 328.012V309.262V253.014C375.372 250.527 374.356 248.144 372.552 246.386C354.574 231.572 331.525 223.896 307.999 224.89C284.472 223.896 261.425 231.572 243.446 246.386C241.641 248.144 240.626 250.527 240.626 253.014V309.262V328.012C240.626 354.587 250.673 376.325 267.313 389.435L262.166 404.978L198.325 431.902C196.24 432.781 194.538 434.343 193.513 436.318L183.888 455.067C183.222 456.369 182.876 457.803 182.878 459.258V599.878H202.127V461.47L209.153 447.745L267.106 423.308L298.374 453.764V506.131H317.623V453.764L348.888 423.311L406.835 447.745L413.87 461.47V599.878H433.12V459.258C433.137 457.807 432.807 456.373 432.157 455.067ZM259.875 257.383C273.986 247.89 290.86 243.071 307.999 243.639C325.139 243.07 342.011 247.888 356.122 257.383V298.534C351.31 297.301 346.498 294.956 346.498 290.513C346.498 285.336 342.188 281.138 336.873 281.138H279.125C273.809 281.138 269.5 285.336 269.5 290.513C269.5 294.956 264.688 297.3 259.875 298.534V257.383ZM308 436.627L280.696 410.032L284.365 398.943C291.596 401.59 299.522 403.009 307.999 403.009C316.471 403.009 324.392 401.591 331.62 398.948L335.296 410.04L308 436.627ZM307.999 384.26C272.484 384.26 259.875 353.961 259.875 328.012V317.756C271.448 316.681 281.667 309.95 286.998 299.888H329C334.331 309.95 344.55 316.681 356.122 317.756V328.012C356.122 353.961 343.514 384.26 307.999 384.26Z" fill="#AAAAFF"/>
<path d="M250.253 543.636H231.004V599.884H250.253V543.636Z" fill="#CACAF6"/>
<path d="M384.999 543.636H365.749V599.884H384.999V543.636Z" fill="#CACAF6"/>
<path d="M421.638 144.342L315.766 3.72156C315.329 3.19657 314.837 2.71729 314.297 2.29074C310.007 -1.09704 303.71 -0.457218 300.232 3.72156L194.36 144.342C193.145 145.953 192.49 147.902 192.493 149.903C192.499 155.08 196.812 159.273 202.127 159.267H240.626V196.766H259.875V149.892C259.875 144.715 255.566 140.517 250.251 140.517H221.126L307.999 25.124L394.871 140.517H365.747C360.432 140.517 356.122 144.715 356.122 149.892V196.766H375.372V159.267H413.87C415.924 159.269 417.924 158.632 419.579 157.448C423.863 154.382 424.785 148.515 421.638 144.342Z" fill="#AAAAFF"/>
<path d="M614.132 275.588L508.26 134.968C507.823 134.443 507.331 133.963 506.791 133.537C502.501 130.149 496.204 130.789 492.726 134.968L386.854 275.588C385.639 277.2 384.984 279.148 384.987 281.149C384.993 286.326 389.306 290.519 394.621 290.514H433.12V356.137H452.369V281.139C452.369 275.962 448.06 271.765 442.745 271.765H413.62L500.493 156.371L587.365 271.765H558.241H500.493V290.514H548.616V459.259H567.866V290.514H606.364C608.418 290.516 610.418 289.879 612.073 288.695C616.357 285.629 617.279 279.761 614.132 275.588Z" fill="#CACAF6" fill-opacity="0.85"/>
<path d="M229.145 275.588L123.273 134.968C122.836 134.443 122.344 133.963 121.804 133.537C117.514 130.149 111.217 130.789 107.739 134.968L1.8672 275.588C0.65208 277.2 -0.00239956 279.148 6.61096e-06 281.149C0.00602205 286.326 4.31909 290.519 9.63433 290.514H48.1331V459.259H67.3825V290.514H115.506V271.765H57.7578H28.6323L115.505 156.371L202.379 271.763H173.254C167.939 271.763 163.63 275.961 163.63 281.138V356.136H182.879V290.513H221.378C223.431 290.515 225.431 289.878 227.086 288.694C231.371 285.629 232.292 279.761 229.145 275.588Z" fill="#CACAF6" fill-opacity="0.9"/>
<path d="M182.88 374.891H163.631V393.641H182.88V374.891Z" fill="#CACAF6" fill-opacity="0.7"/>
<path d="M452.372 374.891H433.122V393.641H452.372V374.891Z" fill="#CACAF6" fill-opacity="0.7"/>
<path d="M567.868 478.013H548.619V496.762H567.868V478.013Z" fill="#CACAF6" fill-opacity="0.35"/>
</g>
<defs>
<clipPath id="clip0">
<rect width="616" height="600" fill="white"/>
</clipPath>
</defs>
</svg>
