<svg width="650" height="610" viewBox="0 0 650 610" fill="none" xmlns="http://www.w3.org/2000/svg">
<path d="M596.172 219.219H226.484C223.791 219.219 221.207 220.223 219.303 222.01C217.398 223.798 216.328 226.222 216.328 228.75V383.156C216.328 385.684 217.398 388.108 219.303 389.896C221.207 391.683 223.791 392.688 226.484 392.688H596.172C598.866 392.688 601.449 391.683 603.353 389.896C605.258 388.108 606.328 385.684 606.328 383.156V228.75C606.328 226.222 605.258 223.798 603.353 222.01C601.449 220.223 598.866 219.219 596.172 219.219ZM448.094 312.434L383.094 350.559C381.863 351.272 380.453 351.663 379.008 351.693C377.563 351.723 376.135 351.39 374.872 350.73C373.61 350.07 372.558 349.105 371.825 347.936C371.092 346.766 370.705 345.435 370.703 344.078V267.828C370.705 266.472 371.092 265.14 371.825 263.971C372.558 262.801 373.61 261.837 374.872 261.176C376.135 260.516 377.563 260.183 379.008 260.213C380.453 260.243 381.863 260.635 383.094 261.347L448.094 299.472C449.27 300.156 450.24 301.11 450.913 302.244C451.585 303.378 451.939 304.655 451.939 305.953C451.939 307.251 451.585 308.528 450.913 309.662C450.24 310.796 449.27 311.751 448.094 312.434Z" fill="#CACAF6" fill-opacity="0.65"/>
<path d="M570.781 499.628C578.917 493.839 584.911 485.799 587.917 476.642C590.923 467.485 590.79 457.673 587.536 448.591C584.282 439.509 578.072 431.615 569.781 426.023C561.491 420.43 551.538 417.422 541.328 417.422C531.118 417.422 521.166 420.43 512.875 426.023C504.585 431.615 498.374 439.509 495.12 448.591C491.866 457.673 491.733 467.485 494.739 476.642C497.745 485.799 503.739 493.839 511.875 499.628C496.511 505.945 483.951 517.059 476.328 531.081C468.706 517.059 456.146 505.945 440.781 499.628C448.917 493.839 454.911 485.799 457.917 476.642C460.923 467.485 460.79 457.673 457.536 448.591C454.282 439.509 448.072 431.615 439.781 426.023C431.491 420.43 421.538 417.422 411.328 417.422C401.118 417.422 391.166 420.43 382.875 426.023C374.585 431.615 368.374 439.509 365.12 448.591C361.866 457.673 361.733 467.485 364.739 476.642C367.745 485.799 373.739 493.839 381.875 499.628C366.511 505.945 353.951 517.059 346.328 531.081C338.706 517.059 326.146 505.945 310.781 499.628C318.917 493.839 324.911 485.799 327.917 476.642C330.923 467.485 330.79 457.673 327.536 448.591C324.282 439.509 318.072 431.615 309.781 426.023C301.491 420.43 291.538 417.422 281.328 417.422C271.118 417.422 261.166 420.43 252.875 426.023C244.585 431.615 238.374 439.509 235.12 448.591C231.866 457.673 231.733 467.485 234.739 476.642C237.745 485.799 243.739 493.839 251.875 499.628C238.895 504.975 227.853 513.753 220.098 524.889C212.343 536.026 208.21 549.04 208.203 562.344V592.844C208.203 593.845 208.413 594.837 208.822 595.762C209.23 596.687 209.828 597.527 210.583 598.235C211.337 598.943 212.233 599.505 213.219 599.888C214.205 600.272 215.261 600.469 216.328 600.469H606.328C608.483 600.469 610.55 599.665 612.073 598.235C613.597 596.805 614.453 594.866 614.453 592.844V562.344C614.446 549.04 610.313 536.026 602.558 524.889C594.803 513.753 583.762 504.975 570.781 499.628Z" fill="#CACAF6" fill-opacity="0.65"/>
<path d="M512.891 200.156H409.602C405.989 179.745 396.515 160.644 382.199 144.908C367.883 129.172 349.266 117.397 328.352 110.848C338.027 103.352 345.001 93.235 348.321 81.8798C351.64 70.5246 351.144 58.4845 346.9 47.4038C342.655 36.3231 334.87 26.742 324.606 19.969C314.343 13.1961 302.102 9.5614 289.555 9.5614C277.008 9.5614 264.767 13.1961 254.503 19.969C244.24 26.742 236.454 36.3231 232.21 47.4038C227.965 58.4845 227.469 70.5246 230.789 81.8798C234.109 93.235 241.082 103.352 250.758 110.848C229.801 117.358 211.146 129.133 196.821 144.896C182.497 160.658 173.05 179.804 169.508 200.252H96.8906C98.5156 176.233 105.828 114.47 139.344 105.987C141.611 111.275 145.51 115.806 150.541 118.999C155.572 122.191 161.505 123.9 167.578 123.906H187.891C195.971 123.906 203.721 120.894 209.435 115.531C215.149 110.169 218.359 102.896 218.359 95.3125C218.359 87.729 215.149 80.456 209.435 75.0937C203.721 69.7313 195.971 66.7187 187.891 66.7187H167.578C161.17 66.7432 154.934 68.663 149.756 72.2051C144.577 75.7471 140.721 80.7311 138.734 86.4484C86.8359 94.2641 77.7969 172.23 76.4766 200.156H66.3203C62.6522 199.842 58.954 200.209 55.437 201.236C51.9201 202.263 48.6534 203.931 45.8238 206.144C42.9941 208.357 40.6569 211.072 38.9458 214.133C37.2347 217.194 36.1833 220.542 35.8516 223.984V252.578C36.5983 259.501 40.207 265.874 45.9032 270.329C51.5995 274.783 58.9294 276.965 66.3203 276.406H76.4766V457.5C76.4766 465.084 79.6867 472.356 85.4007 477.719C91.1147 483.081 98.8645 486.094 106.945 486.094H472.57C480.651 486.094 488.401 483.081 494.115 477.719C499.829 472.356 503.039 465.084 503.039 457.5V276.406H513.195C520.586 276.965 527.916 274.783 533.612 270.329C539.309 265.874 542.917 259.501 543.664 252.578V223.984C543.334 220.515 542.273 217.142 540.542 214.061C538.812 210.98 536.447 208.251 533.584 206.035C530.721 203.818 527.418 202.157 523.865 201.148C520.313 200.139 516.583 199.802 512.891 200.156ZM167.578 85.7812H187.891C190.584 85.7812 193.168 86.7854 195.072 88.5729C196.977 90.3603 198.047 92.7846 198.047 95.3125C198.047 97.8403 196.977 100.265 195.072 102.052C193.168 103.84 190.584 104.844 187.891 104.844H167.578C164.885 104.844 162.301 103.84 160.397 102.052C158.492 100.265 157.422 97.8403 157.422 95.3125C157.422 92.7846 158.492 90.3603 160.397 88.5729C162.301 86.7854 164.885 85.7812 167.578 85.7812ZM248.828 66.7187C248.828 59.1783 251.211 51.8072 255.675 45.5376C260.139 39.268 266.483 34.3814 273.907 31.4958C281.33 28.6102 289.498 27.8552 297.379 29.3263C305.259 30.7974 312.498 34.4284 318.179 39.7603C323.861 45.0922 327.73 51.8854 329.298 59.2809C330.865 66.6764 330.061 74.3421 326.986 81.3085C323.911 88.275 318.704 94.2293 312.023 98.4185C305.342 102.608 297.488 104.844 289.453 104.844C278.679 104.844 268.346 100.827 260.727 93.6772C253.108 86.5274 248.828 76.8301 248.828 66.7187ZM289.453 123.906C312.866 123.902 335.562 131.489 353.7 145.384C371.837 159.279 384.302 178.628 388.984 200.156H189.922C194.479 178.57 206.909 159.148 225.074 145.232C243.24 131.316 266.004 123.775 289.453 123.906ZM482.422 457.5C482.422 460.028 481.352 462.452 479.447 464.24C477.543 466.027 474.959 467.031 472.266 467.031H106.641C103.947 467.031 101.364 466.027 99.4591 464.24C97.5544 462.452 96.4844 460.028 96.4844 457.5V276.406H482.422V457.5ZM523.047 252.578C523.047 254.198 519.086 257.344 512.891 257.344H66.0156C59.8203 257.344 55.8594 254.198 55.8594 252.578V223.984C55.8594 222.269 59.7188 219.219 66.0156 219.219H512.891C519.188 219.219 523.047 222.269 523.047 223.984V252.578Z" fill="#AAAAFF" fill-opacity="0.65"/>
<path d="M167.578 428.906H411.328C419.409 428.906 427.159 425.894 432.873 420.531C438.587 415.169 441.797 407.896 441.797 400.312V343.125C441.797 335.541 438.587 328.269 432.873 322.906C427.159 317.544 419.409 314.531 411.328 314.531H167.578C159.497 314.531 151.747 317.544 146.033 322.906C140.319 328.269 137.109 335.541 137.109 343.125V400.312C137.109 407.896 140.319 415.169 146.033 420.531C151.747 425.894 159.497 428.906 167.578 428.906ZM157.422 343.125C157.422 340.597 158.492 338.173 160.397 336.385C162.301 334.598 164.885 333.594 167.578 333.594H411.328C414.022 333.594 416.605 334.598 418.51 336.385C420.414 338.173 421.484 340.597 421.484 343.125V400.312C421.484 402.84 420.414 405.265 418.51 407.052C416.605 408.84 414.022 409.844 411.328 409.844H167.578C164.885 409.844 162.301 408.84 160.397 407.052C158.492 405.265 157.422 402.84 157.422 400.312V343.125Z" fill="#AAAAFF" fill-opacity="0.65"/>
</svg>
