<svg width="746" height="621" viewBox="0 0 746 621" fill="none" xmlns="http://www.w3.org/2000/svg">
<path d="M289.477 142.208L279.745 199.112C277.275 213.549 295.262 224.433 310.997 218.015L373 192.724L435.003 218.015C450.731 224.432 468.725 213.554 466.255 199.112L456.521 142.208L504.575 100.934C516.765 90.4635 509.899 72.8563 492.637 70.3493L424.619 60.4717L392.315 9.67198C384.121 -3.21473 361.883 -3.21958 353.685 9.67198L321.38 60.4717L253.361 70.3493C236.106 72.8551 229.227 90.4598 241.424 100.934L289.477 142.208ZM339.441 94.7849C346.096 93.8183 351.84 90.3446 355 85.3743L373 57.0708L391 85.3743C394.16 90.3446 399.904 93.8183 406.559 94.7849L444.457 100.289L417.683 123.285C412.982 127.323 410.787 132.944 411.74 138.511L417.163 170.217L382.618 156.126C376.561 153.655 369.464 153.647 363.385 156.126L328.84 170.217L334.263 138.511C335.216 132.944 333.021 127.323 328.32 123.285L301.546 100.289L339.441 94.7849Z" fill="#CACAF6"/>
<path d="M727.894 200.566L678.421 193.382L654.926 156.433C646.731 143.548 624.493 143.54 616.295 156.433L592.801 193.381L543.328 200.564C526.073 203.07 519.194 220.675 531.391 231.149L566.341 261.169L559.262 302.557C556.782 317.052 574.843 327.855 590.514 321.459L635.612 303.065L680.709 321.459C696.44 327.875 714.431 316.998 711.962 302.557L704.882 261.169L739.833 231.149C752.022 220.68 745.155 203.073 727.894 200.566ZM666.041 242.247C661.339 246.285 659.145 251.906 660.098 257.473L662.866 273.662C647.425 267.829 643.732 264.61 635.61 264.61C627.495 264.61 623.817 267.82 608.354 273.662L611.122 257.473C612.075 251.906 609.881 246.285 605.179 242.247L591.508 230.505L610.859 227.695C617.514 226.728 623.258 223.255 626.419 218.284L635.609 203.833L644.799 218.286C647.96 223.256 653.703 226.73 660.359 227.696L679.709 230.507L666.041 242.247Z" fill="#CACAF6"/>
<path d="M186.74 302.558L179.66 261.17L214.611 231.151C226.801 220.68 219.934 203.073 202.673 200.566L153.201 193.382L129.707 156.434C121.512 143.548 99.2742 143.54 91.0756 156.434L67.58 193.383L18.1075 200.567C0.852179 203.073 -6.02633 220.677 6.17024 231.152L41.1208 261.171L34.0413 302.559C31.5731 316.994 49.5612 327.882 65.294 321.462L110.391 303.068L155.488 321.462C171.112 327.835 189.222 317.075 186.74 302.558ZM140.821 242.247C136.119 246.285 133.925 251.906 134.878 257.473L137.646 273.662L120.007 266.467C113.942 263.993 106.84 263.993 100.775 266.467L83.135 273.662L85.9033 257.473C86.8561 251.906 84.6619 246.285 79.9602 242.247L66.2891 230.505L85.6396 227.695C92.2951 226.728 98.0387 223.255 101.199 218.284L110.39 203.832L119.579 218.283C122.739 223.254 128.484 226.728 135.14 227.694L154.49 230.504L140.821 242.247Z" fill="#CACAF6"/>
<path d="M463.545 480.346C488.539 460.458 504.13 432.446 504.13 401.459C504.13 393.202 504.13 327.882 504.13 319.635C504.13 284.498 469.79 255.911 427.581 255.911H318.418C276.208 255.911 241.868 284.497 241.868 319.635V401.459C241.868 432.445 257.46 460.456 282.453 480.345C220.937 496.852 176.303 544.958 176.303 601.587V602.8C176.303 612.847 186.088 620.993 198.158 620.993C210.228 620.993 220.013 612.847 220.013 602.8V601.587C220.013 568.417 241.459 539.35 273.405 523.455C284.526 553.064 314.232 575.888 351.095 582.451V602.8C351.095 612.847 360.881 620.993 372.95 620.993C385.02 620.993 394.805 612.847 394.805 602.8V582.44C431.671 575.858 461.369 553.015 472.468 523.394C504.481 539.276 525.984 568.374 525.984 601.586V602.798C525.984 612.846 535.769 620.991 547.839 620.991C559.909 620.991 569.694 612.846 569.694 602.798V601.586C569.695 544.959 525.061 496.854 463.545 480.346ZM285.58 387.778C301.656 396.777 320.52 401.606 340.283 401.604C341.854 401.604 342.308 401.585 351.563 401.456C363.515 401.287 373.085 393.156 373.045 383.205L372.974 365.073H460.42V401.46C460.42 441.588 421.203 474.233 373 474.233C324.796 474.233 285.58 441.587 285.58 401.46V387.778ZM318.419 292.3H427.582C445.69 292.3 460.422 304.563 460.422 319.636V328.687H351.047C345.238 328.687 339.668 330.612 335.567 334.037C325.854 342.148 330.314 351.472 329.261 364.295C304.843 360.146 285.581 342.078 285.581 319.636C285.58 304.563 300.312 292.3 318.419 292.3ZM372.945 547.994C372.939 547.994 372.933 547.994 372.926 547.994C345.318 547.994 321.984 532.524 314.734 511.451C327.894 509.986 328.717 510.892 416.709 510.621C421.597 510.621 426.402 510.916 431.121 511.437C423.883 532.509 400.553 547.986 372.945 547.994Z" fill="#CACAF6"/>
</svg>
