<svg id="Layer_1" data-name="Layer 1" xmlns="http://www.w3.org/2000/svg" viewBox="0 0 465.86 141.17"><defs><style>.cls-1,.cls-5{fill:#fa1915;}.cls-2{fill:#83858c;}.cls-3,.cls-4{fill:#fff;}.cls-4,.cls-5{isolation:isolate;font-family:Helvetica-Bold, Helvetica;font-weight:700;}.cls-4{font-size:85.44px;}.cls-5{font-size:30.41px;}</style></defs><path class="cls-1" d="M79.06,1a15.84,15.84,0,0,1,10-.29,17.36,17.36,0,0,1,8,4.88,22.7,22.7,0,0,1,4.3,7.67,18.86,18.86,0,0,1-.68,12l-.45,1.07L98.49,26c-6.81-1.52-19.43-7.31-26-11.92-2.35-1.65-3.19-2.4-3.19-2.85a15.48,15.48,0,0,1,2.13-4.31A14.86,14.86,0,0,1,76,2.55,15.54,15.54,0,0,1,79.06,1Z" transform="translate(0 0)"/><path class="cls-1" d="M69.5,14.21c4.41,4.43,14.68,9.68,26.42,13.5,2,.66,2.81,1,2.72,1.15a16.43,16.43,0,0,1-2.72,2.87,16.83,16.83,0,0,1-5.25,2.92c-.92.29-1.07.29-2.49-.2a76.56,76.56,0,0,1-16.1-7.76l-1.79-1.14-.51-1.1a19.48,19.48,0,0,1-1.41-9.21,8.14,8.14,0,0,1,.26-1.76C68.72,13.46,69.08,13.78,69.5,14.21Z" transform="translate(0 0)"/><path class="cls-2" d="M58.32,33c.85-.07,1.71.32,6.35,2.89,2.44,1.34,4.9,2.63,5.46,2.86,1.19.46,1.64.86,1.65,1.48s-1,2.61-3.15,5.67c-1.16,1.65-2.25,3.23-2.4,3.48a2.29,2.29,0,0,1-2.06,1.08c-.6,0-6.29-3-10.22-5.38-1.91-1.13-2.13-1.91-1.15-4,1.25-2.65,3-6.18,3.25-6.65A4,4,0,0,1,58.32,33Z" transform="translate(0 0)"/><path class="cls-3" d="M70.09,27.6A80,80,0,0,0,86.4,35.83a19.26,19.26,0,0,1,2.48,1c0,.08-2.38,4.81-2.58,5a5.62,5.62,0,0,1-1.76-.67,46.17,46.17,0,0,0-6.87-2.83c-1.88-.36-3.4,0-4.33,1.15l-.48.57-.3-.64c-.38-.84-1.08-1.3-2.89-2a12.8,12.8,0,0,1-2.27-1.09c-.83-.52-.85-.56-.76-.93.18-.61,2.79-8.08,2.86-8.12A3.08,3.08,0,0,1,70.09,27.6Z" transform="translate(0 0)"/><path class="cls-2" d="M50.72,45.19a3.28,3.28,0,0,1,1.21.11c.28.11,2.62,1.44,5.19,3,6.41,3.78,6.14,3.62,6.26,4.19s-.49,1.48-3,4.86a9.94,9.94,0,0,0-1.24,2.14c-.32,1-.19,1.32,1.59,3.31a19.2,19.2,0,0,1,1.6,2c.34.61.62,1.82.42,1.93s-1.7-.27-3.87-1.27c-1.35-.6-2.85-1.23-3.34-1.37A49.2,49.2,0,0,1,50,61c-4.14-2.46-4.73-2.85-5.16-3.49a3.23,3.23,0,0,1-.57-2.65,81.38,81.38,0,0,1,4.24-8.39A2.87,2.87,0,0,1,50.72,45.19Z" transform="translate(0 0)"/><path class="cls-2" d="M76.17,39.29c1.89-.09,4.07.74,10.75,4.17,4,2,12.47,7.63,13.72,9.06a2.36,2.36,0,0,1,.75,1.52,45.73,45.73,0,0,1-.38,8.35c-1,9.32-1.1,10.87-1.11,15a107.19,107.19,0,0,1-.55,10.75c-.19,2.1-.33,4.22-.31,4.71v.92L103,98.68c4,4.89,8.47,10.73,10.43,13.47a30,30,0,0,1,3.41,6l.06.54L102,127.44c-8.18,4.8-15,8.69-15,8.66a4.4,4.4,0,0,1-.87-1.1,24.24,24.24,0,0,0-1.5-2,68.58,68.58,0,0,1-4.4-7.37c-3.53-6.3-7.17-12.19-8.2-13.28a5.59,5.59,0,0,0-1.78-1A18.51,18.51,0,0,1,67.42,110a17.07,17.07,0,0,0-2.88-1.33,9.71,9.71,0,0,1-2-.83q-2.62-2.53-5-5.32c-.23-.3.25-1.4,3-6.92l.89-1.76.52.1c.62.1.78-.07.77-.81A3.86,3.86,0,0,1,63,91.72c.18-.43.76-2.36,1.26-4.26a25.84,25.84,0,0,1,1.39-4.2c.7-1.16,4-4.57,7.91-8.15,2.81-2.61,3-2.75,3.29-2.27S77,74.43,76,81.62c-1,6.74-1,6.3.21,12.71.26,1.45.54,3.09.61,3.64s.24,1.5.36,2.13a4.88,4.88,0,0,1-.1,2.4,17.51,17.51,0,0,1-.54,1.74,1.25,1.25,0,0,0-.16.6,7.88,7.88,0,0,0,2.9.24,2.36,2.36,0,0,1,1.12,0l.54.18,2.23,4c1.23,2.19,3.32,6.12,4.65,8.75,2.2,4.35,2.44,4.77,2.77,4.87s.34.07.22-.29-.64-1.41-1.27-2.64-1.27-2.62-1.43-3-.79-1.87-1.42-3.16a80.82,80.82,0,0,1-3.67-9,10.65,10.65,0,0,0-.69-1.72c-.64-1.14-.58-1.23,1.69-2.72A9.22,9.22,0,0,0,86,98.92c0-.07-.36-.06-.72,0a13.53,13.53,0,0,1-4.4,0c-1.52-.21-3-.66-3.18-1-.51-.91.7-25.33,1.45-28.82.19-.93.54-1.51,1.9-3.12a20.44,20.44,0,0,0,1.77-2.46,10.31,10.31,0,0,1,1.61-2c1-.89,1.52-1.63,1.4-1.85a2.26,2.26,0,0,0-1,.08,2.66,2.66,0,0,1-2.09-.34,7.25,7.25,0,0,1-4.06-4.53c-.5-1.36-.77-.79-2.11,4.59l-.83,3.32-1.39.71C72,64.71,66.57,66,65,65.63c-1.13-.23-3.07-2.18-4.24-4.27-.54-1-.6-1.17-.49-1.59.31-1.1,5.3-8.53,9.59-14.28,2.24-3,2.3-3.06,2.36-2.69s.07.25.36-.21a9.4,9.4,0,0,0,.51-1,9,9,0,0,1,1.74-2.14A5.71,5.71,0,0,1,76.17,39.29Z" transform="translate(0 0)"/><path class="cls-2" d="M46.49,61.1a2.7,2.7,0,0,1,1.49,0c1,.31,20.07,9.95,20.71,10.47a3.83,3.83,0,0,1,1.21,2.71c0,.66-.25,1.15-2.25,4.3A22.18,22.18,0,0,1,65,82.41a3.3,3.3,0,0,1-2.28.39c-.88-.22-18.39-7.8-19-8.23a3.8,3.8,0,0,1-1.4-2.6,64,64,0,0,1,2.35-9.55A3,3,0,0,1,46.49,61.1Z" transform="translate(0 0)"/><path class="cls-2" d="M43.18,76.27c2.39.81,19.74,7.92,20.08,8.23a2.22,2.22,0,0,1,.53.85,36.5,36.5,0,0,1-1.35,6.7,1.74,1.74,0,0,1-1.61.82c-.32,0-5.08-1.27-10.56-2.8-10.56-2.93-10.78-3-11-4.15a26.85,26.85,0,0,1,.7-4.07C41,76.9,41.72,75.78,43.18,76.27Z" transform="translate(0 0)"/><path class="cls-2" d="M69.72,66.33c4.54-1.13,6.14-1.69,6.65-2.38a3.38,3.38,0,0,0,.33-1.53c0-1,.11-1.2.54-1.51a1,1,0,0,1,1.05-.18c1.25.37,1.12,1.48-.55,5.07a34.5,34.5,0,0,1-3.31,5.71A11.14,11.14,0,0,1,72,70.73c-1.2-.48-3.07-1.2-4.11-1.6C65.85,68.36,65,68,65,67.7S64.62,67.61,69.72,66.33Z" transform="translate(0 0)"/><path class="cls-3" d="M51.39,91.41c2.67.74,5.77,1.63,6.87,2,2,.6,2,.64,1.83,1-.29.6-3.71,7.34-5.27,10.41A14.37,14.37,0,0,1,53,107.89c-1.41.84-5.62-.4-8.42-2.47-1.51-1.11-2.4-2.32-2.35-3.15,0-.34,4.12-12.09,4.23-12.15S48.72,90.67,51.39,91.41Z" transform="translate(0 0)"/><path class="cls-3" d="M43.37,105.84a13.15,13.15,0,0,0,5.91,3,6.7,6.7,0,0,1,1.25.3,8.35,8.35,0,0,1-.65,1.61c-.82,1.7-1.39,2.21-2.42,2.18a14.55,14.55,0,0,1-2.83-1.17c-3.62-1.83-3.74-2.21-2-6l.21-.47Z" transform="translate(0 0)"/><path class="cls-3" d="M31.15,30.12a62.49,62.49,0,0,1,20-11.66L52.44,18c.45-.15.89-.32,1.35-.44.92-.26,1.82-.54,2.73-.77s1.83-.46,2.75-.64,1.84-.37,2.77-.5l1.38-.2a23.27,23.27,0,0,1,2.65-10.3,57.71,57.71,0,0,0-5.83,1.14c-1.06.25-2.1.58-3.15.86S55,7.83,54,8.15c-.51.16-1,.39-1.52.58L51,9.35c-.51.19-1,.44-1.49.66L48,10.69c-.5.22-1,.5-1.45.75l-1.44.77c-.48.24-.94.55-1.4.82l-1.39.84c-.92.58-1.8,1.21-2.7,1.81S37.86,17,37,17.63a63.2,63.2,0,0,0-9.21,9,66,66,0,0,0-6.06,8.58c.49,1.07,1,2.2,1.41,3.38A60.54,60.54,0,0,1,31.15,30.12Z" transform="translate(0 0)"/><path class="cls-3" d="M140.19,59.73a68.83,68.83,0,0,0-3.91-13.18,68.11,68.11,0,0,0-6.42-12.07A69.16,69.16,0,0,0,121.24,24a67.9,67.9,0,0,0-13.52-10.46c.08.81.13,1.63.13,2.46a23.29,23.29,0,0,1-2.38,10.3,57.5,57.5,0,0,1,7.19,6.49,58.58,58.58,0,0,1,6.77,8.83,61.81,61.81,0,0,1,5.49,53.81c-.32.89-.7,1.74-1,2.62s-.78,1.71-1.16,2.57-.85,1.68-1.27,2.52-.93,1.64-1.39,2.46a59.15,59.15,0,0,1-6.71,9.1,55.51,55.51,0,0,1-18.12,13.4l-1.3.57c-.44.19-.87.4-1.31.56l-1.33.5c-.44.16-.88.35-1.34.48-.9.27-1.8.59-2.71.83l-1.37.35c-.46.13-.92.24-1.39.33a53.51,53.51,0,0,1-11.28,1.21,61.36,61.36,0,0,1-11.31-1.06c-.93-.16-1.85-.39-2.78-.58s-1.84-.49-2.77-.71c-.46-.11-.91-.27-1.37-.41l-1.39-.45c-.46-.13-.9-.32-1.35-.48l-1.35-.48a64.53,64.53,0,0,1-19.86-12,62.3,62.3,0,0,1-5.95-6.1c-.4,1.41-.83,2.76-1.28,4.06A65.24,65.24,0,0,0,27.88,120a60.08,60.08,0,0,0,20.28,15.59l1.47.66c.5.21,1,.45,1.49.63l1.51.58c.51.18,1,.4,1.52.55l1.54.49c.52.16,1,.34,1.55.46,1,.26,2.09.56,3.14.79a62.22,62.22,0,0,0,12.83,1.38,69.34,69.34,0,0,0,25.33-4.86c1-.39,2-.85,3-1.28s2-1,2.94-1.43a31.65,31.65,0,0,0,2.88-1.57c1-.57,1.87-1.15,2.81-1.72a69.56,69.56,0,0,0,10.37-8.21,68.07,68.07,0,0,0,19.41-35,72.1,72.1,0,0,0,1.47-13.66A71.13,71.13,0,0,0,140.19,59.73Z" transform="translate(0 0)"/><polygon class="cls-1" points="15.49 81.07 9.88 79.99 5.83 84.14 5.09 78.31 0 75.63 5.16 73.11 6.07 67.3 10 71.57 15.64 70.66 12.91 75.83 15.49 81.07"/><polygon class="cls-1" points="22.29 106.7 17.56 106.12 13.93 109.77 13.57 105 9.36 103.06 13.86 100.7 14.89 95.86 18.04 99.17 22.88 98.11 20.33 102.52 22.29 106.7"/><polygon class="cls-1" points="20.13 53.3 15.41 52.72 11.78 56.37 11.41 51.6 7.21 49.66 11.71 47.3 12.74 42.46 15.89 45.77 20.73 44.7 18.17 49.12 20.13 53.3"/><text class="cls-4" transform="translate(141.43 86.63) scale(1.02 1)">Brilliant</text><text class="cls-5" transform="translate(158.03 116.48) scale(0.9 1)">Speakers International</text></svg>