<svg width="650" height="610" viewBox="0 0 650 610" fill="none" xmlns="http://www.w3.org/2000/svg">
<path d="M548.011 340.081H470.317C457.621 340.081 447.336 349.738 447.336 361.648V448.89C447.336 436.981 437.046 427.324 424.356 427.324H346.657C333.961 427.324 323.676 436.976 323.676 448.89V506.408C323.676 494.499 313.386 484.842 300.696 484.842H222.996C210.301 484.842 200.016 494.499 200.016 506.408V559.952C200.016 548.042 189.726 538.385 177.03 538.385H99.336C86.6456 538.385 76.3555 548.038 76.3555 559.952V600.892H570.997V361.648C570.997 349.738 560.706 340.081 548.011 340.081Z" fill="#DADAF8"/>
<path d="M480.904 349.189C475.539 349.189 471.195 345.112 471.195 340.081V9.10774C471.195 4.07684 475.539 0 480.904 0C486.265 0 490.609 4.07684 490.609 9.10774V340.081C490.609 345.112 486.26 349.189 480.904 349.189Z" fill="#DADAF8"/>
<path d="M200.016 600.892H76.3555V559.952C76.3555 548.042 86.6456 538.385 99.336 538.385H177.035C189.726 538.385 200.016 548.038 200.016 559.952V600.892Z" fill="#DADAF8"/>
<path d="M323.676 600.892H200.016V506.408C200.016 494.499 210.306 484.842 222.996 484.842H300.695C313.386 484.842 323.676 494.499 323.676 506.408V600.892Z" fill="#CACAF6"/>
<path d="M447.336 600.892H323.676V448.89C323.676 436.981 333.961 427.324 346.656 427.324H424.356C437.046 427.324 447.336 436.976 447.336 448.89V600.892Z" fill="#AAAAFF"/>
<path d="M570.996 600.892H447.336V361.648C447.336 349.738 457.621 340.081 470.317 340.081H548.011C560.706 340.081 570.996 349.738 570.996 361.648V600.892Z" fill="#6597EF"/>
<path d="M605.269 610H43.9823C38.6215 610 34.2773 605.923 34.2773 600.892C34.2773 595.861 38.6215 591.785 43.9823 591.785H605.269C610.63 591.785 614.974 595.861 614.974 600.892C614.974 605.923 610.63 610 605.269 610Z" fill="#6597EF"/>
<path d="M480.904 95.7034H605.284C609.137 95.7034 610.937 91.2263 608.046 88.8389L575.737 62.1346C573.843 60.5755 573.843 57.8111 575.737 56.2474L608.046 29.5478C610.937 27.1557 609.137 22.6786 605.284 22.6786H480.904V95.7034Z" fill="#C12900" fill-opacity="0.65"/>
<path d="M490.808 129.877L356.069 198.555C344.048 204.685 340.76 215.454 336.565 229.327L309.771 318.259L345.159 329.666L375.434 293.002L400.919 220.694L468.725 182.029C487.673 171.227 496.684 149.94 490.808 129.877Z" fill="#6597EF"/>
<path d="M490.808 129.877L475.261 137.803C472.642 150.359 464.559 161.701 452.335 168.672L390.549 203.903C386.661 206.118 383.741 209.567 382.307 213.62L373.485 238.654C364.316 264.669 343.487 285.626 316.47 296.018L309.771 318.259L375.434 293.007L400.919 220.699L468.725 182.029C487.673 171.227 496.684 149.94 490.808 129.877Z" fill="#7A7ADF" fill-opacity="0.65"/>
<path d="M375.434 293.002L414.234 336.042C420.666 344.033 426.26 349.65 425.099 358.441L416.024 427.287H392.345L386.156 368.103C385.779 364.519 383.364 361.415 379.843 359.991L309.771 318.259L375.434 293.002Z" fill="#AFB3BC"/>
<path d="M309.77 318.259L305.987 383.512C305.739 388.924 306.547 392.582 304.291 396.608L259.609 484.842H284.727L351.908 401.08C355.836 396.79 356.292 390.963 357.616 385.601L375.429 293.002L309.77 318.259Z" fill="#999DAA"/>
<path d="M370.619 143.965L381.638 164.153C386.815 173.638 382.818 185.273 372.707 190.132L364.192 194.222C354.08 199.081 341.687 195.33 336.51 185.841L325.491 165.652C320.314 156.163 324.311 144.532 334.422 139.674L342.937 135.583C353.044 130.724 365.437 134.475 370.619 143.965Z" fill="#F37958" fill-opacity="0.65"/>
</svg>
