<svg width="650" height="610" viewBox="0 0 650 610" fill="none" xmlns="http://www.w3.org/2000/svg">
<path d="M71.0938 562.344H50.7812V543.281H71.0938V562.344ZM111.719 543.281H91.4062V562.344H111.719V543.281ZM152.344 543.281H132.031V562.344H152.344V543.281ZM192.969 543.281H172.656V562.344H192.969V543.281ZM375.781 524.219H396.094V505.156H375.781V524.219ZM457.031 524.219H477.344V505.156H457.031V524.219ZM416.406 524.219H436.719V505.156H416.406V524.219ZM497.656 524.219H517.969V505.156H497.656V524.219ZM639.844 352.656V409.844C639.844 420.357 630.734 428.906 619.531 428.906H436.719C425.516 428.906 416.406 420.357 416.406 409.844V390.781H294.531V495.625C294.531 500.877 299.091 505.156 304.688 505.156H335.156V486.094C335.156 475.581 344.266 467.031 355.469 467.031H538.281C549.484 467.031 558.594 475.581 558.594 486.094V543.281C558.594 553.794 549.484 562.344 538.281 562.344H355.469C344.266 562.344 335.156 553.794 335.156 543.281V524.219H304.688C287.889 524.219 274.219 511.39 274.219 495.625V467.031H142.188C136.591 467.031 132.031 471.311 132.031 476.562V505.156H213.281C224.484 505.156 233.594 513.706 233.594 524.219V581.406C233.594 591.919 224.484 600.469 213.281 600.469H30.4688C19.2664 600.469 10.1562 591.919 10.1562 581.406V524.219C10.1562 513.706 19.2664 505.156 30.4688 505.156H111.719V476.562C111.719 460.798 125.389 447.969 142.188 447.969H274.219V390.781H192.969C176.17 390.781 162.5 377.952 162.5 362.188V314.045C77.6344 309.089 10.1562 242.904 10.1562 162.031C10.1562 77.9466 83.0578 9.53125 172.656 9.53125C258.832 9.53125 329.357 72.8569 334.638 152.5H471.057L501.526 95.3125H635.954L600.407 162.031L635.954 228.75H501.536L471.067 171.562H334.638C329.57 248.032 264.296 309.289 182.812 314.045V362.188C182.812 367.439 187.373 371.719 192.969 371.719H416.406V352.656C416.406 342.143 425.516 333.594 436.719 333.594H619.531C630.734 333.594 639.844 342.143 639.844 352.656ZM493.777 152.5H548.438V171.562H493.777L514.089 209.688H603.098L577.708 162.031L603.098 114.375H514.089L493.777 152.5ZM172.656 295.469C247.63 295.469 309.085 240.693 314.326 171.562H294.013C288.823 230.17 236.427 276.406 172.656 276.406C105.452 276.406 50.7812 225.1 50.7812 162.031C50.7812 98.963 105.452 47.6562 172.656 47.6562C236.427 47.6562 288.823 93.8923 294.013 152.5H314.326C309.085 83.3698 247.63 28.5938 172.656 28.5938C94.25 28.5938 30.4688 88.45 30.4688 162.031C30.4688 235.613 94.25 295.469 172.656 295.469ZM273.701 152.5C268.592 104.405 225.235 66.7188 172.656 66.7188C116.655 66.7188 71.0938 109.476 71.0938 162.031C71.0938 214.587 116.655 257.344 172.656 257.344C225.235 257.344 268.592 219.657 273.701 171.562H232.67C227.815 198.565 202.79 219.219 172.646 219.219C139.039 219.219 111.709 193.57 111.709 162.031C111.709 130.492 139.039 104.844 172.646 104.844C202.78 104.844 227.805 125.498 232.67 152.5H273.701ZM172.656 171.562V152.5H211.839C207.299 136.106 191.527 123.906 172.656 123.906C150.252 123.906 132.031 141.005 132.031 162.031C132.031 183.057 150.252 200.156 172.656 200.156C191.527 200.156 207.299 187.956 211.839 171.562H172.656ZM213.281 524.219H30.4688V581.406H213.291L213.281 524.219ZM355.469 543.281H538.291L538.281 486.094H355.469V543.281ZM619.541 409.844L619.531 352.656H436.719V409.844H619.541ZM497.656 390.781H517.969V371.719H497.656V390.781ZM538.281 390.781H558.594V371.719H538.281V390.781ZM457.031 390.781H477.344V371.719H457.031V390.781ZM578.906 390.781H599.219V371.719H578.906V390.781Z" fill="url(#paint0_linear)"/>
<defs>
<linearGradient id="paint0_linear" x1="325" y1="600.469" x2="325" y2="9.53125" gradientUnits="userSpaceOnUse">
<stop stop-color="#4A75DD" stop-opacity="0.65"/>
<stop offset="1" stop-color="#CACAF6" stop-opacity="0.65"/>
</linearGradient>
</defs>
</svg>
