<svg width="750" height="584" viewBox="0 0 750 584" fill="none" xmlns="http://www.w3.org/2000/svg">
<g clip-path="url(#clip0)">
<g opacity="0.5">
<path opacity="0.5" d="M123.765 379.745C115.912 378.257 110.966 372.441 108.878 365.656L117.905 365.506C117.905 365.506 117.62 296.378 116.861 278.078C116.695 273.971 114.169 265.513 109.424 262.443C106.488 260.803 103.274 259.686 99.9346 259.143C99.9535 257.56 99.3993 256.02 98.3689 254.793C96.1863 252.22 94.8104 249.739 92.9125 248.77C89.5912 247.12 80.4578 247.778 79.236 247.847C79.236 247.847 57.3988 231.451 54.635 228.428C53.1048 226.731 50.7206 218.227 48.5144 210.139C48.4716 201.614 47.5858 193.113 45.8692 184.754L46.9487 185.389C46.9271 183.661 46.5814 181.952 45.9286 180.346C45.1799 180.149 44.4498 179.89 43.746 179.573C44.4637 175.407 45.6326 171.327 47.2333 167.4C49.8624 167.789 52.5226 167.943 55.1806 167.861C56.3668 167.861 58.5849 166.834 58.7391 160.881C59.5077 158.732 60.0676 156.519 60.4116 154.269C62.1553 153.542 63.4007 152.423 63.3889 151.292C63.4416 151.119 63.4416 150.934 63.3889 150.761C62.0841 149.03 60.6607 143.376 59.9727 142.084C59.9669 142.042 59.9669 141.999 59.9727 141.957C60.9258 138.727 61.0359 135.316 60.293 132.034C60.8899 132.118 61.4978 132.091 62.0841 131.953C66.2357 129.98 65.9866 127.569 65.9866 127.569C65.9866 127.569 63.1398 128.492 59.4034 122.734C55.3823 116.595 45.4541 116.145 37.8271 115.811C28.9308 115.372 27.5312 122.653 25.0639 125.353C21.5054 129.299 16.8438 134.169 21.6715 147.276C25.7519 158.365 23.854 163.246 23.854 163.246C25.0591 162.997 26.2474 162.677 27.4125 162.288C26.9143 163.373 26.3687 164.446 25.8231 165.519C25.2889 164.973 24.8448 164.351 24.5064 163.673C24.5064 163.673 21.4699 165.161 22.3713 166.604C22.4095 166.641 22.4416 166.684 22.4662 166.731C17.4132 172.846 13.226 176.123 9.86917 180.877C5.59898 178.177 -0.10647 177.335 -7.75723 176.331C-19.9747 174.738 -24.2686 179.965 -24.5059 189.473L-18.0294 276.151C-18.089 278.593 -17.5227 281.011 -16.3817 283.186C-15.2407 285.362 -13.5608 287.227 -11.4936 288.613L-11.6241 303.982H-11.4581L-22.9757 401.299H-19.7612L0.403584 303.982L8.63556 305.298L1.58975 380.876H4.82797L18.718 306.856L53.9352 312.44L64.7411 406.861H69.9128L69.0825 387.891C71.4548 388.768 74.1948 390.487 76.413 394.711C82.3438 405.949 98.2621 405.453 100.717 404.888C103.173 404.322 106.387 400.757 101.05 395.749C98.2466 393.123 95.5898 390.354 93.0904 387.453C95.1188 387.107 98.2147 386.299 100.207 386.472C103.766 386.864 109.044 391.907 113.445 392.184C119.728 392.53 126.03 391.958 132.139 390.487C132.139 390.487 138.414 382.549 123.765 379.745ZM94.8222 257.62C95.0508 257.836 95.2537 258.076 95.4272 258.336L94.9527 258.255C94.8341 258.024 94.7155 257.805 94.6206 257.597C94.557 257.468 94.4816 257.344 94.3952 257.228L94.8222 257.62ZM91.2637 257.747L89.6031 257.54C89.6452 257.513 89.6779 257.474 89.697 257.429C89.716 257.383 89.7205 257.333 89.7099 257.286C89.6174 257.124 89.497 256.98 89.354 256.859C90.0241 257.099 90.6744 257.388 91.2993 257.724L91.2637 257.747ZM65.7612 311.886L73.2459 307.375C70.5001 318.787 68.4406 330.345 67.0779 341.991L65.7612 311.886ZM68.0149 363.083L68.7385 363.302C68.525 363.81 68.3115 364.341 68.098 364.872L68.0149 363.083ZM89.5438 373.468C89.188 375.891 88.5237 378.083 88.073 380.033C87.7266 379.303 87.4985 378.524 87.3968 377.726C87.3057 374.862 87.3769 371.997 87.6104 369.141L90.1132 369.903C89.8878 371.033 89.698 372.199 89.5201 373.422L89.5438 373.468Z" fill="#4A75DD"/>
<path opacity="0.5" d="M318.687 297.417C315.757 298.363 304.453 299.609 302.614 299.055C300.776 298.502 300.242 296.171 298.593 296.136C298.309 295.617 298 295.098 297.704 294.578L298.712 293.909C298.712 293.909 275.736 230.124 267.219 223.108C265.796 221.954 262.759 221.724 258.916 222.104C258.976 222.104 259.07 222.047 259.106 221.989C259.735 221.239 258.133 220.489 256.734 219.924L255.69 218.954C256.947 219.335 258.205 220.108 258.62 219.647C259.533 218.654 255.702 217.143 254.943 216.889C253.265 216.59 251.54 216.653 249.89 217.074C249.558 217.17 249.234 217.285 248.917 217.42C248.075 217.593 247.173 217.766 246.248 217.927C242.618 215.262 237.364 211.327 235.11 209.273C234.529 208.743 231.374 199.085 228.8 186.496C228.267 183.507 227.392 180.584 226.19 177.785C226.154 177.54 226.078 177.302 225.965 177.081C223.901 174.623 221.457 172.246 219.203 169.731V169.638C219.203 169.638 216.333 165.6 214.981 163.869C214.963 163.838 214.939 163.81 214.91 163.788C214.744 163.513 214.536 163.264 214.293 163.05C214.293 163.05 214.364 163.35 214.494 163.834C214.43 164.095 214.394 164.362 214.388 164.631C214.35 165.165 214.109 165.667 213.712 166.038L213.451 165.427C213.569 163.604 214.251 161.858 215.408 160.419C216.44 160.258 217.413 159.841 218.231 159.207C221.789 157.188 223.047 151.846 224.09 146.515C224.474 144.147 224.7 141.757 224.767 139.361L225.443 138.865C225.743 135.864 225.743 132.842 225.443 129.842C225.312 128.815 225.122 127.661 224.933 126.842C224.802 124.026 223.225 120.461 221.647 120.068C221.647 120.126 221.647 120.149 221.647 120.207L219.974 119.053C219.873 118.99 219.766 118.936 219.654 118.892C217.851 117.091 215.775 117.068 216.096 114.899C215.334 115.205 214.671 115.703 214.174 116.341C214.305 116.099 214.435 115.891 214.601 115.58C214.767 115.268 212.798 115.88 210.639 116.803L210.165 116.688L210.319 116.941C208.125 117.899 205.859 119.076 205.503 119.688C205.503 118.141 210.782 115.765 210.782 115.765C204.851 118.361 198.576 117.98 197.793 119.988C196.085 120.957 193.642 126.057 192.598 128.572C191.554 131.088 192.064 134.422 192.811 137.423C193.096 140.792 194.816 148.177 194.579 150.115C194.496 150.796 193.938 152.78 193.393 152.63C194.423 153.326 195.56 153.86 196.761 154.211L195.812 155.573C195.812 154.915 195.907 154.534 195.907 154.534L192.989 158.077C192.503 158.619 192.017 159.138 191.566 159.611L190.854 159.254V160.292C186.287 164.757 182.658 166.5 176.62 172.523C175.126 174.011 173.975 177.081 173.18 180.681C168.863 176.342 163.169 176.319 154.451 176.504C144.309 176.746 141.403 181.535 142.233 189.312L156.977 259.166C157.164 260.982 157.785 262.73 158.79 264.271C159.795 265.812 161.156 267.102 162.766 268.04V280.305H162.932L153.419 360.522H156.088L172.777 280.305H179.408L171.105 349.029H173.762L188.126 280.305H222.608L234.979 360.014H239.238L235.952 328.698C238.324 329.033 240.507 329.287 242.595 329.46C242.085 331.052 241.575 332.437 241.124 333.533L240.993 333.44C239.677 334.756 237.257 337.421 237.909 343.514C238.109 345.759 238.563 347.976 239.261 350.125C239.261 350.125 247.458 350.691 248.608 350.622C249.13 350.622 249 348.314 251.099 348.718C253.199 349.121 258.643 352.006 262.807 352.179C266.97 352.352 276.068 351.129 276.721 349.871C277.1 349.087 278.654 343.364 275.629 342.821C272.605 342.279 262 338.056 260.541 336.671C259.082 335.287 259.628 332.979 258.169 332.171C258.169 331.514 258.062 330.844 258.003 330.164C259.07 330.233 260.079 330.302 261.039 330.406C261.039 330.406 262.226 294.394 262.368 270.001C268.892 287.032 278.274 308.159 280.089 307.294C280.742 306.971 282.165 306.14 283.885 304.986C283.885 305.159 283.885 305.332 283.885 305.494H283.743C283.114 307.282 282.046 310.825 285.178 315.983C286.283 317.878 287.608 319.643 289.128 321.244C289.128 321.244 296.719 317.875 297.728 317.275C298.178 316.998 297.134 315.048 299.151 314.379C301.167 313.709 307.288 313.756 311.107 311.99C314.927 310.225 322.554 304.767 322.578 303.279C322.637 302.332 321.629 296.471 318.687 297.417ZM213.534 117.322C213.509 117.362 213.489 117.405 213.474 117.449C213.474 117.449 213.498 117.357 213.534 117.322ZM251.894 222.324L252.665 222.404C251.965 222.485 251.088 222.612 250.411 222.728H250.305L251.894 222.324ZM200.379 150.069C200.379 150.23 200.462 150.392 200.521 150.542C200.201 151.084 199.893 151.627 199.572 152.157C199.884 151.462 200.153 150.749 200.379 150.023V150.069ZM198.007 154.338L197.663 154.777L197.509 154.396C197.7 154.402 197.891 154.367 198.066 154.292L198.007 154.338ZM230.828 280.351L235.573 277.859C235.074 286.882 234.505 299.263 234.114 311.54L230.828 280.351Z" fill="#4A75DD"/>
<path opacity="0.5" d="M245.216 299.263C239.475 300.729 235.276 296.725 228.882 290.99C226.681 289.136 224.785 286.965 223.26 284.551C222.952 283.917 222.631 283.224 222.323 282.486C222.284 282.357 222.252 282.226 222.228 282.094C216.546 268.593 209.607 239.251 207.864 233.631C206.298 228.647 205.823 225.035 202.597 223.339C202.443 221.989 199.56 218.851 199.56 218.851C199.56 218.851 200.747 220.085 201.648 221.343C202.55 222.601 202.668 223.651 203.463 223.166C204.258 222.681 201.458 219.127 200.936 217.835C200.414 216.543 196.192 215.597 195.1 215.262C194.009 214.927 190.261 216.612 188.695 217.097C188.814 216.6 188.944 216.104 189.075 215.643C186.299 211.823 168.293 209.758 164.391 206.412C163.083 205.093 161.893 203.668 160.832 202.154C161.278 200.875 161.444 199.519 161.319 198.173C160.963 194.919 157.108 188.515 155.305 184.165C155.305 184.165 151.995 170.827 149.896 170.561L148.781 170.377C148.504 166.27 149.69 162.195 152.138 158.838C153.867 159.622 155.693 160.184 157.57 160.511C161.829 161.227 164.106 155.573 165.316 149.492C166.502 149.042 168.21 147.403 167.688 146.18C167.149 144.67 166.705 143.128 166.36 141.565C166.597 138.565 166.633 136.257 166.609 135.796C166.499 134.058 166.238 132.332 165.826 130.638C165.968 130.569 166.123 130.488 166.277 130.43C166.431 130.372 167.866 126.334 160.631 120.565C156.36 117.103 148.567 115.684 141.45 118.153C138.289 119.353 135.559 121.427 133.596 124.119C131.634 126.812 130.525 130.005 130.407 133.303C130.439 136.732 130.954 140.141 131.937 143.434C128.379 144.807 121.333 148.488 120.242 165.057C119.577 175.2 121.333 185.827 118.83 195.289L116.648 183.658C111.689 171.888 105.213 171.773 92.8176 172.038C82.3912 172.281 79.3784 177.208 80.2561 185.192L95.4627 257.043C95.6541 258.908 96.2897 260.704 97.3192 262.289C98.3487 263.873 99.7438 265.202 101.394 266.17V281.863H101.571L91.6907 361.249H94.4426L111.595 281.863H118.047L109.922 349.421H112.662L126.777 281.863H162.908L175.624 360.718H180.001L171.401 281.863L179.704 275.828L180.748 281.194C179.986 293.21 180.097 305.263 181.08 317.263H179.336C179.336 317.263 180.795 325.629 180.321 329.252C179.894 332.483 178.387 337.652 180.096 339.083C181.365 340.56 182.1 348.245 181.875 350.252C182.573 350.372 183.288 350.372 183.986 350.252C183.986 350.252 183.986 342.498 184.733 340.225C187.165 340.998 189.869 342.637 192.076 346.791C192.51 347.571 193.133 348.236 193.891 348.729V348.868H194.069C198.398 351.625 206.772 350.679 207.555 348.868C209.37 344.725 203.902 343.56 203.902 343.56C198.386 341.956 197.07 337.687 194.246 329.794L193.06 319.94C193.234 318.917 193.639 317.943 194.246 317.09H192.657L192.076 312.475C194.365 296.655 199.276 276.497 200.379 271.028C200.628 269.805 200.889 268.628 201.15 267.463C204.803 273.751 209.584 281.921 212.94 287.863L211.647 288.682C211.647 288.682 216.712 295.271 217.922 298.675C219.002 301.709 220.034 306.982 222.145 307.409C223.912 307.952 228.076 314.333 228.799 316.283C229.479 316.036 230.113 315.681 230.674 315.233C230.674 315.233 227.115 308.459 226.795 306.071C228.413 305.706 230.095 305.694 231.719 306.035C233.343 306.377 234.869 307.062 236.189 308.044C240.934 311.182 250.874 304.282 250.732 301.929C250.518 297.463 245.216 299.263 245.216 299.263ZM133.479 163.834C133.433 163.783 133.389 163.729 133.349 163.673C132.815 158.204 132.578 153.657 133.527 151.153C133.728 150.588 133.942 150.138 134.144 149.688C134.823 151.268 135.595 152.809 136.457 154.304C136.457 154.304 136.706 154.2 137.121 153.992C136.215 157.373 134.996 160.667 133.479 163.834ZM155.257 226.639L155.672 226.304C155.672 226.304 155.672 225.774 155.767 224.954C157.35 225.56 158.965 226.08 160.607 226.512C158.626 226.639 156.799 226.685 155.257 226.639ZM186.774 258.509V258.047C186.774 258.139 186.892 258.209 186.94 258.301L186.774 258.509ZM187.367 223.662C187.367 223.558 187.367 223.466 187.367 223.351L188.055 223.512L187.367 223.662ZM196.749 222.301C195.577 222.329 194.407 222.437 193.25 222.624C195.361 221.897 197.995 221.181 198.671 221.47C199.099 221.76 199.466 222.128 199.75 222.554C198.759 222.391 197.755 222.306 196.749 222.301Z" fill="#4A75DD"/>
<path opacity="0.5" d="M179.443 365.137C176.051 364.225 175.197 363.233 175.197 363.233C174.957 363.419 174.708 363.592 174.449 363.752C167.392 358.756 160.69 350.956 158.721 341.079C158.318 339.071 159.029 319.433 160.085 301.698L160.856 301.375L178.886 294.359C178.886 294.359 176.513 287.436 171.342 266.978C165.28 242.828 163.691 239.493 158.045 236.574L160.809 236.008L152.588 219.254L139.137 222.451V222.393L138.675 222.116V222.174L138.449 222.035L137.133 221.204C135.306 220.051 132.649 218.412 132.388 218.343C132.272 218.284 132.148 218.241 132.02 218.216H131.89C131.768 218.205 131.644 218.205 131.522 218.216H131.368C131.165 218.303 131 218.459 130.905 218.654C130.828 218.788 130.779 218.935 130.762 219.088C130.744 219.24 130.757 219.394 130.802 219.542C130.846 219.689 130.92 219.826 131.019 219.945C131.118 220.064 131.241 220.163 131.38 220.235L131.605 220.385C131.563 220.63 131.563 220.879 131.605 221.124C131.728 221.466 131.983 221.747 132.317 221.908C133.175 222.455 134.071 222.945 134.998 223.374L133.456 223.731C133.456 223.731 128.996 221.943 123.741 219.762C118.154 217.062 111.784 213.924 109.032 212.343C109.086 211.612 109.25 210.893 109.519 210.208C110.516 208.335 111.115 206.285 111.28 204.182C111.445 202.079 111.173 199.964 110.48 197.966C109.987 196.618 109.413 195.3 108.76 194.019C109.412 194.793 109.744 195.104 109.554 194.735C108.368 192.427 102.153 175.938 102.153 175.938L97.4199 174.646L97.8944 172.95C102.71 175.996 108.368 177.623 110.088 177.069C106.755 176.354 104.478 168.208 106.233 171.819C107.989 175.431 111.844 175.8 113.255 176.169C109.958 176.065 108.76 169.477 108.511 162.819C110.966 160.592 112.532 156.461 113.255 151.28C114.821 150.888 115.26 150.507 115.058 149.377C113.872 147.173 114.133 145.176 113.659 143.711C113.659 141.98 114.382 139.257 114.216 137.469C114.005 135.072 113.528 132.704 112.793 130.407C112.707 128.133 112.184 125.894 111.251 123.807C111.251 123.807 103.991 115.799 95.6644 116.722C89.959 115.88 81.3 120.345 77.7415 127.949C70.6245 143.273 69.7467 165.069 67.066 176.411C62.5704 172.95 56.7108 172.95 48.1941 173.135C37.2221 173.388 34.0432 178.569 34.9803 186.981L50.9816 262.616C51.1792 264.588 51.8486 266.488 52.9361 268.163C54.0236 269.838 55.4991 271.242 57.2446 272.263V288.74H57.3395L46.9368 372.326H49.8429L67.8963 288.74H74.7168L66.1289 362.968H69.0232L83.9451 288.74H121.902L128.758 331.34C127.159 333.489 126.251 336.051 126.149 338.702C126.042 343.248 128.521 346.583 125.235 356.575C127.145 357.822 127.359 357.36 127.359 357.36C127.359 357.36 129.529 349.179 131.261 346.825L135.282 371.772H139.885L138.817 361.895C141.533 364.572 146.717 366.51 150.24 367.249C150.969 369.604 151.431 372.03 151.616 374.483C153.834 374.783 153.858 374.253 153.858 374.253C153.858 374.253 153.348 370.791 153.146 367.606C153.362 367.612 153.575 367.56 153.763 367.456C154.375 366.875 154.852 366.173 155.159 365.396C155.466 364.619 155.597 363.787 155.542 362.956C157.665 364.814 160.571 368.91 163.845 372.014C167.949 375.891 181.128 373.006 181.792 371.622C182.456 370.237 182.824 366.037 179.443 365.137ZM132.72 221.239C133.669 221.827 134.891 222.554 135.887 223.154C135.791 223.223 135.674 223.259 135.555 223.258C134.574 222.718 133.634 222.109 132.744 221.435C132.722 221.407 132.709 221.375 132.705 221.34C132.701 221.306 132.706 221.271 132.72 221.239ZM130.787 288.786L134.167 287.021C134.061 299.529 133.705 313.202 133.705 313.202L137.263 311.667C136.558 315.442 135.648 319.178 134.535 322.86L130.787 288.786ZM144.855 329.471C144.88 329.354 144.911 329.239 144.95 329.125C145.758 332.678 146.36 336.272 146.752 339.891C147.015 342.198 146.928 344.531 146.492 346.814C146.322 347.01 146.168 347.219 146.029 347.437C144.101 341.638 143.697 335.461 144.855 329.471Z" fill="#4A75DD"/>
</g>
<path d="M339.006 291.878C339.047 299.907 337.206 307.839 333.621 315.071C333.621 315.071 349.729 320.31 351.022 320.217C352.315 320.125 350.215 302.217 349.978 298.063C349.741 293.909 339.006 291.878 339.006 291.878Z" fill="#26282D"/>
<path d="M334.902 311.956C333.716 313.19 331.343 315.694 331.996 321.44C332.186 323.553 332.616 325.639 333.277 327.66C333.277 327.66 340.987 328.202 342.078 328.133C342.564 328.133 342.446 325.998 344.45 326.333C346.455 326.667 351.567 329.437 355.482 329.644C359.396 329.852 367.972 328.652 368.589 327.406C368.945 326.667 370.404 321.279 367.557 320.771C364.71 320.263 354.723 316.283 353.323 315.002C351.923 313.721 352.564 311.182 350.808 310.606C349.053 310.029 346.064 311.829 346.597 312.913C346.9 313.457 346.977 314.093 346.811 314.69C346.811 314.69 338.887 316.133 337.488 314.367C336.777 313.423 335.902 312.607 334.902 311.956Z" fill="black"/>
<path d="M373.369 317.713H375.872L366.608 254.505L363.477 246.243L304.951 244.189V260.159H305.094L300.207 321.763H302.709L313.693 260.159L360.606 257.02L373.369 317.713Z" fill="#6597EF"/>
<path d="M308.676 165.9C301.915 158.25 284.668 163.777 273.387 164.019C263.898 164.238 259.83 167.365 260.636 174.646L267.812 235.143C268.548 241.985 275.582 250.547 282.912 249.139C290.243 247.732 313.753 246.509 322.186 238.755L308.676 165.9Z" fill="#6597EF"/>
<path d="M331.913 336.89H335.898L328.081 265.847L367.071 256.639L365.884 243.97L276.578 250.489L276.175 263.932H276.341L267.35 335.46H269.853L285.474 263.932L320.336 265.847L331.913 336.89Z" fill="#4A75DD"/>
<path d="M278.357 251.216C275.285 251.216 275.048 250.062 277.847 248.701L320.549 241.039C323.349 239.655 329.291 240.578 332.411 240.589L362.385 243.301C365.469 243.301 367.284 243.566 364.864 245.608L328.402 253.686C323.764 255.716 323.028 254.839 319.956 254.839L278.357 251.216Z" fill="#6597EF"/>
<path d="M370.677 286.051C370.445 293.733 368.417 301.262 364.746 308.067C364.746 308.067 379.988 313.721 381.233 313.686C382.479 313.652 381.091 296.378 381.02 292.421C380.949 288.463 370.677 286.051 370.677 286.051Z" fill="#26282D"/>
<path d="M366.05 305.125C364.864 306.279 362.551 308.586 362.931 314.102C363.045 316.135 363.383 318.15 363.939 320.113C363.939 320.113 371.317 320.944 372.361 320.921C372.835 320.921 372.788 318.89 374.662 319.294C376.536 319.698 381.376 322.537 385.124 322.894C388.872 323.252 397.128 322.456 397.757 321.279C398.124 320.586 399.714 315.509 396.998 314.875C394.281 314.24 384.863 310.075 383.582 308.771C382.301 307.467 383.001 305.079 381.328 304.444C379.656 303.809 376.773 305.436 377.212 306.532C377.483 307.063 377.534 307.674 377.355 308.24C377.355 308.24 369.716 309.302 368.435 307.559C367.785 306.624 366.979 305.802 366.05 305.125Z" fill="black"/>
<path d="M315.638 217.951C315.638 217.951 323.847 230.758 326.195 233.02C328.544 235.282 366.11 246.959 363.453 253.005C360.796 259.051 361.08 297.821 361.662 302.494C361.911 304.444 378.114 304.167 382.787 303.129C382.502 283.698 385.658 245.435 384.258 237.889C381.886 225.047 344.545 225.197 341.402 222.151L332.743 212.25L315.638 217.951Z" fill="black"/>
<path d="M290.8 223.108C284.11 230.228 288.262 248.909 299.234 251.309C304.489 252.462 336.622 254.678 336.005 257.528C335.566 259.363 332.15 274.536 333.882 308.206C345.127 310.052 351.2 309.786 357.261 310.513C357.261 310.513 357.89 275.194 358.329 255.013C358.447 248.92 360.464 244.166 359.918 242.262C356.727 231.231 332.518 228.658 329.268 227.262C326.017 225.866 323.787 217.339 323.787 217.339C323.787 217.339 294.038 219.647 290.8 223.108Z" fill="black"/>
<path d="M312.471 147.588C312.471 151.338 309.411 156.6 311.285 159.369C313.159 162.138 309.435 166.177 307.632 166.558C305.829 166.938 289.828 156.588 289.828 156.588C289.828 156.588 295.924 144.346 295.616 141.473C295.308 138.599 312.471 147.588 312.471 147.588Z" fill="#CC9483"/>
<path style="mix-blend-mode:multiply" d="M311.629 153.438C310.562 156.104 300.479 164.896 297.609 165.484C295.237 165.958 291.809 157.119 289.982 155.711C293.279 149.227 295.486 143.815 295.367 143.215C295.367 143.215 311.012 151.407 311.629 153.438Z" fill="url(#paint0_linear)"/>
<path d="M290.883 160.419L312.365 223.235L332.85 217.962L317.43 164.608L311.57 158.111C311.136 159.113 310.401 159.964 309.461 160.553C308.521 161.142 307.421 161.441 306.303 161.411C303.812 161.504 290.883 160.419 290.883 160.419Z" fill="white"/>
<path style="mix-blend-mode:multiply" d="M311.38 157.43C310.68 158.746 310.396 161.123 307.679 161.4C304.963 161.677 293.588 160.246 292.366 158.515C291.761 159.473 289.994 159.669 289.994 159.669L318.651 209.17L323.396 194.423L316.967 163.5L311.38 157.43Z" fill="url(#paint1_linear)"/>
<path d="M308.296 160.938L303.753 160.95L303.468 164.688L307.086 167.804L318.094 212.377L325.982 214.731L326.99 212.089L308.296 160.938Z" fill="#0D2263"/>
<path d="M329.22 209.689L311.309 166.004L311.938 161.954L310.348 159.923L308.13 160.881L309.411 165.15L325.982 214.731L329.22 209.689Z" fill="#1F3E93"/>
<path d="M291.844 150.853C293.03 153.819 307.027 161.019 307.027 161.019L302.282 169.696L288.38 157.338L291.844 150.853Z" fill="white"/>
<path d="M309.992 160.154L315.33 167.077C315.33 167.077 314.69 159.773 313.788 158.377C312.498 156.697 311.009 155.171 309.352 153.83C309.352 153.83 310.538 156.404 310.728 157.211C310.891 157.72 310.909 158.263 310.779 158.782C310.649 159.3 310.378 159.774 309.992 160.154Z" fill="white"/>
<path d="M321.759 235.051C321.759 235.051 282.616 253.432 282.912 249.139C283.339 242.285 283.92 226.847 282.355 215.85C281.536 210.254 278.998 191.135 277.824 188.919C276.649 186.704 269.971 172.038 269.971 172.038C269.971 172.038 269.971 169.592 273.98 166.996C279.651 163.526 285.009 159.592 289.994 155.238C289.994 155.238 293.184 164.988 295.723 168.473C298.261 171.958 311.736 199.431 313.954 201.22C316.267 203.827 321.759 235.051 321.759 235.051Z" fill="black"/>
<path d="M331.96 225.416L324.226 196.569C320.991 185.97 318.888 175.073 317.951 164.054L313.693 159.184C317.086 162.565 321.059 164.619 326.041 167.261C327.512 168.046 329.41 187.142 330.264 189.542C333.158 197.619 339.753 215.227 344.059 223.374L331.96 225.416Z" fill="#26282D"/>
<path d="M290.124 152.561C288.653 154.667 287.069 156.697 285.379 158.642L286.566 166.119L294.371 166.788L291.215 175.119L315.911 205.27C315.911 205.27 295.746 163.373 293.469 159.381C292.152 157.206 291.033 154.925 290.124 152.561Z" fill="#26282D"/>
<path d="M311 157.234C312.187 157.338 317.821 161.607 317.821 161.607L323.076 166.281L318.331 167.031L324.262 173.769L327.334 207.3C327.334 207.3 316.872 168.219 315.555 163.788C314.642 161.259 313.073 159.001 311 157.234Z" fill="black"/>
<path d="M288.096 134.261C288.096 136.869 291.132 144.519 290.86 146.457C290.777 147.057 290.255 148.857 289.756 148.696C289.258 148.534 293.422 151.004 294.228 150.184C295.984 148.384 296.304 136.846 295.865 136.188C295.426 135.53 288.096 134.261 288.096 134.261Z" fill="black"/>
<path d="M294.454 136.188C294.027 129.011 292.188 122.203 302.519 121.349C315.413 120.276 314.879 128.272 315.698 136.938C316.516 145.603 313.895 156.265 307.312 156.057C299.969 155.838 295.77 151.442 294.537 145.396C293.113 144.784 291.868 142.419 291.583 140.249C291.192 137.411 292.01 134.896 294.454 136.188Z" fill="#CC9483"/>
<path d="M301.061 133.476C300.918 142.488 303.919 155.238 308.676 156C314.322 156.184 314.962 149.734 316.243 143.596C317.121 138.761 317.631 130.903 315.401 125.884C313.93 122.711 312.471 121.153 310.075 120.911C305.58 122.376 301.167 126.045 301.061 133.476Z" fill="#E0AC9B"/>
<path d="M306.102 120.565L305.829 119.93C305.829 119.93 303.041 118.407 303.552 118.372C303.848 118.372 304.797 117.38 305.473 118.799L304.121 116.491L310.467 118.257C311.294 118.122 312.142 118.299 312.839 118.753C313.895 119.515 314.69 120.126 314.69 120.126C314.69 120.126 314.535 121.199 314.31 119.722C315.722 120.103 317.109 123.345 317.192 125.895C317.347 126.634 317.501 127.684 317.608 128.607C317.851 131.323 317.823 134.055 317.525 136.765L316.86 137.238C316.86 137.238 317.382 127.938 314.049 125.515C310.716 123.092 303.208 125.665 303.208 125.665L306.102 120.565Z" fill="#26282D"/>
<path d="M288.084 126.922C289.045 124.615 291.322 120.092 292.829 119.238C293.564 117.438 299.186 117.888 304.619 115.615C304.619 115.615 299.815 117.691 299.791 119.076C300.444 117.922 308.427 114.807 308.095 115.488C305.983 119.365 306.375 116.803 306.98 118.442C307.134 118.442 306.719 118.58 306.873 118.557C306.6 116.918 308.272 115.28 309.459 114.899C309.043 117.115 311.463 116.872 313.148 119.226C315.212 121.176 316.837 124.926 314.808 126.634C310.158 130.603 306.256 127.58 303.16 127.88C302.134 127.957 301.146 128.292 300.294 128.852C299.441 129.412 298.753 130.179 298.297 131.076C297.561 132.599 297.289 139.696 297.289 139.696L295.26 138.415L293.161 135.599L289.887 140.596C289.887 140.596 286.139 131.492 288.084 126.922Z" fill="black"/>
<path d="M326.599 226.42C337.571 227.32 355.719 233.031 358.388 237.312C361.341 242.032 359.977 250.512 359.242 252.797C358.506 255.082 358.056 310.779 358.056 310.779L351.615 309.625C351.615 309.625 354.699 252.901 355.541 249.982C356.383 247.062 355.185 240.405 352.682 238.443C346.752 233.712 321.119 228.312 319.47 228.312C317.821 228.312 326.599 226.42 326.599 226.42Z" fill="#26282D"/>
<path d="M350.891 218.101C354.391 218.735 357.38 218.954 358.554 219.52C359.728 220.085 362.457 224.135 362.457 224.135C362.457 224.135 364.105 229.028 363.228 229.593C362.694 229.962 359.491 225.728 358.922 225.116C358.352 224.504 353.904 223.489 353.904 223.489C353.904 223.489 360.476 226.789 358.827 228.635C358.376 229.131 356.455 227.043 353.797 226.72C350.713 226.339 347.072 227.608 341.402 222.104C339.991 220.731 344.154 214.224 344.154 214.224L350.891 218.101Z" fill="#CC9483"/>
<path d="M325.567 167.365C325.128 164.169 331.118 177.9 338.437 201.22L352.374 217.374L341.604 223.674C341.604 223.674 334.214 206.366 332.114 201.173C330.015 195.981 325.768 168.935 325.567 167.365Z" fill="black"/>
<path d="M335.839 220.201C337.452 221.089 344.142 220.42 346.182 220.685C347.775 220.946 349.294 221.528 350.642 222.393C351.212 222.901 354.058 225.635 352.92 226.143C352.279 226.443 351.034 224.458 349.705 223.893C348.255 223.385 346.763 222.999 345.245 222.739C345.245 222.739 349.005 223.489 349.99 224.562C350.761 225.404 353.774 227.804 352.611 228.428C351.449 229.051 347.926 226.328 347.926 226.328L343.905 225.601C345.213 225.883 346.501 226.25 347.76 226.697C348.543 227.216 351.627 228.22 350.559 229.443C350.239 229.824 347.997 228.624 346.586 228.289C345.174 227.954 343.027 227.447 343.027 227.447C343.027 227.447 347.89 229.028 348.472 229.835C349.053 230.643 345.115 230.124 343.146 229.835C341.177 229.547 334.582 228.128 332.945 228.128C331.308 228.128 335.839 220.201 335.839 220.201Z" fill="#E0AC9B"/>
<path d="M337.096 219.231C334.854 227.989 335.127 231.751 335.127 231.751L329.789 231.289C330.489 221.689 333.206 217.154 332.316 217.789C331.652 218.274 337.096 219.231 337.096 219.231Z" fill="white"/>
<path d="M284.039 171.438C284.17 171.854 298.273 203.354 300.93 205.039C303.753 206.839 333.443 217.5 333.443 217.5L329.078 234.151C329.078 234.151 290.527 228.739 285.19 225.451C279.852 222.162 265.488 178.95 269.995 172.038C274.502 165.127 283.482 169.65 284.039 171.438Z" fill="black"/>
<path d="M286.578 177.438C288.831 181.35 300.1 204.439 301.772 206.285C303.445 208.131 336.041 217.304 334.427 218.274C333.443 218.885 332.055 222.185 332.055 222.185C332.055 222.185 301.215 214.685 298.131 212.285C295.047 209.885 280.682 175.685 282.936 174.208C285.19 172.731 286.578 177.438 286.578 177.438Z" fill="#26282D"/>
<path d="M210.438 240.347C211.944 247.72 215.93 254.412 224.162 253.466L262.688 248.251C270.991 247.282 276.839 243.635 275.677 236.147L263.127 175.165C261.834 166.904 253.555 161.054 244.682 162.184L212.513 165.277C203.736 166.431 197.995 173.988 199.667 182.135L210.438 240.347Z" fill="#4A75DD"/>
<path d="M279.365 252.901C278.405 263.447 282.817 319.906 282.817 319.906L278.808 319.756L269.129 252.532L279.365 252.901Z" fill="#6597EF"/>
<path d="M232.892 251.724C231.883 257.701 235.027 260.886 239.261 262.49C241.539 263.332 264.752 267.555 270.102 268.143C275.451 268.732 315.306 260.066 315.911 255.97C316.516 251.874 281.406 245.92 276.068 245.355C270.73 244.789 232.892 251.724 232.892 251.724Z" fill="#4A75DD"/>
<path d="M259.984 135.899C259.984 139.015 261.455 160.257 263.839 161.1C258.525 163.65 252.286 162.519 248.822 157.707C245.358 152.896 259.984 135.899 259.984 135.899Z" fill="#A0593A"/>
<path d="M255.998 177.496C255.144 174.531 251.016 165.184 250.826 162.946C250.921 160.557 251.669 159.334 254.61 156.577C254.61 156.577 239.57 137.273 238.265 145.961C237.47 151.269 236.676 162.115 231.587 164.527C230.152 165.796 225.597 169.581 222.916 170.838C219.844 176.885 257.801 183.646 255.998 177.496Z" fill="#E0AC9B"/>
<path style="mix-blend-mode:multiply" d="M252.712 159.392L237.696 181.569L229.831 165.611C231.181 163.87 232.44 162.064 233.603 160.2C237.043 154.523 238.716 142.246 238.716 142.246C238.716 142.246 245.773 155.861 252.712 159.392Z" fill="url(#paint2_linear)"/>
<path d="M282.426 214.12C285.401 212.062 289.042 211.123 292.674 211.477C294.854 212.235 296.911 213.292 298.783 214.616C299.542 215.147 287.479 218.077 286.921 217.72L282.426 214.12Z" fill="#E0AC9B"/>
<path d="M259.841 170.781C264.088 173.561 270.517 202.27 272.806 205.87C275.095 209.47 284.537 211.581 286.791 212.377C289.045 213.174 274.064 218.147 272.189 218.504C270.315 218.862 263.21 200.412 261.336 191.25C260.162 184.49 259.662 177.635 259.841 170.781Z" fill="black"/>
<path d="M282.141 227.597C297.099 221.735 308.011 217.743 313.076 230.781C314.381 234.174 324.452 278.09 329.528 283.467C334.19 288.44 338.709 294.348 345.34 298.836C342.446 303.209 337.262 303.579 330.904 298.582C327.453 295.882 323.076 297.325 321.308 295.121C317.335 290.298 321.64 290.725 318.307 282.301C314.974 273.878 301.701 258.52 302.128 242.92C302.365 233.366 280.386 246.693 280.137 243.485C279.887 240.278 282.141 227.597 282.141 227.597Z" fill="#CC9483"/>
<path d="M319.482 288.636C318.296 290.321 318.296 293.344 320.051 296.251C321.807 299.159 325.982 303.636 326.077 306.348C327.773 306.279 327.702 305.886 327.702 305.886C327.702 305.886 324.416 297.544 326.053 297.728C327.69 297.913 331.652 302.228 335.151 304.652C338.65 307.075 347.107 304.19 348.104 303.659C349.954 302.678 349.136 299.967 346.135 299.113C344.544 298.617 343.138 297.678 342.09 296.413C342.09 296.413 336.159 300.717 332.482 297.371C328.805 294.024 319.482 288.636 319.482 288.636Z" fill="#6171AD"/>
<path d="M289.602 229.593C307.252 232.916 308.581 233.816 311.641 237.358C313.824 239.885 313.919 250.951 312.827 259.19C312.305 263.02 309.269 301.79 310.146 307.652C311.333 314.967 316.481 324.567 324.689 327.821C320.454 331.202 310.455 328.04 305.568 320.817C302.958 316.906 301.499 316.871 299.874 314.413C297.111 310.236 300.883 313.583 300.112 303.971C299.341 294.359 288.641 275.39 295.996 251.955C296.612 250.016 257.184 264.059 246.71 250.489C244.682 247.847 289.602 229.593 289.602 229.593Z" fill="#E0AC9B"/>
<path d="M299.756 308.932C298.166 310.282 297.182 314.771 298.131 318.163C299.08 321.556 301.333 328.744 300.728 331.444C302.425 331.86 302.46 331.444 302.46 331.444C302.46 331.444 302.104 320.31 303.646 320.979C305.188 321.648 307.774 327.706 310.645 331.064C313.515 334.421 325.021 332.829 325.65 331.814C325.892 331.408 326.042 330.956 326.091 330.489C326.14 330.023 326.086 329.551 325.934 329.106C325.781 328.661 325.533 328.252 325.206 327.908C324.879 327.563 324.48 327.289 324.037 327.106C322.352 326.404 320.759 325.509 319.292 324.44C319.292 324.44 312.566 327.221 309.708 322.86C306.849 318.498 299.756 308.932 299.756 308.932Z" fill="#6171AD"/>
<path d="M238.965 166.754C240.756 168.023 250.032 175.119 252.369 175.131C253.292 173.915 253.818 172.457 253.877 170.946C253.937 169.435 253.527 167.942 252.701 166.661C251.621 165.034 255.547 168.969 256.579 168.969C257.611 168.969 267.753 213.416 263.839 217.431C259.924 221.447 254.599 221.597 251.503 218.735C248.407 215.874 231.16 167.25 231.16 167.25L238.965 166.754Z" fill="white"/>
<path d="M229.535 225.543C232.026 235.928 230.579 251.493 237.008 254.655C249.189 260.643 260.422 253.997 279.247 261.382C285.367 263.793 292.888 239.378 301.57 229.328C302.899 227.805 258.323 230.066 254.598 217.57C251.111 205.858 227.091 215.424 229.535 225.543Z" fill="#0D2263"/>
<path d="M266.946 213.174L271.549 223.685C271.549 223.685 291.713 219.197 307.62 222.416C305.983 223.351 304.37 226.535 301.748 231.52C299.756 232.178 295.818 237.555 295.663 238.339C275.7 230.897 258.098 234.878 250.115 229.535C247.873 228.035 246.366 215.839 246.366 215.839L266.946 213.174Z" fill="#1F3E93"/>
<path d="M234.078 161.134C235.525 159.819 248.537 176.885 254.243 197.631C254.634 199.004 255.939 206.862 255.429 219.958C255.239 224.481 253.436 240.162 245.714 242.562C239.463 244.489 225.241 243.093 219.512 239.897C216.831 238.42 225.241 229.397 223.26 217.974C221.279 206.55 221.505 199.246 219.417 193.546C217.054 186.959 216.152 179.959 216.772 173.008C223.077 169.847 228.901 165.851 234.078 161.134Z" fill="black"/>
<path d="M251.799 164.723C253.951 166.469 256.266 168.014 258.714 169.338C260.968 170.665 266.33 188.619 266.828 193.673C267.326 198.727 266.33 204.97 268.571 208.558C270.813 212.147 278.927 216.808 280.042 218.401C281.157 219.993 277.432 222.381 274.431 222.785C271.43 223.189 266.448 220.789 266.128 218.401C265.808 216.012 262.89 198.854 261.383 191.285C259.877 183.715 251.799 164.723 251.799 164.723Z" fill="#26282D"/>
<path d="M250.921 162.519C251.491 163.119 258.098 171.3 259.225 172.096C257.35 172.696 255.963 170.204 255.298 172.604C254.883 174.092 253.792 173.1 253.792 173.1C253.792 173.1 252.048 166.904 251.562 165.727C251.051 164.735 250.829 163.625 250.921 162.519Z" fill="white"/>
<path d="M249.106 173.965C245.631 172.235 237.636 173.435 235.893 174.888C235.893 174.888 229.736 165.161 230.46 164.123C230.745 163.731 234.766 157.2 234.766 157.2C235.509 160.085 236.916 162.768 238.882 165.046C242.052 168.267 245.471 171.249 249.106 173.965Z" fill="white"/>
<path d="M247.743 225.681L283.363 229.247L301.95 213.912L264.313 213.785L247.743 225.681Z" fill="#999DAA"/>
<path d="M253.199 224.216L281.655 226.235L295.367 215.424L266.567 215.343L253.199 224.216Z" fill="white"/>
<path d="M264.1 205.293C263.949 205.551 263.859 205.839 263.839 206.135C263.854 206.481 264.008 206.808 264.266 207.047C265.306 208.367 266.565 209.509 267.99 210.427C268.133 210.485 268.192 210.347 268.18 210.22C268.168 210.093 267.623 209.216 267.504 209.227C267.344 209.264 267.178 209.264 267.018 209.227C266.264 208.435 265.57 207.591 264.942 206.7C264.871 206.55 265.013 206.446 265.12 206.389C264.742 206.059 264.4 205.691 264.1 205.293Z" fill="white"/>
<path d="M277.586 219.093C277.586 219.093 277.729 219.497 277.669 219.566C277.61 219.635 277.219 219.427 277.219 219.427L277.586 219.093Z" fill="black"/>
<path d="M277.586 219.093C277.301 218.446 276.938 217.835 276.507 217.27L275.617 218.135C276.124 218.613 276.667 219.053 277.242 219.451C277.368 219.342 277.483 219.222 277.586 219.093Z" fill="#7AA7D6"/>
<path d="M276.531 217.339C276.21 216.774 270.363 209.62 270.363 209.62L268.868 211.085C268.868 211.085 275.143 217.812 275.653 218.216C276.199 217.662 276.448 217.339 276.531 217.339Z" fill="#700000"/>
<path d="M264.8 204.716L265.488 203.943C265.428 203.862 264.669 202.87 263.863 203.643C263.068 204.427 263.934 205.327 263.993 205.385L264.788 204.716H264.8Z" fill="#96C3F2"/>
<path d="M269.437 210.081L269.651 209.908L270.185 209.354C270.185 209.354 265.665 204.035 265.44 203.827C265.084 204.15 264.835 204.404 264.693 204.554C264.55 204.704 264.301 204.935 263.957 205.293C264.112 205.593 268.702 210.704 268.702 210.75L269.283 210.312L269.437 210.081Z" fill="#700000"/>
<path d="M270.363 209.574L269.651 210.277L276.104 217.731C276.255 217.594 276.398 217.447 276.531 217.293C276.21 216.727 270.363 209.574 270.363 209.574Z" fill="#990000"/>
<path d="M269.663 209.862L270.197 209.308C270.197 209.308 265.665 203.966 265.393 203.758C265.06 204.104 264.883 204.277 264.681 204.473L269.509 210.058L269.698 209.908L269.663 209.862Z" fill="#990000"/>
<path d="M263.898 203.62L264.633 204.462L265.333 203.758C265.286 203.689 264.562 202.962 263.898 203.62Z" fill="white"/>
<path d="M270.469 209.527L270.137 209.135L269.378 209.885L269.77 210.347L270.529 209.585L270.469 209.527Z" fill="white"/>
<path d="M251.87 211.87C253.65 212.297 258.643 211.304 260.482 211.258C263.613 211.177 269.366 209.343 270.434 209.689C271.717 210.05 272.96 210.533 274.146 211.131C275.57 211.985 275.522 212.874 274.846 213.554C274.709 213.65 274.552 213.716 274.386 213.748C274.221 213.779 274.05 213.776 273.885 213.739C273.885 213.739 275.012 214.524 275 215.193C275 216.485 274.324 216.347 273.423 216.404C274.49 216.958 274.609 218.504 272.984 218.516C273.98 219.67 272.854 220.593 270.22 221.135C268.749 221.447 261.336 219.854 259.284 219.347C256.691 219.04 254.076 218.948 251.467 219.07L251.87 211.87Z" fill="#E0AC9B"/>
<path d="M257.564 209.135L261.063 210.485L257.599 222.831L253.045 221.343L257.564 209.135Z" fill="white"/>
<path d="M216.155 172.719C211.908 173.873 214.233 186.669 215.36 192.254C216.487 197.839 218.919 220.581 224.126 221.77C229.333 222.958 254.67 223.547 254.67 223.547C254.67 223.547 258.714 210.912 259.841 210.116C260.968 209.32 236.26 205.87 234.766 202.673C233.271 199.477 228.657 181.788 225.846 177.946C223.912 175.292 221.754 171.115 216.155 172.719Z" fill="black"/>
<path d="M284.739 213.877C285.237 214.777 287.61 215.32 289.306 214.777C290.585 214.474 291.918 214.45 293.208 214.708C294.122 214.708 295.414 214.224 294.205 213.647C293.014 213.117 291.77 212.711 290.492 212.435C290.492 212.435 287.028 211.547 285.13 212.966L284.739 213.877Z" fill="#E0AC9B"/>
<path d="M232.073 135.992C232.322 124.176 239.071 119.838 247.873 120.068C256.674 120.299 260.233 127.961 259.995 139.753C259.995 141.507 262.214 154.488 253.151 160.996C251.372 162.277 250.221 161.504 248.312 161.088C239.688 159.242 231.848 147.773 232.073 135.992Z" fill="#E0AC9B"/>
<path d="M254.088 132.08C257.516 131.746 258.37 134.388 260.399 137.723C262.866 127.822 254.587 120.911 249.723 120.345C244.86 119.78 240.412 121.499 240.685 123.218C240.958 124.938 254.088 132.08 254.088 132.08Z" fill="#A0593A"/>
<path d="M255.061 132.115C253.045 132.934 242.63 132.726 240.578 142.084C240.578 142.084 237.743 139.338 236.913 141.657C235.727 145.176 238.716 148.869 238.716 148.869L237.186 155.03C237.186 155.03 229.737 151.003 228.254 138.957C226.581 125.284 238.929 116.941 248.253 120.103C252.76 121.672 255.061 132.115 255.061 132.115Z" fill="#BA784A"/>
<path d="M238.68 148.719C238.182 152.1 242.239 163.892 242.986 164.792C238.835 165.334 229.547 157.546 228.645 155.446C227.744 153.346 225.455 135.219 229.559 129.542C232.429 125.561 231.931 136.096 232.726 139.649C233.52 143.203 238.68 148.719 238.68 148.719Z" fill="#BA784A"/>
<path d="M230.104 182.054C232.287 186.092 237.079 202.662 237.672 204.358C238.265 206.054 258.596 209.758 259.841 210.127C258.828 211.308 258.066 212.673 257.6 214.143C257.6 214.143 238.467 209.47 237.079 209.47C236.66 209.447 236.255 209.316 235.905 209.091C235.555 208.866 235.272 208.555 235.086 208.189L236.486 206.712L232.488 208.408L235.086 205.858C235.086 205.858 224.719 179.735 226.32 177.819C227.922 175.904 230.104 182.054 230.104 182.054Z" fill="#26282D"/>
<path d="M148.899 249.174C150.37 256.501 158.08 261.601 166.158 260.713L198.303 256.916C206.476 255.947 212.181 249.22 211.043 241.801L198.778 181.235C198.102 177.206 195.832 173.594 192.454 171.172C189.075 168.75 184.857 167.711 180.701 168.277L143.455 172.258C134.867 173.411 134.95 180.046 136.587 188.135L148.899 249.174Z" fill="#6597EF"/>
<path d="M155.91 266.84C156.799 278.02 151.687 349.652 151.687 349.652L155.625 349.479L165.933 266.401L155.91 266.84Z" fill="#4A75DD"/>
<path d="M186.347 275.47C187.379 288.267 183.358 360.198 183.358 360.198L187.865 360.002L197.841 275.032L186.347 275.47Z" fill="#4A75DD"/>
<path d="M153.668 256.639C153.976 264.555 154.344 268.34 155.174 270.67C156.005 273.001 185.813 281.148 191.044 281.713C196.275 282.278 257.41 273.786 256.852 269.793C256.591 267.832 258.869 265.178 255.666 262.87C245.868 256.109 222.453 246.866 218.598 246.439C213.308 245.885 153.668 256.639 153.668 256.639Z" fill="#6597EF"/>
<path d="M187.331 127.061C181.614 119.492 164.521 127.626 163.513 141.657C162.671 153.473 158.863 195.889 151.995 205.489C161.959 219.947 187.794 209.931 187.794 209.931C187.794 209.931 198.327 200.25 206.618 206.054C208.741 207.52 202.822 180.75 199.24 169.2C197.935 165.034 187.331 127.061 187.331 127.061Z" fill="black"/>
<path d="M238.099 252.624C252.084 249.428 255.358 260.47 253.282 275.978C252.736 280.04 247.98 321.706 248.964 327.96C250.15 335.702 256.698 345.002 265.405 348.452C260.909 352.029 250.269 348.683 245.145 341.044C242.369 336.89 239.605 341.333 238.431 338.414C235.75 331.802 239.416 332.817 238.597 322.64C237.779 312.463 232.809 293.644 239.131 268.328C241.705 258.024 238.099 252.624 238.099 252.624Z" fill="#E0AC9B"/>
<path d="M238.633 328.767C237.02 330.279 235.561 334.64 236.735 338.16C237.909 341.679 240.507 350.091 239.997 352.975C241.8 353.321 241.812 352.883 241.812 352.883C241.812 352.883 240.851 340.064 242.559 340.687C244.267 341.31 247.304 348.648 250.494 352.052C253.685 355.456 265.784 353.206 266.413 352.052C266.654 351.614 266.796 351.13 266.828 350.633C266.859 350.137 266.781 349.64 266.597 349.175C266.414 348.711 266.13 348.291 265.764 347.943C265.399 347.595 264.96 347.328 264.479 347.16C262.667 346.499 260.939 345.635 259.331 344.587C259.331 344.587 252.357 347.887 249.118 343.433C245.88 338.979 238.633 328.767 238.633 328.767Z" fill="#001C49"/>
<path d="M225.205 256.732C242.678 251.124 244.409 264.474 242.334 279.982C241.776 284.044 235.098 325.813 236.082 332.067C237.269 339.81 243.816 349.11 252.523 352.56C248.027 356.137 237.387 352.791 232.263 345.141C229.487 340.998 226.712 345.441 225.537 342.521C222.869 335.91 226.534 336.925 225.727 326.737C224.921 316.548 217.424 296.736 223.699 271.409C226.273 261.093 225.205 256.732 225.205 256.732Z" fill="#CC9483"/>
<path d="M225.775 332.875C224.162 334.387 222.703 338.737 223.877 342.267C225.051 345.798 227.649 354.187 227.139 357.083C228.93 357.418 228.965 356.991 228.965 356.991C228.965 356.991 227.993 344.171 229.701 344.794C231.409 345.418 234.446 352.756 237.636 356.16C240.827 359.564 252.926 357.314 253.543 356.16C253.789 355.721 253.934 355.236 253.969 354.738C254.004 354.239 253.927 353.739 253.745 353.272C253.562 352.805 253.278 352.382 252.911 352.032C252.545 351.682 252.105 351.413 251.621 351.245C249.807 350.597 248.079 349.741 246.473 348.694C246.473 348.694 239.487 351.995 236.26 347.541C233.034 343.087 225.775 332.875 225.775 332.875Z" fill="#001C49"/>
<path d="M194.08 176.135C192.977 176.135 192.787 176.135 189.893 172.985C189.442 169.027 187.521 162.761 191.577 159.761C191.577 159.761 172.053 136.246 173.844 144.311C178.15 163.857 170.938 170.273 170.618 170.123C169.361 171.45 164.592 175.731 163.157 178.142C160.785 184.108 161.33 195.519 165.043 205.027C168.886 214.8 199.881 208.027 200.533 205.593C201.589 201.67 194.057 176.954 194.08 176.135Z" fill="#E0AC9B"/>
<path style="mix-blend-mode:multiply" d="M192.681 167.319L175.066 180.623L168.329 173.85C169.693 172.102 170.885 170.232 171.887 168.265C174.663 162.623 173.785 152.734 173.785 152.734C173.785 152.734 185.872 164.665 192.681 167.319Z" fill="url(#paint3_linear)"/>
<path d="M169.895 143.596C169.705 131.619 176.383 126.969 185.315 126.807C194.247 126.645 199.264 134.053 199.466 146.007C199.466 147.773 201.091 161.007 192.159 168.034C190.403 169.396 189.193 168.658 187.26 168.323C178.447 166.811 170.096 155.527 169.895 143.596Z" fill="#E0AC9B"/>
<path d="M188.078 135.657C193.819 134.653 198.445 141.692 199.572 145.5C202.822 139.28 196.892 130.43 191.744 127.995C186.596 125.561 182.029 126.438 181.756 128.203C181.483 129.969 188.078 135.657 188.078 135.657Z" fill="#26282D"/>
<path d="M193.974 137.157C191.969 138.057 178.554 137.319 177.581 148.327C177.581 148.327 173.785 145.592 173.038 147.969C171.852 151.592 175.695 154.765 175.695 154.765L175.754 161.954C175.754 161.954 164.581 156.184 165.921 143.965C167.261 131.746 176.751 124.026 187.141 126.657C191.791 127.742 193.974 137.157 193.974 137.157Z" fill="black"/>
<path d="M170.618 170.123C172.516 171.681 189.597 180.692 190.783 180.162C191.317 179.908 191.59 176.873 191.091 173.619C190.771 171.635 193.464 174.681 194.413 174.681C195.362 174.681 203.048 191.989 199.442 196.223C195.836 200.458 189.537 200.954 186.691 197.919C183.844 194.885 165.399 174.646 165.399 174.646L170.618 170.123Z" fill="white"/>
<path d="M172.741 164.746L186.655 174.311L183.322 183.946L169.219 169.904L172.741 164.746Z" fill="white"/>
<path d="M189.36 169.292L193.986 172.477L193.748 178.754L189.573 173.042L189.36 169.292Z" fill="white"/>
<path d="M201.316 192.658C202.906 197.746 209.228 217.154 210.283 218.851C211.339 220.547 216.463 226.212 224.695 233.574C227.684 236.251 216.333 235.985 216.333 235.985C216.333 235.985 205.041 229.178 202.906 224.378C200.77 219.577 199.988 197.123 201.316 196.546C202.645 195.969 201.316 192.658 201.316 192.658Z" fill="#E0AC9B"/>
<path d="M197.307 175.8C203.748 176.815 204.792 189.15 212.205 202.5C208.504 206.747 199.857 214.12 199.572 213.231C199.288 212.343 195.124 188.539 195.397 184.904C195.781 181.824 196.419 178.78 197.307 175.8Z" fill="white"/>
<path d="M158.626 178.65C151.189 185.296 161.283 190.673 162.872 197.181C164.474 209.273 168.02 228.97 165.34 238.801C163.228 246.578 166.858 261.22 173.18 264.336C185.113 270.197 203.534 264.578 220.128 282.982C222.014 285.071 222.121 268.12 243.852 263.24C247.339 262.455 200.794 243.716 197.912 231.243C189.537 195.162 165.541 173.827 165.541 173.827L158.626 178.65Z" fill="#0D2263"/>
<path d="M197.686 175.881C198.873 177.785 200.308 181.812 203.261 190.177C205.385 196.223 205.812 196.893 206.381 201.15C206.915 205.12 205.325 207.52 204.791 211.212C204.436 213.67 208.73 231.901 210.722 232.87C214.103 234.531 234.873 239.655 248.905 246.451C254.492 249.174 258.798 265.213 258.193 267.14C258.193 267.14 245.145 274.294 240.317 277.594C240.317 277.594 232.156 255.809 224.719 254.101C212.525 251.32 188.078 251.551 187.877 234.139C187.723 220.951 187.367 215.412 186.287 209.654C185.119 204.369 183.194 199.269 180.57 194.504C176.365 186.905 170.571 180.247 163.56 174.958C165.075 174.105 166.501 173.112 167.819 171.992C171.982 173.146 176.656 176.712 181.744 181.685C187.118 186.935 190.913 190.604 198.149 194.643C199.039 195.127 197.164 181.188 193.903 174.254C197.2 175.927 197.686 175.881 197.686 175.881Z" fill="#1F3E93"/>
<path d="M223.651 232.57C226.122 232.985 228.489 233.855 230.626 235.132C231.373 235.778 233.912 240.589 233.497 240.832C233.081 241.074 232.014 238.962 231.658 238.524C231.302 238.085 230.211 236.816 230.211 236.816C230.211 236.816 233.129 241.235 232.797 241.916C232.465 242.597 231.089 240.439 230.757 239.689C230.322 238.905 229.822 238.156 229.262 237.451C229.262 237.451 232.714 243.012 231.86 242.551C230.188 241.413 228.758 239.971 227.649 238.305C227.649 238.305 230.674 242.124 229.713 242.447C228.752 242.77 228.716 240.647 225.158 238.155C224.023 237.655 222.827 237.299 221.599 237.093C220.14 236.943 224.731 239.401 225.158 240.151C225.585 240.901 224.446 240.658 223.284 240.255C222.121 239.851 217.697 238.547 216.594 237.451C215.491 236.355 215.977 235.385 215.93 234.393C215.882 233.401 223.651 232.57 223.651 232.57Z" fill="#E0AC9B"/>
<path d="M226.012 238.397C225.265 237.97 220.461 235.882 219.939 235.674C220.741 235.749 221.535 235.892 222.311 236.101C223.497 236.47 223.936 236.632 224.589 236.851C225.775 237.266 226.902 236.851 225.383 236.101C224.484 235.539 223.554 235.027 222.596 234.566C221.299 234.278 219.976 234.116 218.646 234.082C216.554 234.29 214.448 234.344 212.347 234.243C209.256 233.59 206.228 232.679 203.297 231.52C198.066 228.231 185.077 221.585 184.318 220.766C183.251 219.612 175.814 202.65 173.643 197.262C173.643 197.262 162.742 198.681 162.22 202.073C161.698 205.466 173.821 228.128 177.095 230.678C184.888 236.712 201.292 239.562 206.749 239.908C206.973 239.953 207.195 240.011 207.413 240.082C209.138 241.008 211.109 241.41 213.071 241.235C215.591 240.851 218.168 241.037 220.603 241.778C223.094 242.643 223.592 242.574 223.829 242.17C224.067 241.766 222.501 241.132 221.161 240.37C219.82 239.608 216.784 239.158 217.341 238.997C217.899 238.835 223.367 240.809 224.209 240.993C225.051 241.178 227.08 241.155 226.225 240.497C224.02 239.284 221.751 238.183 219.429 237.197C218.717 236.851 225.941 239.505 226.475 239.608C227.008 239.712 227.139 239.008 226.012 238.397Z" fill="#CC9483"/>
<path d="M161.544 178.5C158.318 178.5 153.478 182.654 153.786 187.639C154.605 200.031 162.517 216.185 162.517 216.185L178.66 208.293C176.228 203.678 174.108 198.914 172.314 194.031C167.759 181.269 164.972 178.5 161.544 178.5Z" fill="white"/>
<path d="M155.388 335.506C153.727 345.556 164.877 368.76 160.998 371.991C157.12 375.222 133.242 432.315 132.53 436.607C130.158 450.742 136.552 464.911 143.87 473.9C136.931 475.735 130.194 472.412 122.246 458.969C118.996 453.511 114.157 449.011 114.121 444.984C114.062 435.869 116.268 441.95 120.052 429.603C123.836 417.257 125.852 378.395 139.861 362.022C148.425 352.006 151.094 334.571 153.644 330.867C156.194 327.164 155.388 335.506 155.388 335.506Z" fill="#D19780"/>
<path d="M116.814 436.873C113.967 438.119 110.883 443.127 110.978 448.411C111.073 453.696 114.121 457.492 110.729 469.388C113.03 470.75 113.243 470.196 113.243 470.196C113.243 470.196 116.565 455.311 118.628 456.996C120.692 458.681 122.187 466.365 125.034 472.515C127.881 478.665 143.36 481.804 144.665 480.592C145.97 479.381 148.223 475.008 144.914 472.411C141.604 469.815 141.106 468.338 141.106 468.338C138.973 468.9 136.708 468.751 134.672 467.914C132.636 467.078 130.947 465.602 129.873 463.723C124.678 455.369 116.814 436.873 116.814 436.873Z" fill="#26282D"/>
<path d="M134.345 271.27C137.695 268.778 141.196 266.485 144.831 264.405C144.831 264.405 146.67 259.697 149.279 258.451C151.898 257.272 154.413 255.887 156.799 254.309C157.986 253.386 157.286 255.936 155.471 257.689C154.618 258.528 153.662 259.261 152.624 259.87C152.624 259.87 152.505 261.024 154.308 260.597C155.932 260.336 157.523 259.907 159.053 259.316C161.818 258.042 164.677 256.97 167.605 256.109C169.729 256.109 164.996 259.316 162.327 261.082C165.02 259.72 169.302 256.732 170.049 257.851C171.496 259.986 161.9 265.086 161.9 265.086C163.228 265.086 170.666 258.901 170.417 260.47C169.966 263.413 163.074 267.393 163.074 267.393C163.074 267.393 168.922 263.77 169.444 264.082C170.689 264.82 165.696 268.905 163.11 271.097C158.875 274.686 151.841 274.317 148.959 274.559C146.076 274.801 138.283 279.982 135.413 283.617C132.542 287.251 134.345 271.27 134.345 271.27Z" fill="#E0AC9B"/>
<path d="M140.442 266.193C139.315 269.17 140.442 283.363 140.442 283.363L129.221 286.398C129.221 286.398 130.846 270.347 133.396 269.586C135.853 268.68 138.212 267.544 140.442 266.193Z" fill="#A3CCE2"/>
<path d="M137.358 267.509L104.051 276.913C104.051 276.913 95.0358 297.613 97.8707 300.221C103.529 305.436 135.365 292.571 136.03 288.867C136.694 285.163 137.358 267.509 137.358 267.509Z" fill="black"/>
<path d="M115.082 383.426L138.604 367.11L137.892 347.448L110.444 361.052L115.082 383.426Z" fill="black"/>
<path d="M150.311 467.646H153.692L142.803 363.579L136.895 348.706L57.5648 349.733V371.402H57.7784L46.5573 468.269H49.9497L69.4265 371.402H132.293L150.311 467.646Z" fill="#6597EF"/>
<path d="M43.4851 223.316C40.2351 208.57 25.3131 211.108 8.90846 211.5C-4.82731 211.847 -9.15681 219.577 -8.58745 232.074L14.2699 345.775C14.8393 358.306 24.4235 366.545 35.5497 364.168C46.6759 361.791 69.5926 353.783 68.7623 341.252L43.4851 223.316Z" fill="#4A75DD"/>
<path d="M127.643 489.466H133.04L122.436 384.845L154.237 362.806L93.0074 351.06L22.4188 361.318V384.845H22.6561L10.4504 490.123H15.9305L37.1035 384.845H108.048L127.643 489.466Z" fill="#4A75DD"/>
<path d="M25.8825 362.725C21.719 362.725 21.3988 361.156 25.1826 359.322L55.845 346.687C60.3879 344.647 65.3036 343.509 70.3043 343.341L132.222 343.664C136.385 343.664 139.991 346.271 136.718 349.018L123.99 356.91C120.1 359.864 115.372 361.587 110.444 361.849L25.8825 362.725Z" fill="#6597EF"/>
<path d="M153.146 336.106C154.332 346.237 160.049 364.525 157.25 368.806C154.451 373.087 144.772 443.68 145.246 447.984C146.776 462.281 156.823 473.842 166.265 480.154C160.156 484.065 152.79 482.969 141.51 472.573C136.919 468.361 131.06 465.558 129.921 461.727C127.382 453.015 131.107 458.138 131.392 445.169C131.676 432.199 122.958 394.399 131.878 374.368C137.346 362.137 135.128 344.621 136.563 340.329C137.999 336.037 153.146 336.106 153.146 336.106Z" fill="#E0AC9B"/>
<path d="M130.3 453.142C127.928 455.219 126.374 460.942 127.928 466.019C129.482 471.096 133.42 473.762 133.432 486.177C135.982 486.777 136.053 486.177 136.053 486.177C136.053 486.177 135.176 470.888 137.607 471.881C140.039 472.873 143.538 479.716 147.951 484.746C152.363 489.777 168.02 487.954 168.957 486.408C169.895 484.862 170.82 479.969 166.965 478.504C163.11 477.039 162.22 475.792 162.22 475.792C160.402 476.978 158.224 477.53 156.042 477.358C153.861 477.186 151.803 476.301 150.204 474.846C142.874 468.385 130.3 453.142 130.3 453.142Z" fill="black"/>
<path d="M90.552 307.421C90.552 315.256 94.1105 308.113 100.433 312.775C106.755 317.436 138.627 317.298 150.548 322.952C157.286 326.148 159.539 327.337 166.644 355.652C172.646 379.583 172.255 381.568 172.255 381.568L132.946 404.265C132.946 404.265 143.621 354.648 113.872 354.037C101.394 353.783 55.0146 350.575 56.0703 336.094C57.1259 321.613 54.291 302.932 54.291 302.932L90.552 307.421Z" fill="#26282D"/>
<path d="M63.638 360.314C84.9889 363.187 113.872 355.698 122.733 363.325C123.587 373.191 122.472 409.861 122.472 409.861L158.745 389.726C157.808 371.945 150.441 340.664 144.511 337.306C127.193 327.521 73.8746 334.698 72.036 326.24C69.9365 316.536 72.724 306.221 78.4888 297.244L54.2673 302.944C43.7223 322.34 36.9967 356.737 63.638 360.314Z" fill="black"/>
<path d="M113.231 213.877C102.853 219.035 96.9929 226.57 99.3534 245.92C100.041 251.62 94.0512 233.758 86.8987 227.931C80.5883 222.808 80.0071 221.597 75.6301 219.451C79.4258 216.324 91.5959 204.6 91.2756 192.439C90.9554 180.277 113.231 213.877 113.231 213.877Z" fill="#CC9483"/>
<path d="M77.8246 218.943L83.3521 206.793L96.9811 223.628L98.2978 245.112L77.8246 218.943Z" fill="white"/>
<path d="M87.717 226.881C90.9434 229.939 102.995 255.728 102.995 255.728C105.64 261.613 108.238 265.651 108.843 270.093C109.685 276.336 106.897 286.582 104.608 289.224C102.319 291.867 100.314 302.09 99.7091 306.048C99.1042 310.006 98.1553 328.894 98.1553 328.894C98.1553 328.894 54.5281 332.356 50.2698 330.048C47.6247 328.583 58.4306 286.974 59.8896 270.97C61.3486 254.966 61.4909 235.351 77.3025 220.201C83.6722 223.801 82.913 222.301 87.717 226.881Z" fill="#26282D"/>
<path d="M57.3394 267.14C50.9816 312.233 38.005 329.448 40.662 330.96C40.662 330.96 82.4861 335.437 82.9962 333.117C93.0192 288.405 80.9915 248.239 82.1184 240.809C82.9369 235.316 85.1431 228.958 88.4525 225.681C84.1823 221.712 81.8693 220.42 75.8555 216.981C59.7118 238.916 59.5694 251.251 57.3394 267.14Z" fill="black"/>
<path d="M123.029 178.004C120.147 166.904 112.117 160.361 101.607 161.434C88.2746 162.807 78.4888 169.223 80.102 187.108C81.7152 204.993 99.2467 217.72 112.65 217.454C117.075 217.374 119.767 213.347 121.606 204.67C123.492 204.116 125.235 203.273 124.998 201.82C123.868 199.673 122.935 197.433 122.211 195.127C122.211 192.877 123.978 192.266 124.049 189.923C124.123 185.927 123.781 181.933 123.029 178.004Z" fill="#CC9483"/>
<path d="M78.0973 212.066L94.1461 225.012L94.3478 238.778L72.5817 220.443L78.0973 212.066Z" fill="black"/>
<path d="M91.3112 233.897L99.982 236.205C99.982 236.205 105.687 260.366 106.553 263.286C107.419 266.205 91.3112 233.897 91.3112 233.897Z" fill="black"/>
<path d="M132.91 308.956C134.654 309.694 144.629 309.302 146.361 310.04C148.093 310.779 155.85 310.213 155.85 310.213C155.85 310.213 156.704 311.309 150.987 312.856C148.805 313.444 154.391 315.579 156.028 315.936C157.665 316.294 160.192 317.436 159.112 317.748C158.033 318.06 158.128 318.129 156.111 317.748C154.724 317.517 152.921 317.01 152.921 317.01C152.921 317.01 158.733 318.163 158.092 319.086C157.452 320.01 150.406 319.086 150.406 319.086C150.406 319.086 156.681 319.19 155.435 320.575C154.451 321.729 147.915 320.736 147.915 320.736C147.915 320.736 152.921 320.575 151.853 321.89C151.213 322.687 144.475 322.617 143.752 322.04C143.028 321.463 130.55 318.106 129.067 316.813C127.584 315.521 132.91 308.956 132.91 308.956Z" fill="#E0AC9B"/>
<path d="M130.846 303.809L136.362 307.282L130.277 322.952L123.029 319.167L130.846 303.809Z" fill="#AAC9E2"/>
<path d="M80.0426 228.67C74.6693 227.101 64.9783 235.305 66.0814 246.635C68.1335 268.27 85.238 299.932 89.176 304.709C96.2219 313.271 123.966 324.452 123.966 324.452L133.456 303.521C133.456 303.521 108.368 285.498 107.36 283.778C104.406 278.667 91.7026 244.143 88.1322 237.555C84.5619 230.966 80.0426 228.67 80.0426 228.67Z" fill="black"/>
<path d="M106.292 284.378C101.477 275.736 90.8723 244.662 87.3138 238.062C85.9674 235.52 84.1728 233.228 82.0117 231.289C81.5422 231.341 81.0805 231.446 80.6357 231.601C69.8891 246.185 93.9208 286.028 96.4829 290.032C98.6298 293.401 115.995 305.263 128.83 313.94L133.503 303.486C133.503 303.486 107.253 286.121 106.292 284.378Z" fill="#26282D"/>
<path d="M125.069 175.188C127.774 177.496 124.797 181.973 119.364 184.292C116.05 185.717 113.038 187.728 110.48 190.223C110.48 190.223 105.225 188.354 104.727 192.75C104.371 195.704 108.997 202.281 108.997 202.281C108.997 202.281 105.13 222.797 114.928 227.435C111.666 229.166 72.4156 204.958 70.7787 202.05C70.7787 202.05 76.4723 171.704 86.6496 164.331C90.8011 161.319 97.6334 162.173 97.6334 162.173C97.6334 162.173 103.564 159.427 109.032 160.869C118.142 163.257 125.069 175.188 125.069 175.188Z" fill="#5B250E"/>
<path d="M774.494 430.849V475.042H380.356V430.849L475.344 404.438L678.249 412.134L774.494 430.849Z" fill="#4A75DD"/>
<path style="mix-blend-mode:multiply" d="M774.494 434.496V472.804L380.272 471.835V429.153H774.494V434.496Z" fill="url(#paint4_linear)"/>
<path d="M774.494 426.88L377.26 429.742L377.758 426.742L406.629 371.379H774.494V426.88Z" fill="#6597EF"/>
<path d="M532.766 184.904C529.207 183.958 485.675 144.265 476.696 137.088C475.403 136.049 467.645 134.988 463.162 135.173L456.97 138.876C461.015 138.876 475.427 146.077 477.028 147.357C486.007 154.534 526.503 191.596 530.097 192.542C533.691 193.489 544.533 189.196 544.533 189.196L542.48 184.95C539.267 185.517 535.973 185.501 532.766 184.904Z" fill="#AFB3BC"/>
<path d="M462.059 391.341L471.216 375.614H544.568L550.606 391.341V399.58H463.138L462.059 391.341Z" fill="white"/>
<path d="M550.594 391.907H462.059V400.434H550.594V391.907Z" fill="#AFB3BC"/>
<path d="M507.963 174.392L503.218 169.327L486.09 158.204C449.841 267.336 483.172 374.483 489.566 388.11H515.436L515.697 377.114C505.638 360.418 474.098 266.482 507.963 174.392Z" fill="#AFB3BC"/>
<g style="mix-blend-mode:multiply" opacity="0.6">
<g style="mix-blend-mode:multiply" opacity="0.6">
<path d="M515.697 377.126C505.638 360.452 474.905 264.774 507.702 174.392L502.957 169.327H502.625C467.847 275.078 502.993 363.291 514.748 388.157H515.199L515.697 377.126Z" fill="#AFB3BC"/>
</g>
</g>
<path d="M531.034 189.9C526.764 188.746 481.962 147.957 471.299 139.442C469.745 138.207 462.296 138.692 456.97 138.911L457.16 144.276C461.964 144.276 468.855 143.734 470.765 145.269C481.44 153.796 527.298 195.716 531.568 196.846C535.838 197.977 544.366 195.693 544.366 195.693L544.533 189.208C541.116 189.785 534.177 190.719 531.034 189.9Z" fill="#999DAA"/>
<path d="M469.958 136.165C469.958 134.215 469.353 131.919 469.342 129.484C469.26 127.111 470.142 124.802 471.797 123.057C475.676 118.926 504.843 96.0797 504.879 96.0566L505.816 97.4182C505.816 97.4182 476.506 120.415 472.924 124.257C472.254 124.957 471.734 125.78 471.394 126.677C471.053 127.574 470.9 128.528 470.943 129.484C470.943 131.596 471.548 133.869 471.56 136.165H469.958Z" fill="#26282D"/>
<path d="M502.27 102.634C501.617 103.164 500.372 102.634 499.482 101.364C498.592 100.153 498.403 98.7105 499.055 98.1797L523.3 78.3333C523.953 77.791 525.198 78.3333 526.088 79.591C526.977 80.8256 527.167 82.2564 526.515 82.7872L502.27 102.634Z" fill="black"/>
<path d="M473.968 135.034C473.968 136.915 472.532 137.019 470.765 137.019H470.492C468.737 137.019 467.301 136.915 467.301 135.034C467.276 134.603 467.338 134.171 467.485 133.763C467.632 133.355 467.86 132.979 468.156 132.657C468.453 132.336 468.812 132.074 469.213 131.888C469.614 131.702 470.049 131.595 470.492 131.572H470.765C471.21 131.593 471.646 131.699 472.048 131.885C472.45 132.07 472.811 132.332 473.108 132.654C473.406 132.975 473.636 133.352 473.783 133.76C473.93 134.169 473.993 134.602 473.968 135.034Z" fill="#999DAA"/>
<path d="M774.506 425.403H380.699C379.496 425.442 378.359 425.944 377.536 426.799C376.713 427.653 376.272 428.791 376.311 429.961C376.275 431.129 376.718 432.264 377.54 433.116C378.363 433.968 379.499 434.468 380.699 434.507H774.506V425.403Z" fill="#4A75DD"/>
<path style="mix-blend-mode:multiply" d="M183.168 198.035L216.38 235.985C216.38 235.985 183.523 266.793 175.529 262.524C167.534 258.255 162.623 238.616 165.387 232.397C168.151 226.178 183.168 198.035 183.168 198.035Z" fill="url(#paint5_linear)"/>
<path d="M155.091 406.849C155.091 406.849 143.585 485.912 144.523 504.87C168.4 507.027 179.016 495.247 178.731 489.627C178.447 484.008 191.862 411.73 192.313 407.484C192.764 403.238 202.051 371.956 191.257 366.106C155.672 346.814 155.091 406.849 155.091 406.849Z" fill="black"/>
<path d="M189.787 378.51C232.488 362.783 249.095 362.633 241.574 392.034C237.779 406.964 217.78 489.846 221.41 499.135C211.203 504.922 199.364 507.388 187.616 506.174C187.616 506.174 188.422 423.788 189.988 416.265C191.554 408.741 189.787 378.51 189.787 378.51Z" fill="black"/>
<path d="M190.024 498.881C187.651 506.958 185.516 511.193 187.853 516.27C190.19 521.347 201.506 519.501 208.077 516.143C211.98 514.17 220.745 517.654 225.265 517.516C234.944 517.227 241.242 505.781 233.295 505.1C225.348 504.42 217.329 500.404 213.747 497.231C210.165 494.058 190.024 498.881 190.024 498.881Z" fill="black"/>
<path d="M151.39 498.12C150.501 503.266 146.551 508.412 150.501 511.701C154.451 514.989 158.424 514.989 163.252 513.57C168.08 512.151 169.847 509.347 172.492 507.016C175.137 504.685 182.159 503.266 184.354 499.989C186.548 496.712 188.304 487.296 184.354 488.277C180.404 489.258 168.934 490.585 168.934 490.585L151.39 498.12Z" fill="black"/>
<path d="M70.1857 528.616L65.9392 528.57L83.8147 411.984L85.76 396.834L154.249 412.422L149.813 548.728L144.392 548.266L141.759 427.503L94.0513 415.815L70.1857 528.616Z" fill="#4A75DD"/>
<path d="M211.861 387.441L153.015 396.314L145.388 395.16C136.206 394.088 126.898 394.754 117.976 397.122L85.8074 393.949V409.122C85.1195 410.818 85.8074 417.199 91.5129 418.053C91.5129 418.053 140.003 430.746 147.037 428.438L213.628 410.034L211.861 387.441Z" fill="#4A75DD"/>
<path d="M154.261 407.091C144.261 409.457 137.133 405.338 128.557 404.368L92.7463 397.561C84.3127 396.614 82.3793 393.764 88.5117 391.134L121.214 387.014C128.331 384.014 137.821 381.441 147.31 382.48L205.064 386.103C215.111 387.176 219.903 389.622 211.434 392.61L154.261 407.091Z" fill="#6597EF"/>
<path d="M139.363 207.531C139.825 212.631 136.421 230.285 133.301 237.358C130.182 244.432 119.933 252.716 119.933 252.716L157.57 268.87C157.57 268.87 159.421 239.955 167.712 236.135C172.824 233.781 139.363 207.531 139.363 207.531Z" fill="#CC9483"/>
<path d="M184.259 206.066C183.002 223.27 177.012 241.558 169.776 242.851C162.54 244.143 144.368 232.766 141.948 217.893C139.529 203.02 147.132 188.25 161.022 187.973C176.181 187.685 185.362 191.031 184.259 206.066Z" fill="#E0AC9B"/>
<path d="M185.564 206.446C192.681 195.012 168.958 169.811 148.793 178.662C128.628 187.512 128.07 195.969 129.814 207.508C131.558 219.047 136.113 229.662 131.451 234.197C128.26 237.312 163.228 241.962 163.228 241.962C163.228 241.962 172.196 229.616 171.531 227.02C167.878 213.497 174.07 211.489 175.232 216.197C176.134 219.785 176.276 220.12 176.276 220.12L177.462 221.193C177.462 221.193 178.186 209.493 181.175 205.223C182.836 202.8 185.564 206.446 185.564 206.446Z" fill="black"/>
<path d="M130.051 239.885C117.893 247.028 108.7 250.12 101.738 251.182C101.738 251.182 96.5777 251.47 95.7 253.709C83.9451 283.79 108.273 308.944 107.004 320.806C101.844 369.268 115.663 386.276 117.229 392.414C117.964 395.437 133.989 399.118 150.37 399.407C159.243 402.372 196.322 390.66 199.335 388.03C200.782 383.957 197.497 374.795 195.184 364.514C189.395 338.91 180.511 321.544 181.531 308.321C182.266 298.64 207.769 314.921 210.568 309.475C213.367 304.029 193.511 276.728 193.511 276.728C193.511 276.728 190.593 264.751 167.297 252.774C162.825 250.538 158.621 247.829 154.759 244.697L130.051 239.885Z" fill="black"/>
<path d="M217.175 401.922L236.853 526.158L233.544 525.72L206.096 411.418L217.175 401.922Z" fill="#6597EF"/>
<path d="M132.068 235.305C133.313 235.974 156.61 243.739 164.32 243.289C166.111 245.735 161.817 251.943 161.817 251.943C161.817 251.943 131.641 242.632 130.609 241.074C129.577 239.516 132.068 235.305 132.068 235.305Z" fill="white"/>
<path d="M127.631 235.605L119.542 244.362C119.542 244.362 136.35 252.209 142.328 253.859C155.091 257.413 168.542 255.866 168.542 255.866L165.351 247.432C165.351 247.432 158.424 248.02 140.11 241.224C135.08 239.355 127.631 235.605 127.631 235.605Z" fill="black"/>
<path d="M157.084 392.484C157.179 399.407 150.963 403.907 139.825 402.972L99.6024 394.687C86.8393 392.91 84.977 389.103 83.5181 381.995L68.8571 280.64C66.5796 269.655 73.2933 260.839 88.0017 262.293L132.127 268.963C146.634 270.382 148.294 278.447 148.437 289.121L157.084 392.484Z" fill="#6597EF"/>
<path d="M251.254 235.189C255.82 223.028 258.11 216.243 246.794 206.573C243.128 203.943 236.379 200.216 234.564 199.731C212.751 193.858 207.033 207.877 203.534 224.989C200.332 240.728 204.364 252.463 209.773 258.624L207.555 267.624L235.074 271.778C235.074 271.778 234.79 265.259 237.02 260.816C241.764 261.105 243.686 262.593 250.91 241.859C251.455 240.266 250.684 236.643 251.254 235.189Z" fill="#E0AC9B"/>
<path d="M240.459 464.335C244.884 459.419 258.798 424.146 261.739 412.792C280.35 341.021 286.435 410.484 279.71 419.126C263.637 439.688 259.948 470.058 257.528 475.665C252.404 487.643 240.459 464.335 240.459 464.335Z" fill="#CC9483"/>
<path d="M259.545 466.238C257.267 460.884 249.118 458.334 243.01 457.838C240.219 460.58 238.126 463.919 236.901 467.588C235.205 472.781 236.699 476.219 239.51 478.585C239.582 488.543 235.359 499.239 235.359 499.239C235.359 499.239 234.173 499.146 238.182 499.85C238.87 495.408 243.982 487.585 248.857 482.785C255.82 484.504 261.822 471.569 259.545 466.238Z" fill="black"/>
<path d="M283.066 434.288L273.719 466.85L241.634 451.031L246.794 431.703L283.066 434.288Z" fill="#0D2263"/>
<path d="M306.042 495.546C304.856 497.566 308.628 522.27 311.25 526.435C313.871 530.601 285.154 499.62 285.154 499.62L288.997 480.004L306.042 495.546Z" fill="#E0AC9B"/>
<path d="M304.465 523.112C305.805 523.331 314.879 517.701 317.145 520.193C318.568 521.774 319.909 534.928 313.942 534.732C308.806 534.651 304.465 523.112 304.465 523.112Z" fill="#26282D"/>
<path d="M315.923 527.901C311.522 525.432 305.319 514.135 299.922 504.927C299.442 503.738 298.783 502.626 297.965 501.627C293.599 496.435 285.889 495.65 284.312 496.712C278.084 500.958 279.449 514.839 283.126 515.877C286.625 522.401 288.364 529.683 288.179 537.039C289.851 537.201 290.551 537.293 290.551 537.293C290.551 537.293 291.002 525.605 292.093 518.22C295.153 525.374 296.292 534.582 299.21 535.816C304.37 537.974 316.457 535.285 316.457 535.285C316.457 535.285 319.932 530.162 315.923 527.901Z" fill="black"/>
<path d="M289.922 369.868C303.955 361.133 336.871 349.998 326.112 389.299C322.388 402.961 311.973 501.004 311.973 501.004L283.707 491.958C283.707 491.958 282.865 393.176 289.258 381.28C295.652 369.383 289.922 369.868 289.922 369.868Z" fill="#1F3E93"/>
<path d="M339.848 562.863L343.241 563.555L327.275 430.076C327.366 429.953 327.446 429.822 327.512 429.684V408.511L262.048 418.365L253.578 417.142C243.368 415.911 233.009 416.632 223.082 419.265L181.78 419.692L181.211 439.376L168.104 565.805L173.192 566.082L195.551 445.734C207.603 447.765 238.597 451.804 254.326 453.2L265.428 582.64L270.695 583.101L268.204 452.807L316.315 438.303L339.848 562.863Z" fill="#4A75DD"/>
<path d="M265.82 429.361C258.003 432.223 188.719 422.172 188.719 422.172C179.348 421.111 177.19 417.949 183.974 415.007C183.974 415.007 245.252 401.818 255.714 402.972L318.177 404.853C329.363 406.007 330.644 409.792 321.237 413.115L265.82 429.361Z" fill="#6597EF"/>
<path d="M240.685 405.257C254.99 415.399 269.034 423.603 290.504 412.18C311.973 400.757 334.024 364.872 334.463 358.006C335.578 340.698 324.748 328.594 304.406 348.279C288.985 363.175 274.858 361.929 271.442 358.537C268.026 355.145 240.685 405.257 240.685 405.257Z" fill="#0D2263"/>
<path d="M304.548 364.133L252.701 358.837L298.202 312.913L353.347 315.186L304.548 364.133Z" fill="#999DAA"/>
<path d="M301.215 355.572L262.902 351.671L297.538 317.459L339.943 319.179L301.215 355.572Z" fill="white"/>
<path d="M319.482 318.186C318.396 316.515 317.207 314.908 315.923 313.375C314.849 314.556 313.969 315.891 313.313 317.333C313.313 317.759 313.918 319.64 315.022 319.583C316.544 319.235 318.036 318.768 319.482 318.186Z" fill="#CC9483"/>
<path d="M300.835 331.41C300.835 331.41 300.598 332.206 300.717 332.321C300.835 332.437 301.547 332.01 301.547 332.01L300.835 331.41Z" fill="black"/>
<path d="M300.812 331.421C301.306 330.151 301.917 328.927 302.638 327.763L304.441 329.333C303.544 330.314 302.564 331.221 301.511 332.044C301.108 331.687 300.847 331.479 300.812 331.421Z" fill="#7AA7D6"/>
<path d="M302.614 327.844C303.16 326.69 313.432 312.267 313.432 312.267L316.421 314.829C316.421 314.829 305.307 328.548 304.37 329.367C303.759 328.889 303.173 328.38 302.614 327.844Z" fill="#700000"/>
<path d="M323.432 302.24L322.008 300.844C322.139 300.705 323.432 298.709 325.069 300.059C326.658 301.444 325.069 303.267 325.069 303.394L323.491 302.24H323.432Z" fill="#8FA4BC"/>
<path d="M313.551 314.69C313.622 314.598 321.795 300.959 322.281 300.521C322.981 301.098 323.467 301.536 323.787 301.79C324.108 302.044 324.594 302.482 325.294 303.105C325.009 303.694 316.184 315.106 316.125 315.198L313.551 314.69Z" fill="#700000"/>
<path d="M313.432 312.267L314.856 313.502L303.48 328.617C302.994 328.213 302.733 327.937 302.614 327.844C303.16 326.702 313.432 312.267 313.432 312.267Z" fill="#990000"/>
<path d="M313.978 313.571L312.946 312.913C313.017 312.809 321.771 300.925 322.281 300.498C322.933 301.086 323.301 301.398 323.704 301.755L314.381 314.183L314.037 314.079L313.978 313.571Z" fill="#990000"/>
<path d="M325.009 300.002L323.704 301.732L322.281 300.486C322.364 300.336 323.681 298.859 325.009 300.002Z" fill="#8FA4BC"/>
<path d="M308.96 336.752C312.068 335.321 317.477 333.533 318.817 329.737C320.158 325.94 321.024 320.125 318.924 317.113C316.825 314.102 316.409 316.479 314.274 317.471C312.769 318.298 311.003 318.553 309.316 318.186C309.316 318.186 313.586 313.386 312.27 312.902C310.953 312.417 310.609 313.698 308.474 315.417C306.426 317.176 304.511 319.078 302.745 321.106C300.076 323.944 297.407 330.579 297.407 330.579L308.96 336.752Z" fill="#E0AC9B"/>
<path d="M308.047 325.179C307.236 324.724 306.304 324.518 305.371 324.586C304.438 324.653 303.548 324.993 302.816 325.56L298 326.033C298 326.033 289.246 330.498 288.416 328.975C285.842 324.36 277.883 304.744 273.53 296.09C268.868 286.755 259.213 279.936 259.213 279.936C248.537 278.644 238.182 282.497 241.562 299.552C247.054 327.463 279.52 350.425 283.956 352.525C293.991 357.233 313.266 339.475 313.266 339.475C312.863 336.302 312.471 327.74 308.047 325.179Z" fill="black"/>
<path d="M288.843 323.817C284.561 315.867 271.371 293.044 266.923 284.344C258.086 273.417 257.279 280.374 257.279 280.374C265.867 302.298 286.85 334.721 289.246 338.067C290.812 340.283 303.409 330.106 309.352 326.46C310.099 325.975 306.742 322.386 302.923 321.313C298.902 320.575 296.268 324.775 291.453 325.733C290.907 325.601 290.395 325.364 289.947 325.035C289.498 324.705 289.123 324.291 288.843 323.817Z" fill="#26282D"/>
<path d="M294.572 377.276C286.269 371.114 279.686 348.279 279.686 348.279C279.686 348.279 263.364 281.355 261.371 280.524C255.702 278.078 248.857 275.447 243.377 273.07C245.119 271.723 246.515 270.001 247.458 268.04C241.669 263.193 217.27 259.224 210.687 258.67L209.999 261.52L200.509 259.293C198.137 266.99 187.936 272.69 182.314 275.263C176.691 277.836 171.342 278.113 173.749 290.078C176.157 302.044 230.946 402.407 235.572 404.772C261.134 417.811 299.317 380.749 294.572 377.276Z" fill="black"/>
<path d="M267.373 417.257C268.156 424.919 258.679 429.719 246.224 428.242L199.501 421.319C187.26 419.865 181.638 415.699 179.253 407.934L158.709 295.213C154.949 282.913 161.164 273.001 177.403 274.64L236.628 282.947C249.901 283.882 250.862 296.701 252.119 308.898L267.373 417.257Z" fill="#6597EF"/>
<path d="M214.186 199.835C221.576 194.492 234.208 194.066 241.396 197.885C248.585 201.704 260.921 209.285 251.052 232.501C240.471 257.424 224.138 256.732 218.67 256.639C208.801 256.501 205.895 251.909 205.895 251.909C205.895 251.909 190.19 217.2 214.186 199.835Z" fill="#931F00"/>
<path d="M207.294 233.285C212.11 230.885 215.835 245.297 216.451 247.859C228.539 239.424 221.659 225.635 209.785 228.312C202.977 229.835 204.175 236.955 204.175 236.955L207.294 233.285Z" fill="#C12900"/>
<path d="M203.392 233.701C199.561 236.528 188.316 253.847 190.819 269.401C193.321 284.955 203.119 332.494 193.938 341.148C204.78 336.267 204.151 321.602 204.151 321.602L201.862 337.606C201.862 337.606 208.741 324.717 209.785 318.936C210.26 321.452 209.287 328.514 205.396 332.125C205.396 332.125 221.706 326.887 219.63 305.229C217.472 282.509 215.823 267.267 216.629 256.766C217.887 240.543 221.766 239.897 218.504 234.774C214.233 227.989 206.12 231.681 203.392 233.701Z" fill="#931F00"/>
<path d="M216.036 230.539C208.801 232.593 197.342 241.639 199.845 266.216C202.348 290.794 206.796 313.617 204.851 319.536C207.069 315.094 206.239 289.028 204.293 276.001C208.184 289.617 207.852 316.271 205.396 322.79C208.457 317.46 212.347 298.79 211.517 291.394C212.347 300.625 214.85 318.348 212.905 322.79C217.649 315.683 216.238 299.99 214.85 283.398C213.462 266.805 209.168 246.97 219.844 237.866C225.905 232.616 216.036 230.539 216.036 230.539Z" fill="#C12900"/>
<path d="M243.199 198.739C240.531 197.481 237.067 196.246 237.067 196.246C240.625 197.181 254.397 210.82 240.625 226.616C244.599 227.551 248.929 212.977 248.929 212.977C248.929 212.977 247.126 226.316 238.111 230.285C241.515 230.124 245.382 226.766 248.075 222.439C245.864 228.405 241.391 233.322 235.572 236.181C244.231 237.578 254.041 223.189 254.195 216.497C254.307 212.822 253.33 209.194 251.38 206.046C249.431 202.897 246.591 200.36 243.199 198.739Z" fill="#C12900"/>
<path d="M535.364 121.43C533.117 119.982 530.97 118.394 528.935 116.676C527.535 115.28 524.19 115.257 521.426 113.215C520.418 112.464 518.686 112.603 519.291 114.022C519.896 115.441 521.948 116.33 523.134 117.968C524.617 119.976 517.891 119.399 516.124 119.122C514.629 118.903 505.448 119.03 505.448 120.207C505.508 122.376 515.851 121.211 515.673 122.122C515.543 122.849 504.298 121.915 504.594 123.276C505.223 126.08 514.143 124.719 515.163 126.126C515.163 126.126 512.921 126.126 510.537 126.126C508.153 126.126 506.16 125.538 505.792 126.011C503.147 129.311 517.346 127.315 516.741 129.172C516.266 130.615 508.758 129.519 509.209 131.284C509.434 132.172 518.52 132.126 518.52 132.126C518.52 132.126 530.844 134.434 535.364 134.249C538.068 134.099 545.909 137.099 545.909 137.099L544.462 124.476C544.462 124.476 538.08 123.311 535.364 121.43Z" fill="#E0AC9B"/>
<path d="M540.322 120.622L534.154 120.161C534.154 120.161 532.291 137.019 531.615 139.211L540.428 140.111L540.322 120.622Z" fill="#D4D5D6"/>
<path d="M582.146 79.5795C589.263 75.1487 593.308 82.2103 594.28 87.6565C596.653 100.753 586.807 147.334 575.302 148.488C571.435 148.88 534.723 146.55 535.209 144.646C536.763 138.599 537.902 123.542 537.297 119.93C547.972 122.157 571.482 122.318 572.882 119.515C575.835 113.365 582.146 79.5795 582.146 79.5795Z" fill="black"/>
<path d="M596.475 67.0254C590.354 67.0947 570.782 135.161 574.685 174.185C581.683 188.308 605.834 178.338 612.073 178.338C618.312 178.338 633.103 77.041 629.213 73.7178C625.322 70.3947 624.539 62.9177 621.408 62.9177C618.276 62.9177 601.136 66.9793 596.475 67.0254Z" fill="#D4D5D6"/>
<path d="M615.679 26.9518C615.204 31.8788 620.293 50.0983 623.175 56.9522C626.058 63.8062 610.495 66.31 610.495 66.31L601.291 69.9909C601.291 69.9909 598.918 57.4715 595.858 52.8445C592.798 48.2175 615.679 26.9518 615.679 26.9518Z" fill="#E0AC9B"/>
<path d="M593.545 67.6255C590.212 73.7409 583.308 97.7758 580.046 122.342C578.113 136.892 577.935 156.692 577.674 163.073C576.867 184.062 576.251 207.866 576.251 207.866L566.37 208.673C566.37 208.673 579.928 80.9525 582.525 77.5602C585.123 74.1678 593.545 67.6255 593.545 67.6255Z" fill="black"/>
<path d="M650.054 370.652C650.054 370.652 636.555 366.095 634.634 373.26C632.712 380.426 627.315 387.499 617.79 395.403C614.635 398.034 613.045 400.191 612.69 401.911C612.36 402.734 612.273 403.63 612.438 404.498C612.604 405.367 613.015 406.173 613.627 406.826C616.355 409.641 626.769 411.361 638.204 403.364C640.576 401.691 641.276 400.387 643.447 401.334C644.633 401.841 649.378 400.076 649.378 400.076C650.228 397.103 650.604 394.021 650.493 390.937C651.26 384.186 651.112 377.366 650.054 370.652Z" fill="black"/>
<path d="M612.275 358.11C612.275 358.11 598.041 353.368 596.854 360.718C595.265 371.172 584.839 376.803 574.068 381.66C570.367 383.333 569.667 384.649 569.324 386.38C568.996 387.202 568.912 388.097 569.079 388.963C569.247 389.83 569.66 390.633 570.272 391.284C573.001 394.11 584.91 394.468 594.945 391.168C597.661 390.268 598.586 386.899 605.691 388.803C606.877 389.114 611.681 387.533 611.681 387.533C612.517 384.562 612.889 381.485 612.785 378.406C613.522 371.648 613.351 364.825 612.275 358.11Z" fill="black"/>
<path d="M630.885 175.223C630.885 175.223 638.927 202.085 635.274 218.827C630.814 239.262 640.125 286.178 641.964 293.078C643.803 299.979 656.198 345.464 653.921 385.941C653.921 385.941 636.911 391.122 622.665 385.687C622.665 368.91 618.039 309.186 611.088 298.328C608.479 294.255 605.537 281.551 605.537 275.632C605.537 269.713 588.409 200.112 590.259 184.327C592.11 168.542 630.885 175.223 630.885 175.223Z" fill="black"/>
<path d="M577.116 170.931C573.653 182.031 578.884 270.636 581.28 282.971C584.53 299.505 587.306 369.579 587.306 374.76C597.032 376.987 616.023 378.96 616.023 378.96C616.023 378.96 620.898 320.483 610.922 281.24C607.364 267.197 616.023 198.566 618.798 186.727C621.574 174.888 577.116 170.931 577.116 170.931Z" fill="black"/>
<path d="M592.572 215.424C595.348 226.766 606.877 295.709 607.423 298.098C608.799 304.271 610.424 306.013 612.737 314.886C615.05 323.76 620.827 372.856 622.665 385.687C630.079 386.183 643.055 387.176 642.593 384.707C642.13 382.237 633.779 383.714 633.779 381.245C633.779 378.776 621.004 315.694 620.53 311.263C620.056 306.832 614.243 302.321 610.898 287.748C593.746 213.22 592.572 215.424 592.572 215.424Z" fill="#26282D"/>
<path d="M601.516 5.31694C591.457 5.31694 586.76 9.40161 584.755 25.3134C584.625 26.3172 585.728 28.5788 585.657 29.5596C585.669 29.7709 585.669 29.9828 585.657 30.1942C584.376 34.175 582.015 40.2097 582.17 41.2482C582.3 42.102 584.21 43.0136 585.977 43.2328C586.297 45.6905 586.76 47.7213 587.092 49.5329C587.946 54.1484 588.456 55.3714 589.749 55.6022C594.565 56.4907 600.081 54.8291 605.371 53.6753C612.618 52.0714 613.176 40.7059 614.303 32.5019C616.118 18.9556 614.35 5.25925 601.516 5.31694Z" fill="#E0AC9B"/>
<path d="M613.532 27.1826C615.275 24.2287 619.024 24.5864 619.795 27.1826C620.566 29.7788 618.775 39.0328 614.291 39.6674C609.807 40.302 613.532 27.1826 613.532 27.1826Z" fill="#E0AC9B"/>
<path d="M600.519 67.2447C600.199 67.1524 600.021 67.4178 597.352 66.1947C597.352 66.1947 595.419 74.5602 595.3 77.0987C595.182 79.6372 583.439 128.63 580.438 143.826C579.821 146.884 583.889 153.496 584.423 152.746C586.511 149.838 600.519 67.2447 600.519 67.2447Z" fill="#0D2263"/>
<path d="M600.52 67.2447C600.009 67.8678 599.713 73.3255 598.883 76.1409C596.024 87.2757 584.234 151.142 584.234 151.142C587.773 150.794 591.17 149.606 594.126 147.68C594.245 145.142 600.057 83.8372 602.109 77.964C602.109 77.964 608.04 70.4986 610.282 69.0447C610.282 69.0447 601.326 66.2523 600.52 67.2447Z" fill="#1F3E93"/>
<path d="M622.618 50.456C620.744 53.6868 600.84 66.8177 600.84 66.8177L610.626 77.041L626.971 58.2099L622.618 50.456Z" fill="white"/>
<path d="M598.017 62.1446C593.747 66.2293 586.701 72.3447 586.701 72.3447L587.887 74.5486L584.329 76.7294L578.706 127.811C578.706 127.811 590.366 74.3871 594.185 69.0562C595.626 67.2138 596.949 65.2871 598.147 63.2869L598.017 62.1446Z" fill="#26282D"/>
<path d="M586.76 14.0632C584.815 11.9863 585.716 9.06698 588.634 5.82463C591.113 3.10152 597.044 1.82073 597.044 1.82073L591.754 5.28232C594.328 3.35248 597.26 1.92261 600.389 1.07072C600.852 0.966872 597.827 2.95151 597.827 2.95151C600.438 1.44719 603.343 0.491359 606.356 0.145567C609.37 -0.200224 612.424 0.0716882 615.323 0.943794C622.167 2.83613 623.223 6.32079 623.223 6.32079C623.223 6.32079 636.211 15.2517 626.497 37.1289C626.497 37.1289 622.736 43.9251 625.642 47.0406C622.238 49.106 612.891 44.8367 612.891 44.8367C612.891 44.8367 611.705 38.8251 612.773 36.1596C615.145 30.4596 610.222 25.671 608.763 27.748C608.253 28.4749 608.633 32.3634 607.672 32.9288C606.711 33.4942 603.343 37.3943 603.544 36.552C604.311 33.0351 604.156 29.3871 603.095 25.9435C602.034 22.4998 600.1 19.3708 597.471 16.844C595.099 14.7671 606.095 10.7285 609.001 10.1978C611.907 9.66699 604.137 9.74776 596.641 14.9978C595.158 16.094 586.76 14.0632 586.76 14.0632Z" fill="black"/>
<path d="M608.906 27.7711C610.222 26.8711 614.244 25.7518 614.362 29.398C614.481 33.0442 612.31 40.6366 609.404 40.3135C606.498 39.9905 608.906 27.7711 608.906 27.7711Z" fill="#E0AC9B"/>
<path d="M623.685 55.9137C627.647 63.76 638.56 68.7216 640.908 73.7063C643.257 78.691 647.907 90.3219 644.016 111.922C640.125 133.522 640.908 152.607 643.233 163.396C645.558 174.185 648.227 199.846 651.536 211.108C652.236 213.485 602.299 218.689 597.53 211.916C592.762 205.143 595.609 160.465 596.475 148.453C596.878 142.765 597.198 131.03 599.25 117.068C601.528 101.549 610.033 84.5641 613.888 76.7409C620.174 63.9792 623.685 55.9137 623.685 55.9137Z" fill="black"/>
<path d="M624.67 53.8368L629.094 61.1177L628.216 70.5332L619.984 69.5755L623.436 77.8948C623.436 77.8948 600.33 115.303 598.527 120.311C600.294 106.522 608.775 80.0179 612.595 72.4832C616.414 64.9485 624.67 53.8368 624.67 53.8368Z" fill="#26282D"/>
<path d="M579.168 146.123C576.411 146.151 573.656 145.981 570.925 145.615C568.932 145.188 566.429 146.261 562.052 144.461C560.866 143.988 559.253 144.461 560.534 145.407C562.338 146.449 564.246 147.311 566.227 147.98C568.6 148.915 561.483 152.434 559.704 153.242C558.233 153.946 550.523 160.454 551.151 161.492C552.338 163.419 560.724 155.896 561.02 156.877C561.269 157.615 550.463 163.373 551.412 164.377C553.429 166.546 561.293 160.465 562.942 161.134C562.942 161.134 560.925 162.45 558.755 163.834C556.774 165.104 554.01 165.727 553.939 166.546C553.797 169.304 565.978 161.931 566.405 163.961C566.738 165.554 560.036 169.396 561.352 170.723C562.017 171.381 569.525 165.6 569.525 165.6C569.525 165.6 581.837 160.465 585.775 157.604C588.148 155.873 596.759 153.969 596.759 153.969L588.919 143.469C588.919 143.469 582.656 146.18 579.168 146.123Z" fill="#E0AC9B"/>
<path d="M598.764 60.333L594.174 69.2408L592.406 74.7217C592.406 74.7217 598.989 66.6447 600.116 67.1524C601.243 67.6601 598.764 60.333 598.764 60.333Z" fill="white"/>
<path d="M587.662 144.023L581.327 145.719C581.327 145.719 584.613 163.281 584.613 165.715L593.735 163.546L587.662 144.023Z" fill="white"/>
<path d="M624.931 80.9987C629.118 72.9217 637.279 70.5447 640.908 74.9294C649.65 85.4642 645.843 143.007 635.95 150.715C632.653 153.288 589.381 169.661 588.883 167.631C588.812 167.331 586.416 147.369 584.044 144.426C595.656 141.392 621.681 128.919 621.515 125.584C621.123 118.292 624.931 80.9987 624.931 80.9987Z" fill="#26282D"/>
</g>
<defs>
<linearGradient id="paint0_linear" x1="292.064" y1="161.828" x2="317.133" y2="130.852" gradientUnits="userSpaceOnUse">
<stop stop-color="white"/>
<stop offset="0.52" stop-color="#C6C0B9"/>
</linearGradient>
<linearGradient id="paint1_linear" x1="293.885" y1="192.916" x2="322.107" y2="168.398" gradientUnits="userSpaceOnUse">
<stop stop-color="white"/>
<stop offset="1" stop-color="#C6C0B9"/>
</linearGradient>
<linearGradient id="paint2_linear" x1="228.282" y1="177.7" x2="249.186" y2="143.677" gradientUnits="userSpaceOnUse">
<stop stop-color="white"/>
<stop offset="0.13" stop-color="#FBFAFA"/>
<stop offset="0.29" stop-color="#EEEBEA"/>
<stop offset="0.47" stop-color="#D9D2D0"/>
<stop offset="0.66" stop-color="#BCB0AC"/>
<stop offset="0.71" stop-color="#B3A6A1"/>
</linearGradient>
<linearGradient id="paint3_linear" x1="4466.24" y1="6267.82" x2="4802.09" y2="5691.83" gradientUnits="userSpaceOnUse">
<stop stop-color="white"/>
<stop offset="0.13" stop-color="#FBFAFA"/>
<stop offset="0.29" stop-color="#EEEBEA"/>
<stop offset="0.47" stop-color="#D9D2D0"/>
<stop offset="0.66" stop-color="#BCB0AC"/>
<stop offset="0.71" stop-color="#B3A6A1"/>
</linearGradient>
<linearGradient id="paint4_linear" x1="577.389" y1="466.769" x2="577.389" y2="425.415" gradientUnits="userSpaceOnUse">
<stop stop-color="white"/>
<stop offset="0.2" stop-color="#EDEDED"/>
<stop offset="0.59" stop-color="#BDBDBD"/>
<stop offset="0.71" stop-color="#ADADAD"/>
</linearGradient>
<linearGradient id="paint5_linear" x1="11497.9" y1="17586.7" x2="8199.21" y2="17535.5" gradientUnits="userSpaceOnUse">
<stop stop-color="white"/>
<stop offset="0.13" stop-color="#FBFAFA"/>
<stop offset="0.29" stop-color="#EEEBEA"/>
<stop offset="0.47" stop-color="#D9D2D0"/>
<stop offset="0.66" stop-color="#BCB0AC"/>
<stop offset="0.71" stop-color="#B3A6A1"/>
</linearGradient>
<clipPath id="clip0">
<rect width="750" height="583.102" fill="white"/>
</clipPath>
</defs>
</svg>
