<svg width="40" height="40" viewBox="0 0 40 40" fill="none" xmlns="http://www.w3.org/2000/svg">
<path d="M36.4844 4.76562H12.8906C10.9516 4.76562 9.375 6.34297 9.375 8.28125C9.375 10.2203 10.9516 11.7969 12.8906 11.7969H36.4844C38.4227 11.7969 40 10.2203 40 8.28125C40 6.34297 38.4227 4.76562 36.4844 4.76562Z" fill="#1D1DF5"/>
<path d="M36.4844 16.4844H12.8906C10.9516 16.4844 9.375 18.0617 9.375 20C9.375 21.9391 10.9516 23.5156 12.8906 23.5156H36.4844C38.4227 23.5156 40 21.9391 40 20C40 18.0617 38.4227 16.4844 36.4844 16.4844Z" fill="#1D1DF5"/>
<path d="M36.4844 28.2031H12.8906C10.9516 28.2031 9.375 29.7805 9.375 31.7188C9.375 33.6578 10.9516 35.2344 12.8906 35.2344H36.4844C38.4227 35.2344 40 33.6578 40 31.7188C40 29.7805 38.4227 28.2031 36.4844 28.2031Z" fill="#1D1DF5"/>
<path d="M3.51562 4.76562C1.57656 4.76562 0 6.34297 0 8.28125C0 10.2203 1.57656 11.7969 3.51562 11.7969C5.45391 11.7969 7.03125 10.2203 7.03125 8.28125C7.03125 6.34297 5.45391 4.76562 3.51562 4.76562Z" fill="#1D1DF5"/>
<path d="M3.51562 16.4844C1.57656 16.4844 0 18.0617 0 20C0 21.9391 1.57656 23.5156 3.51562 23.5156C5.45391 23.5156 7.03125 21.9391 7.03125 20C7.03125 18.0617 5.45391 16.4844 3.51562 16.4844Z" fill="#1D1DF5"/>
<path d="M3.51562 28.2031C1.57656 28.2031 0 29.7805 0 31.7188C0 33.6578 1.57656 35.2344 3.51562 35.2344C5.45391 35.2344 7.03125 33.6578 7.03125 31.7188C7.03125 29.7805 5.45391 28.2031 3.51562 28.2031Z" fill="#1D1DF5"/>
</svg>
