<svg width="744" height="648" viewBox="0 0 744 648" fill="none" xmlns="http://www.w3.org/2000/svg">
<g clip-path="url(#clip0)">
<path d="M692.677 167.587C690.753 167.587 688.79 167.207 686.943 166.413L533.012 99.3783C526.675 96.6192 524.11 89.9038 527.278 84.3844C530.446 78.8651 538.169 76.6413 544.493 79.3903L698.424 146.425C704.761 149.184 707.326 155.9 704.158 161.419C701.913 165.33 697.385 167.587 692.677 167.587Z" fill="#E7ECED"/>
<path d="M602.909 312.827C599.085 312.827 595.302 311.341 592.775 308.515L502.982 207.964C498.632 203.081 499.647 196.076 505.227 192.289C510.82 188.468 518.876 189.385 523.224 194.245L613.017 294.796C617.366 299.679 616.352 306.684 610.772 310.471C608.425 312.068 605.654 312.827 602.909 312.827Z" fill="#E7ECED"/>
<path d="M413.151 503.82C409.251 503.82 405.403 502.279 402.876 499.351C398.63 494.424 399.772 487.419 405.442 483.721L477.097 436.919C482.767 433.221 490.81 434.216 495.056 439.154C499.302 444.082 498.16 451.087 492.49 454.785L420.835 501.587C418.526 503.082 415.832 503.82 413.151 503.82Z" fill="#E7ECED"/>
<path d="M166.759 547.449H76.9661C69.885 547.449 64.1379 542.455 64.1379 536.276C64.1379 530.097 69.885 525.103 76.9661 525.103H166.759C173.84 525.103 179.587 530.097 179.587 536.276C179.586 542.455 173.839 547.449 166.759 547.449Z" fill="#E7ECED"/>
<path d="M341.547 325.844C338.969 325.844 336.352 325.162 334.094 323.755L223.429 254.877C217.669 251.29 216.335 244.319 220.454 239.292C224.572 234.265 232.589 233.113 238.347 236.7L349.011 305.578C354.772 309.165 356.106 316.136 351.987 321.163C349.488 324.224 345.55 325.844 341.547 325.844Z" fill="#E7ECED"/>
<path d="M218.98 189.149C215.401 189.149 211.848 187.864 209.321 185.328C204.652 180.681 205.203 173.62 210.54 169.563L312.263 92.1388C317.586 88.0723 325.693 88.5418 330.364 93.2006C335.032 97.848 334.482 104.909 329.144 108.965L227.421 186.39C224.983 188.244 221.969 189.149 218.98 189.149Z" fill="#E7ECED"/>
<path d="M128.276 156.414C121.195 156.414 115.448 151.42 115.448 145.241V67.0352C115.448 60.8565 121.195 55.8623 128.276 55.8623C135.357 55.8623 141.104 60.8565 141.104 67.0352V145.242C141.103 151.42 135.357 156.414 128.276 156.414Z" fill="#E7ECED"/>
<path d="M533.961 605.154C532.075 605.154 530.164 604.795 528.355 604.025L392.036 546.32C385.661 543.628 383.004 536.935 386.11 531.383C389.214 525.831 396.872 523.528 403.259 526.222L539.579 583.927C545.953 586.619 548.61 593.311 545.504 598.863C543.287 602.841 538.72 605.154 533.961 605.154Z" fill="#E7ECED"/>
<path d="M256.552 256.965C256.552 195.259 199.123 145.241 128.276 145.241C57.429 145.241 0 195.261 0 256.965C0 298.291 25.8351 334.29 64.138 353.617V324.166C64.138 311.731 76.1961 301.653 91.063 301.653H165.489C180.356 301.653 192.414 311.73 192.414 324.166V353.594C230.73 334.301 256.552 298.293 256.552 256.965Z" fill="#AAAAFF"/>
<path d="M705.517 201.104C726.77 201.104 744 186.098 744 167.586C744 149.075 726.77 134.069 705.517 134.069C684.263 134.069 667.034 149.075 667.034 167.586C667.034 186.098 684.263 201.104 705.517 201.104Z" fill="#26282D" fill-opacity="0.7"/>
<path d="M38.4831 569.793C59.7367 569.793 76.9662 554.787 76.9662 536.275C76.9662 517.764 59.7367 502.758 38.4831 502.758C17.2295 502.758 0 517.764 0 536.275C0 554.787 17.2295 569.793 38.4831 569.793Z" fill="#26282D" fill-opacity="0.7"/>
<path d="M564.414 648C585.668 648 602.897 632.994 602.897 614.482C602.897 595.971 585.668 580.965 564.414 580.965C543.16 580.965 525.931 595.971 525.931 614.482C525.931 632.994 543.16 648 564.414 648Z" fill="#26282D" fill-opacity="0.7"/>
<path d="M372 368.69C393.254 368.69 410.483 353.684 410.483 335.173C410.483 316.662 393.254 301.655 372 301.655C350.746 301.655 333.517 316.662 333.517 335.173C333.517 353.684 350.746 368.69 372 368.69Z" fill="#26282D"/>
<path d="M128.276 256.966C149.53 256.966 166.759 241.96 166.759 223.449C166.759 204.937 149.53 189.931 128.276 189.931C107.022 189.931 89.793 204.937 89.793 223.449C89.793 241.96 107.022 256.966 128.276 256.966Z" fill="white"/>
<path d="M165.489 301.655H91.0629C76.196 301.655 64.1379 311.732 64.1379 324.168V353.619C83.0198 363.149 104.878 368.69 128.276 368.69C151.674 368.69 173.532 363.149 192.414 353.619V324.168C192.414 311.732 180.356 301.655 165.489 301.655Z" fill="white"/>
<path d="M564.414 111.724C564.414 50.0188 506.985 0 436.138 0C365.291 0 307.862 50.0188 307.862 111.724C307.862 153.051 333.697 189.049 372 208.376V178.925C372 166.49 384.058 156.412 398.925 156.412H473.351C488.218 156.412 500.276 166.489 500.276 178.925V208.354C538.592 189.059 564.414 153.051 564.414 111.724Z" fill="#AAAAFF"/>
<path d="M436.138 111.725C457.392 111.725 474.621 96.7182 474.621 78.207C474.621 59.6958 457.392 44.6895 436.138 44.6895C414.884 44.6895 397.655 59.6958 397.655 78.207C397.655 96.7182 414.884 111.725 436.138 111.725Z" fill="white"/>
<path d="M473.351 156.414H398.925C384.058 156.414 372 166.49 372 178.927V208.378C390.882 217.908 412.74 223.449 436.138 223.449C459.536 223.449 481.394 217.908 500.276 208.378V178.927C500.276 166.492 488.218 156.414 473.351 156.414Z" fill="white"/>
<path d="M731.172 402.207C731.172 340.501 673.743 290.482 602.896 290.482C532.049 290.482 474.62 340.501 474.62 402.207C474.62 443.533 500.455 479.531 538.758 498.859V469.408C538.758 456.973 550.816 446.895 565.683 446.895H640.109C654.976 446.895 667.034 456.972 667.034 469.408V498.836C705.35 479.543 731.172 443.533 731.172 402.207Z" fill="#AAAAFF"/>
<path d="M602.897 402.207C624.151 402.207 641.38 387.201 641.38 368.689C641.38 350.178 624.151 335.172 602.897 335.172C581.644 335.172 564.414 350.178 564.414 368.689C564.414 387.201 581.644 402.207 602.897 402.207Z" fill="white"/>
<path d="M640.109 446.896H565.683C550.816 446.896 538.758 456.973 538.758 469.409V498.86C557.64 508.39 579.498 513.931 602.896 513.931C626.294 513.931 648.152 508.39 667.034 498.86V469.409C667.034 456.974 654.977 446.896 640.109 446.896Z" fill="white"/>
<path d="M423.31 536.276C423.31 474.57 365.881 424.551 295.034 424.551C224.187 424.551 166.758 474.57 166.758 536.276C166.758 577.602 192.593 613.6 230.896 632.927V603.476C230.896 591.042 242.954 580.963 257.821 580.963H332.247C347.114 580.963 359.172 591.04 359.172 603.476V632.905C397.488 613.612 423.31 577.602 423.31 536.276Z" fill="#AAAAFF"/>
<path d="M295.034 536.276C316.287 536.276 333.517 521.269 333.517 502.758C333.517 484.247 316.287 469.241 295.034 469.241C273.78 469.241 256.551 484.247 256.551 502.758C256.551 521.269 273.78 536.276 295.034 536.276Z" fill="white"/>
<path d="M332.247 580.965H257.821C242.954 580.965 230.896 591.042 230.896 603.478V632.929C249.778 642.459 271.636 648 295.034 648C318.432 648 340.29 642.459 359.172 632.929V603.478C359.172 591.043 347.114 580.965 332.247 580.965Z" fill="white"/>
<path d="M128.276 67.0351C149.53 67.0351 166.759 52.0288 166.759 33.5175C166.759 15.0063 149.53 0 128.276 0C107.022 0 89.793 15.0063 89.793 33.5175C89.793 52.0288 107.022 67.0351 128.276 67.0351Z" fill="#26282D" fill-opacity="0.7"/>
</g>
<defs>
<clipPath id="clip0">
<rect width="744" height="648" fill="white"/>
</clipPath>
</defs>
</svg>
