<svg width="1919" height="939" viewBox="0 0 1919 939" fill="none" xmlns="http://www.w3.org/2000/svg">
<rect width="1920" height="939" transform="translate(-1)" fill="#CACAF6"/>
<path d="M-1 355L28.0667 325.38C57.1333 296.203 115 236.297 173.667 218.88C231.667 200.797 289.667 225.203 348.333 242.62C406.333 260.703 464.333 271.797 523 248.5C580.867 225.203 639 165.297 697.667 153.87C755.4 142 813.667 177.5 872.333 183.38C929.933 189.703 988.333 165.297 1045.67 153.87C1104.47 142 1163 142 1220.33 124.25C1279 106.5 1337.67 71 1395 88.75C1453.53 106.5 1512.33 177.5 1569.67 177.5C1628.07 177.5 1685.67 106.5 1744.33 82.8703C1802.6 58.7969 1860.33 83.2031 1889.67 94.6297L1919 106.5V0H1889.93C1860.87 0 1803 0 1744.33 0C1686.33 0 1628.33 0 1569.67 0C1511.67 0 1453.67 0 1395 0C1337.13 0 1279 0 1220.33 0C1162.6 0 1104.33 0 1045.67 0C988.067 0 929.667 0 872.333 0C813.533 0 755 0 697.667 0C639 0 580.333 0 523 0C464.467 0 405.667 0 348.333 0C289.933 0 232.333 0 173.667 0C115.4 0 57.6667 0 28.3333 0H-1V355Z" fill="#1D1DF5"/>
</svg>
