<svg width="650" height="610" viewBox="0 0 650 610" fill="none" xmlns="http://www.w3.org/2000/svg">
<path d="M618.018 356.078C672.11 269.344 620.882 162.089 517.095 132.265C485.112 123.021 451.189 121.336 418.345 127.361C385.5 133.385 354.75 146.932 328.829 166.797C310.268 180.314 295.664 198.028 286.383 218.283C277.102 238.537 273.448 260.67 275.762 282.611C290.306 395.29 221.406 433.062 218.451 434.625C216.746 435.507 215.347 436.831 214.421 438.438C213.495 440.045 213.08 441.868 213.227 443.689C213.374 445.511 214.075 447.255 215.248 448.713C216.421 450.172 218.015 451.283 219.842 451.915L291.312 476.534V523.695C291.677 533.672 296.239 543.107 303.999 549.936C311.759 556.765 322.085 560.431 332.719 560.133H375.639L413.776 592.958C419.389 597.805 426.744 600.487 434.373 600.469H582.969C587.932 600.464 592.819 599.321 597.205 597.14C601.591 594.959 605.342 591.806 608.133 587.954C610.924 584.102 612.67 579.668 613.219 575.039C613.768 570.41 613.104 565.724 611.284 561.391C594.739 521.485 587.444 478.728 589.885 435.969C592.351 407.616 601.996 380.227 618.018 356.078Z" fill="#C4A2FC" fill-opacity="0.65"/>
<path d="M203.125 524.219H142.188C139.494 524.219 136.911 523.215 135.006 521.427C133.101 519.64 132.031 517.215 132.031 514.688C132.031 512.16 133.101 509.735 135.006 507.948C136.911 506.16 139.494 505.156 142.188 505.156H203.125C205.819 505.156 208.402 506.16 210.307 507.948C212.211 509.735 213.281 512.16 213.281 514.688C213.281 517.215 212.211 519.64 210.307 521.427C208.402 523.215 205.819 524.219 203.125 524.219Z" fill="#C4A2FC" fill-opacity="0.65"/>
<path d="M198.584 485.141L137.647 456.547C135.238 455.416 133.406 453.433 132.554 451.034C131.703 448.635 131.902 446.017 133.107 443.756C134.313 441.495 136.426 439.776 138.982 438.977C141.538 438.178 144.327 438.364 146.737 439.496L207.674 468.089C208.878 468.643 209.953 469.415 210.837 470.36C211.722 471.305 212.398 472.405 212.827 473.597C213.256 474.789 213.43 476.048 213.338 477.303C213.245 478.558 212.89 479.784 212.29 480.909C211.691 482.034 210.861 483.037 209.846 483.86C208.832 484.682 207.655 485.308 206.382 485.702C205.108 486.095 203.765 486.248 202.428 486.152C201.092 486.055 199.789 485.712 198.595 485.141H198.584Z" fill="#C4A2FC" fill-opacity="0.65"/>
<path d="M133.108 585.667C131.905 583.407 131.708 580.791 132.559 578.394C133.41 575.998 135.24 574.016 137.648 572.885L198.585 544.292C199.779 543.721 201.082 543.377 202.419 543.281C203.755 543.185 205.099 543.338 206.372 543.731C207.645 544.124 208.823 544.75 209.837 545.573C210.851 546.396 211.682 547.398 212.281 548.524C212.88 549.649 213.236 550.874 213.328 552.129C213.42 553.384 213.246 554.644 212.817 555.835C212.388 557.027 211.712 558.127 210.828 559.073C209.943 560.018 208.868 560.79 207.665 561.343L146.727 589.937C144.318 591.065 141.529 591.249 138.975 590.448C136.421 589.647 134.311 587.928 133.108 585.667Z" fill="#C4A2FC" fill-opacity="0.65"/>
<path d="M431.498 320.25C428.553 318.696 359.602 280.934 374.146 168.265C376.462 146.32 372.809 124.182 363.528 103.923C354.247 83.6629 339.643 65.9436 321.08 52.422C295.156 32.5606 264.406 19.0161 231.562 12.9919C198.719 6.96765 164.798 8.65028 132.813 17.8903C102.367 26.2149 74.9784 42.3045 53.6963 64.3686C32.4142 86.4326 18.0731 113.606 12.2688 142.864C6.21333 176.951 13.1614 211.95 31.8907 241.703C47.9086 265.845 57.5504 293.229 60.0133 321.575C61.1562 341.424 60.1968 361.331 57.1493 381.002C53.6003 403.586 47.3766 425.728 38.5938 447.016C36.7732 451.351 36.1091 456.038 36.6594 460.669C37.2096 465.3 38.9574 469.734 41.7508 473.587C44.5441 477.439 48.2983 480.592 52.6867 482.772C57.075 484.952 61.9645 486.092 66.9297 486.094H215.536C223.163 486.105 230.515 483.416 236.123 478.564L274.27 445.729H317.19C327.823 446.027 338.149 442.361 345.909 435.532C353.669 428.704 358.231 419.268 358.597 409.291V362.121L430.066 337.511C431.887 336.88 433.477 335.772 434.648 334.318C435.818 332.865 436.52 331.127 436.671 329.311C436.822 327.495 436.415 325.676 435.498 324.07C434.581 322.464 433.193 321.139 431.498 320.25ZM344.937 346.547C342.987 347.22 341.303 348.437 340.114 350.036C338.924 351.635 338.286 353.537 338.284 355.487V409.31C337.914 414.229 335.491 418.813 331.542 422.066C327.592 425.319 322.435 426.979 317.19 426.686H270.309C267.767 426.685 265.319 427.583 263.453 429.202L222.422 464.534C220.549 466.141 218.104 467.032 215.566 467.031H66.9297C65.262 467.028 63.6208 466.639 62.1512 465.899C60.6815 465.16 59.4286 464.092 58.503 462.79C57.5775 461.488 57.0078 459.992 56.8443 458.434C56.6809 456.877 56.9286 455.306 57.5657 453.859C66.8815 431.251 73.4798 407.738 77.2383 383.757C80.4837 362.833 81.5044 341.659 80.2852 320.546C77.6596 289.168 67.0771 258.835 49.4203 232.077C33.0897 206.14 27.0298 175.63 32.3071 145.914C37.4948 120.163 50.1917 96.2661 68.9859 76.8819C87.7802 57.4976 111.935 43.3852 138.765 36.114C167.536 27.9891 197.983 26.5591 227.475 31.9478C256.967 37.3364 284.617 49.3815 308.039 67.0429C323.977 78.5461 336.549 93.6513 344.582 110.949C352.615 128.246 355.847 147.171 353.976 165.958C342.103 258.04 381.875 305.887 405.509 325.664L344.937 346.547Z" fill="#151A6A" fill-opacity="0.65"/>
<path d="M446.875 409.844H507.812C510.506 409.844 513.089 408.84 514.994 407.052C516.899 405.265 517.969 402.84 517.969 400.312C517.969 397.785 516.899 395.36 514.994 393.573C513.089 391.785 510.506 390.781 507.812 390.781H446.875C444.181 390.781 441.598 391.785 439.693 393.573C437.789 395.36 436.719 397.785 436.719 400.312C436.719 402.84 437.789 405.265 439.693 407.052C441.598 408.84 444.181 409.844 446.875 409.844Z" fill="#151A6A" fill-opacity="0.65"/>
<path d="M451.415 370.766L512.352 342.172C514.762 341.035 516.591 339.045 517.438 336.642C518.284 334.239 518.079 331.618 516.867 329.357C515.655 327.096 513.535 325.379 510.974 324.585C508.413 323.79 505.621 323.983 503.212 325.121L442.274 353.714C441.07 354.268 439.995 355.04 439.111 355.985C438.227 356.93 437.551 358.03 437.121 359.222C436.692 360.414 436.519 361.673 436.611 362.928C436.703 364.183 437.059 365.409 437.658 366.534C438.257 367.659 439.088 368.662 440.102 369.484C441.116 370.307 442.294 370.933 443.567 371.326C444.84 371.72 446.184 371.873 447.52 371.777C448.857 371.68 450.16 371.337 451.354 370.766H451.415Z" fill="#151A6A" fill-opacity="0.65"/>
<path d="M512.352 458.51L451.415 429.917C450.221 429.346 448.918 429.002 447.581 428.906C446.245 428.81 444.901 428.963 443.628 429.356C442.355 429.749 441.177 430.375 440.163 431.198C439.149 432.021 438.318 433.023 437.719 434.149C437.12 435.274 436.764 436.499 436.672 437.754C436.58 439.009 436.753 440.269 437.182 441.46C437.612 442.652 438.288 443.752 439.172 444.698C440.057 445.643 441.132 446.415 442.335 446.968L503.273 475.562C504.466 476.125 505.765 476.462 507.097 476.554C508.429 476.646 509.767 476.491 511.035 476.098C512.303 475.704 513.476 475.08 514.487 474.261C515.498 473.443 516.328 472.445 516.928 471.325C517.528 470.206 517.887 468.986 517.985 467.736C518.083 466.486 517.918 465.23 517.499 464.04C517.079 462.85 516.415 461.75 515.542 460.801C514.669 459.852 513.606 459.074 512.413 458.51H512.352Z" fill="#151A6A" fill-opacity="0.65"/>
</svg>
