<svg width="650" height="610" viewBox="0 0 650 610" fill="none" xmlns="http://www.w3.org/2000/svg">
<path d="M20.3125 371.719L50.7812 438.438L20.3125 476.562L50.7812 514.688L20.3125 581.406L233.594 476.562L20.3125 371.719Z" fill="#C12900" fill-opacity="0.65"/>
<path d="M50.7812 514.688L233.594 476.562L50.7812 438.438L20.3125 476.562L50.7812 514.688Z" fill="#DE4542" fill-opacity="0.65"/>
<path d="M477.344 314.531C561.481 314.531 629.688 250.522 629.688 171.562C629.688 92.603 561.481 28.5938 477.344 28.5938C393.207 28.5938 325 92.603 325 171.562C325 250.522 393.207 314.531 477.344 314.531Z" fill="#6597EF" fill-opacity="0.65"/>
<path d="M595.535 81.4188C605.051 100.081 610.536 120.899 610.536 142.969C610.536 221.928 542.329 285.938 458.192 285.938C410.484 285.938 367.934 265.329 340.001 233.113C364.53 281.22 416.723 314.531 477.344 314.531C561.481 314.531 629.688 250.522 629.688 171.563C629.688 137.375 616.865 106.019 595.535 81.4188Z" fill="#4A75DD" fill-opacity="0.65"/>
<path d="M477.344 266.875C533.435 266.875 578.906 224.202 578.906 171.562C578.906 118.923 533.435 76.25 477.344 76.25C421.252 76.25 375.781 118.923 375.781 171.562C375.781 224.202 421.252 266.875 477.344 266.875Z" fill="#EEEBEA" fill-opacity="0.65"/>
<path d="M477.344 219.219C505.389 219.219 528.125 197.882 528.125 171.562C528.125 145.243 505.389 123.906 477.344 123.906C449.298 123.906 426.562 145.243 426.562 171.562C426.562 197.882 449.298 219.219 477.344 219.219Z" fill="#E0AC9B" fill-opacity="0.65"/>
<path d="M543.359 486.094H253.906V467.031H543.359C574.155 467.031 599.219 443.515 599.219 414.609C599.219 385.704 574.155 362.188 543.359 362.188H208.203C149.398 362.188 101.562 317.291 101.562 262.109C101.562 206.928 149.398 162.031 208.203 162.031H477.344V181.094H208.203C160.606 181.094 121.875 217.436 121.875 262.109C121.875 306.782 160.606 343.125 208.203 343.125H543.359C585.363 343.125 619.531 375.191 619.531 414.609C619.531 454.028 585.363 486.094 543.359 486.094Z" fill="#999DAA" fill-opacity="0.65"/>
<path d="M250.931 206.895L236.569 193.417L259.857 171.562L236.569 149.708L250.931 136.23L288.58 171.562L250.931 206.895Z" fill="#999DAA" fill-opacity="0.65"/>
<path d="M454.056 206.895L439.694 193.417L462.982 171.562L439.694 149.708L454.056 136.23L491.705 171.562L454.056 206.895Z" fill="#999DAA" fill-opacity="0.65"/>
<path d="M348.288 387.989L310.638 352.656L348.288 317.324L362.65 330.801L339.362 352.656L362.65 374.511L348.288 387.989Z" fill="#999DAA" fill-opacity="0.65"/>
<path d="M423.587 511.895L409.225 498.417L432.513 476.562L409.225 454.708L423.587 441.23L461.237 476.562L423.587 511.895Z" fill="#999DAA" fill-opacity="0.65"/>
<path d="M20.3125 476.562H233.594L50.7812 514.688L20.3125 476.562Z" fill="#C12900" fill-opacity="0.65"/>
</svg>
