<svg width="650" height="610" viewBox="0 0 650 610" fill="none" xmlns="http://www.w3.org/2000/svg">
<g clip-path="url(#clip0)">
<path d="M481.957 439.972C561.387 365.43 561.387 244.573 481.957 170.031C402.527 95.4883 273.745 95.4883 194.315 170.031C114.884 244.573 114.884 365.43 194.315 439.972C273.745 514.514 402.527 514.514 481.957 439.972Z" fill="#F9F9F9"/>
<path fill-rule="evenodd" clip-rule="evenodd" d="M338.207 114.093V495.906C450.25 495.906 541.632 410.147 541.632 304.999C541.632 199.851 450.25 114.093 338.207 114.093Z" fill="#E2DFF4"/>
<path d="M625.488 405.385C615.879 401.374 604.623 405.432 600.349 414.449C554.324 511.53 451.429 574.258 338.206 574.258C180.001 574.258 51.2917 453.469 51.2917 305C51.2917 156.531 180.001 35.7422 338.206 35.7422C399.542 35.7422 459.322 54.2971 508.475 88.2915L493.984 87.8984C483.478 87.641 474.703 95.3804 474.4 105.248C474.096 115.112 482.372 123.343 492.885 123.627L569.346 125.698C569.53 125.703 569.712 125.705 569.897 125.705C576.018 125.705 581.781 122.94 585.365 118.257C589.055 113.433 589.951 107.204 587.756 101.634L561.219 34.3077C557.572 25.0517 546.62 20.3242 536.753 23.7471C526.889 27.1712 521.851 37.4519 525.5 46.7079L530.353 59.0211C474.811 20.8329 407.383 0 338.206 0C251.395 0 169.781 31.726 108.395 89.3316C47.0122 146.94 13.2058 223.532 13.2058 305C13.2058 386.468 47.0122 463.06 108.397 520.668C169.781 578.274 251.395 610 338.206 610C466.456 610 583.013 538.945 635.144 428.979C639.421 419.96 635.096 409.398 625.488 405.385Z" fill="#CACAF6"/>
<path d="M389.622 371.123C384.748 371.123 379.876 369.379 376.157 365.888L324.742 317.636C321.171 314.286 319.164 309.739 319.164 305V226.367C319.164 216.498 327.69 208.496 338.207 208.496C348.724 208.496 357.25 216.498 357.25 226.367V297.598L403.088 340.615C410.525 347.593 410.525 358.909 403.088 365.888C399.369 369.378 394.496 371.123 389.622 371.123Z" fill="#6597EF"/>
<path d="M338.206 96.2227C215.537 96.2227 115.738 189.879 115.738 305C115.738 420.121 215.537 513.777 338.206 513.777C460.874 513.777 560.675 420.121 560.675 305C560.675 189.879 460.876 96.2227 338.206 96.2227ZM515.034 322.871H521.61C517.839 357.201 503.324 388.581 481.29 414.005L476.708 409.705C469.271 402.725 457.214 402.727 449.777 409.705C442.342 416.685 442.342 427.999 449.777 434.979L454.359 439.279C427.269 459.957 393.83 473.579 357.25 477.118V470.947C357.25 461.078 348.724 453.076 338.207 453.076C327.69 453.076 319.164 461.078 319.164 470.947V477.118C282.583 473.579 249.146 459.957 222.055 439.279L226.636 434.98C234.073 428.001 234.073 416.686 226.637 409.705C219.2 402.729 207.143 402.727 199.706 409.704L195.123 414.004C173.089 388.581 158.574 357.2 154.803 322.871H161.378C171.895 322.871 180.421 314.87 180.421 305C180.421 295.13 171.895 287.129 161.378 287.129H154.803C158.574 252.798 173.089 221.419 195.123 195.996L199.704 200.296C203.422 203.786 208.296 205.531 213.17 205.531C218.042 205.531 222.917 203.785 226.634 200.296C234.071 193.318 234.071 182.003 226.634 175.022L222.053 170.722C249.143 150.044 282.581 136.422 319.162 132.883V139.054C319.162 148.923 327.688 156.925 338.205 156.925C348.721 156.925 357.248 148.923 357.248 139.054V132.883C393.829 136.422 427.266 150.044 454.357 170.722L449.775 175.022C442.338 182 442.338 193.316 449.775 200.296C453.493 203.785 458.367 205.531 463.239 205.531C468.112 205.531 472.987 203.785 476.704 200.296L481.286 195.996C503.32 221.419 517.836 252.8 521.606 287.13H515.03C504.513 287.13 495.987 295.132 495.987 305.001C495.987 314.871 504.517 322.871 515.034 322.871Z" fill="#4793FF"/>
<path d="M530.352 59.0211C474.811 20.8329 407.383 0 338.206 0V35.7422C399.542 35.7422 459.322 54.2971 508.475 88.2915L493.984 87.8984C483.478 87.641 474.703 95.3804 474.4 105.248C474.096 115.112 482.372 123.343 492.885 123.627L569.345 125.698C569.53 125.703 569.712 125.705 569.896 125.705C576.018 125.705 581.781 122.94 585.364 118.257C589.055 113.433 589.951 107.204 587.756 101.634L561.219 34.3077C557.572 25.0517 546.62 20.3242 536.753 23.7471C526.889 27.1712 521.851 37.4519 525.5 46.7079L530.352 59.0211Z" fill="#CACAF6"/>
<path d="M625.488 405.386C615.879 401.374 604.623 405.432 600.349 414.449C554.324 511.53 451.429 574.258 338.206 574.258V610C466.456 610 583.013 538.945 635.144 428.979C639.421 419.96 635.096 409.398 625.488 405.386Z" fill="#CACAF6"/>
<path d="M403.088 340.616L357.25 297.599V226.367C357.25 216.498 348.724 208.496 338.207 208.496V330.273L376.158 365.889C379.877 369.38 384.749 371.124 389.623 371.124C394.495 371.124 399.37 369.379 403.088 365.889C410.525 358.91 410.525 347.594 403.088 340.616Z" fill="#1D1DF5"/>
<path d="M338.206 96.2227V156.925C348.723 156.925 357.249 148.923 357.249 139.054V132.883C393.83 136.422 427.267 150.044 454.358 170.722L449.776 175.022C442.339 182 442.339 193.316 449.776 200.296C453.495 203.785 458.368 205.531 463.241 205.531C468.113 205.531 472.988 203.785 476.705 200.296L481.287 195.996C503.321 221.419 517.837 252.8 521.607 287.13H515.031C504.514 287.13 495.988 295.131 495.988 305.001C495.988 314.871 504.514 322.872 515.031 322.872H521.607C517.837 357.203 503.321 388.582 481.287 414.006L476.705 409.707C469.268 402.726 457.212 402.729 449.775 409.707C442.339 416.686 442.339 428.001 449.775 434.98L454.357 439.28C427.266 459.958 393.828 473.58 357.248 477.119V470.948C357.248 461.079 348.721 453.077 338.205 453.077V513.78C460.873 513.78 560.672 420.123 560.672 305.002C560.672 189.881 460.876 96.2227 338.206 96.2227Z" fill="#525CDD"/>
</g>
<defs>
<clipPath id="clip0">
<rect width="650" height="610" fill="white"/>
</clipPath>
</defs>
</svg>
