<svg width="453" height="404" viewBox="0 0 453 404" fill="none" xmlns="http://www.w3.org/2000/svg">
<g clip-path="url(#clip0)">
<path d="M130.535 234.507C176.694 265.417 222.125 281.336 224.036 281.998C225.638 282.533 227.24 282.533 228.843 281.998C315.938 251.393 416.029 184.135 416.918 93.9966C416.29 1.33731 283.483 -35.0861 226.439 42.2018C201.526 6.89794 149.71 -9.10701 105.636 5.24584C97.8076 7.71294 101.873 18.9809 110.058 16.4034C152.08 2.77559 200.815 20.5447 220.51 56.7408C222.912 61.0123 229.967 61.0139 232.37 56.7408C276.466 -19.7912 402.67 8.20209 403.647 93.9974C402.482 178.957 307.286 239.909 226.44 270.092C189.009 257.301 108.358 214.291 76.728 169.176C43.4888 126.311 35.1438 66.1358 81.8953 30.8486C88.2321 26.0643 79.9473 16.8144 73.3221 21.8165C21.2645 60.8884 28.5717 128.247 65.8317 175.933C81.4919 196.538 103.262 216.244 130.535 234.507Z" fill="#6597EF" fill-opacity="0.65"/>
<path d="M292.169 369.549L255.06 385.679C255.022 385.695 254.983 385.713 254.945 385.73C237.65 393.622 217.465 394.283 199.564 387.542C199.497 387.517 199.43 387.493 199.362 387.47L103.306 354.577C102.547 354.316 101.74 354.183 100.928 354.183H42.598C34.2955 354.183 33.9169 366.018 42.598 366.018H99.6973L194.506 398.484C204.327 402.168 214.717 404 225.088 404C237.392 404 249.67 401.42 260.929 396.293L297.983 380.187C305.447 376.943 299.971 366.154 292.169 369.549Z" fill="#6597EF" fill-opacity="0.65"/>
<path d="M363.053 301.109L280.708 320.765C280.077 309.026 269.161 299.648 255.832 299.648H42.598C34.2955 299.648 33.9169 311.483 42.598 311.483H255.832C262.249 311.483 267.468 316.128 267.468 321.838C267.468 327.548 262.249 332.193 255.832 332.193H183.692C175.389 332.193 175.011 344.028 183.692 344.028H255.832C264.536 344.028 272.207 340.025 276.662 333.981L366.457 312.547C383.894 308.459 389.774 327.11 374.355 333.826L323.562 355.903C316.075 359.157 321.631 369.909 329.376 366.541L380.063 344.51C410.286 332.486 395.45 293.516 363.053 301.109Z" fill="#6597EF" fill-opacity="0.65"/>
<path d="M81.5724 62.2116C67.992 80.8352 67.4754 116.502 80.1596 135.941C84.1874 142.435 95.9693 136.98 91.7716 130.213C81.4556 114.422 81.7502 83.5311 92.8323 68.4721C94.7706 65.6989 93.8222 62.0491 90.7127 60.3205C87.6031 58.5911 83.5098 59.4392 81.5724 62.2116Z" fill="#6597EF" fill-opacity="0.65"/>
</g>
<defs>
<clipPath id="clip0">
<rect width="453" height="404" fill="white"/>
</clipPath>
</defs>
</svg>
